<svg width="295" height="311" viewBox="0 0 295 311" fill="none" xmlns="http://www.w3.org/2000/svg">
<g clip-path="url(#clip0_248:9612)">
<path d="M216.448 299.448L198.105 287.74L221.998 294.58C237.007 280.241 248.003 260.374 248.003 260.374C248.003 260.374 207.802 235.826 183.038 242.377C158.275 248.928 153.523 265.936 158.327 284.096C163.13 302.256 175.671 314.69 200.434 308.139C205.946 306.681 211.36 303.504 216.448 299.448Z" fill="#F2F2F2"/>
<path d="M196.28 283.964L195.059 284.287C180.852 287.967 169.149 288.503 160.111 285.87C159.979 285.834 159.851 285.79 159.719 285.754L159.9 285.143L160.082 284.559C169.877 287.541 182.262 286.236 194.655 283.029C195.056 282.93 195.462 282.829 195.866 282.716C201.1 281.311 206.315 279.589 211.327 277.714C211.716 277.572 212.11 277.423 212.504 277.273C219.107 274.764 225.325 272.02 230.685 269.477C231.065 269.299 231.443 269.115 231.815 268.932C240.869 264.591 247.285 260.909 248.702 260.081C248.876 259.983 248.971 259.926 248.994 259.914L249.309 260.444L249.316 260.449L249.633 260.986C249.61 260.998 249.293 261.192 248.697 261.531C246.475 262.81 240.424 266.209 232.292 270.125C231.924 270.3 231.546 270.484 231.166 270.662C226.819 272.73 221.929 274.922 216.739 277.006C215.436 277.532 214.147 278.035 212.871 278.515C212.479 278.67 212.085 278.819 211.696 278.961C206.278 280.989 201.139 282.657 196.28 283.964Z" fill="white"/>
<path d="M232.292 270.125C232.13 269.734 231.967 269.338 231.815 268.932C231.399 267.831 231.039 266.709 230.738 265.57C229.448 260.721 229.263 255.644 230.196 250.714C229.808 250.545 229.421 250.376 229.026 250.202C227.996 255.402 228.168 260.767 229.529 265.89C229.851 267.105 230.237 268.302 230.685 269.477C230.836 269.876 230.999 270.273 231.167 270.662C232.53 273.877 234.374 276.866 236.635 279.528C236.898 279.18 237.158 278.84 237.412 278.508C235.302 275.981 233.577 273.156 232.292 270.125Z" fill="white"/>
<path d="M212.872 278.514C212.738 278.104 212.615 277.69 212.505 277.273C212.465 277.148 212.43 277.015 212.397 276.888C211.006 271.632 210.907 266.117 212.108 260.814C213.31 255.511 215.775 250.578 219.295 246.434C218.875 246.286 218.454 246.139 218.029 245.999C214.492 250.284 212.026 255.349 210.837 260.776C209.647 266.204 209.767 271.836 211.188 277.208C211.233 277.377 211.277 277.546 211.328 277.714C211.446 278.135 211.569 278.549 211.697 278.961C213.734 285.325 217.561 290.968 222.721 295.215C223.026 294.927 223.332 294.64 223.635 294.346C218.584 290.229 214.843 284.726 212.872 278.514Z" fill="white"/>
<path d="M196.28 283.963C196.132 283.55 195.996 283.134 195.866 282.715C195.728 282.267 195.596 281.817 195.476 281.364C193.616 274.298 194.094 266.821 196.839 260.05C199.584 253.279 204.449 247.58 210.704 243.805C210.143 243.663 209.588 243.519 209.029 243.388C202.856 247.41 198.107 253.275 195.457 260.149C192.807 267.024 192.391 274.559 194.267 281.683C194.387 282.137 194.513 282.588 194.656 283.029C194.781 283.455 194.917 283.871 195.059 284.286C197.988 292.653 203.986 299.595 211.841 303.705C212.254 303.46 212.657 303.198 213.066 302.935C205.216 299.034 199.195 292.229 196.28 283.963Z" fill="white"/>
<path d="M172.011 308.74L81.3022 272.228C75.8665 270.033 71.5235 265.771 69.226 260.378C66.9285 254.984 66.8641 248.9 69.0469 243.459L161.467 13.8551C163.662 8.41937 167.923 4.07634 173.317 1.77879C178.71 -0.518768 184.794 -0.583212 190.235 1.59959L280.944 38.1115C286.379 40.3066 290.722 44.5683 293.02 49.9615C295.317 55.3547 295.382 61.439 293.199 66.8797L200.779 296.484C198.584 301.92 194.322 306.263 188.929 308.56C183.536 310.858 177.452 310.922 172.011 308.74Z" fill="#3F3D56"/>
<path d="M277.365 44.0707L267.268 40.0066C266.367 39.6447 265.359 39.6553 264.465 40.036C263.571 40.4168 262.865 41.1365 262.502 42.0373C261.758 43.879 260.314 45.3505 258.487 46.1289C256.66 46.9073 254.599 46.9289 252.756 46.1891L203.374 26.312C201.532 25.5687 200.061 24.125 199.282 22.2978C198.504 20.4707 198.482 18.4093 199.222 16.5662C199.584 15.6648 199.574 14.6565 199.193 13.7628C198.812 12.8692 198.092 12.163 197.192 11.7994L188.289 8.21584C184.162 6.56096 179.548 6.61016 175.458 8.35266C171.367 10.0952 168.135 13.3887 166.47 17.511L74.7066 245.483C73.0517 249.61 73.1009 254.224 74.8433 258.314C76.5858 262.405 79.8793 265.637 84.0016 267.302L173.078 303.157C177.205 304.812 181.819 304.763 185.909 303.02C190 301.278 193.232 297.984 194.897 293.862L286.66 65.8899C288.315 61.7634 288.266 57.149 286.524 53.0587C284.781 48.9684 281.488 45.7362 277.365 44.0707Z" fill="white"/>
<path d="M242.824 35.4857L214.965 24.2721C214.701 24.1659 214.49 23.9592 214.379 23.6975C214.267 23.4358 214.264 23.1405 214.371 22.8766C214.477 22.6128 214.683 22.4019 214.945 22.2904C215.207 22.1789 215.502 22.176 215.766 22.2822L243.625 33.4958C243.755 33.5484 243.874 33.6262 243.975 33.7248C244.076 33.8234 244.156 33.9409 244.211 34.0704C244.266 34.2 244.295 34.3392 244.297 34.48C244.298 34.6209 244.272 34.7606 244.219 34.8913C244.167 35.0219 244.089 35.141 243.99 35.2415C243.892 35.3421 243.774 35.4223 243.645 35.4775C243.515 35.5327 243.376 35.5619 243.235 35.5633C243.094 35.5647 242.954 35.5383 242.824 35.4857Z" fill="white"/>
<path d="M247.602 37.1111C248.076 37.1111 248.46 36.7269 248.46 36.253C248.46 35.7792 248.076 35.395 247.602 35.395C247.128 35.395 246.744 35.7792 246.744 36.253C246.744 36.7269 247.128 37.1111 247.602 37.1111Z" fill="white"/>
<path d="M265.807 137.229C265.332 137.038 264.953 136.666 264.752 136.195C264.552 135.724 264.546 135.193 264.737 134.718L278.834 99.6951C279.025 99.2206 279.397 98.8416 279.868 98.6414C280.339 98.4411 280.87 98.4359 281.345 98.6269C281.819 98.818 282.199 99.1897 282.4 99.6603C282.6 100.131 282.606 100.662 282.416 101.137L268.318 136.159C268.127 136.634 267.755 137.013 267.284 137.214C266.813 137.414 266.282 137.42 265.807 137.229Z" fill="#3F3D56"/>
<path d="M143.691 58.0158C143.217 57.8241 142.838 57.452 142.637 56.9811C142.436 56.5102 142.431 55.979 142.621 55.504L145.825 47.5443C145.92 47.3087 146.06 47.094 146.237 46.9125C146.414 46.731 146.626 46.5863 146.859 46.4866C147.093 46.387 147.344 46.3343 147.597 46.3316C147.851 46.329 148.103 46.3764 148.338 46.4712C148.574 46.566 148.788 46.7062 148.969 46.884C149.151 47.0617 149.295 47.2734 149.394 47.507C149.494 47.7406 149.546 47.9915 149.548 48.2452C149.55 48.499 149.502 48.7508 149.407 48.9861L146.203 56.9457C146.012 57.4203 145.64 57.7995 145.169 58.0001C144.698 58.2007 144.167 58.2064 143.691 58.0158Z" fill="#3F3D56"/>
<path d="M137.764 72.7407C137.289 72.5491 136.91 72.177 136.709 71.7061C136.509 71.2352 136.503 70.704 136.694 70.2289L139.898 62.2693C139.992 62.0336 140.132 61.8189 140.309 61.6373C140.487 61.4558 140.698 61.311 140.932 61.2113C141.165 61.1116 141.416 61.0589 141.67 61.0563C141.923 61.0536 142.175 61.101 142.411 61.1958C142.646 61.2906 142.861 61.4309 143.042 61.6086C143.223 61.7864 143.368 61.9982 143.467 62.2318C143.566 62.4654 143.618 62.7163 143.62 62.9701C143.623 63.224 143.575 63.4757 143.479 63.711L140.276 71.6707C140.084 72.1453 139.712 72.5245 139.241 72.7251C138.77 72.9257 138.239 72.9313 137.764 72.7407Z" fill="#3F3D56"/>
<path d="M222.877 106.545L184.342 91.0344C183.553 90.7144 182.922 90.0947 182.588 89.311C182.254 88.5272 182.244 87.6431 182.56 86.8519L191.808 63.8759C192.128 63.0864 192.748 62.4558 193.532 62.1218C194.315 61.7878 195.199 61.7777 195.99 62.0936L234.525 77.6043C235.314 77.9243 235.945 78.5438 236.279 79.3275C236.613 80.1111 236.623 80.9951 236.307 81.7863L227.059 104.763C226.739 105.552 226.119 106.183 225.335 106.517C224.552 106.851 223.668 106.861 222.877 106.545ZM195.341 63.71C194.978 63.5654 194.573 63.5701 194.214 63.7232C193.855 63.8763 193.571 64.1654 193.424 64.5272L184.176 87.5016C184.032 87.8643 184.036 88.2695 184.19 88.6287C184.343 88.9879 184.632 89.2719 184.994 89.4187L223.525 104.928C223.888 105.073 224.293 105.068 224.653 104.915C225.012 104.762 225.296 104.473 225.443 104.111L234.691 81.1368C234.835 80.7742 234.83 80.369 234.677 80.0098C234.524 79.6506 234.235 79.3667 233.873 79.22L195.341 63.71Z" fill="#3F3D56"/>
<path d="M223.106 91.9246L223.104 91.9237L193.358 79.9505C192.943 79.7824 192.591 79.4907 192.348 79.115C192.104 78.7393 191.983 78.2978 192 77.8507L192.561 63.9188C192.575 63.5716 192.672 63.2329 192.844 62.9311C193.017 62.6292 193.259 62.3731 193.55 62.1843C193.842 61.9954 194.175 61.8792 194.52 61.8456C194.866 61.812 195.215 61.8619 195.538 61.9911L234.904 77.7589C235.436 77.9723 235.862 78.3874 236.089 78.9137C236.316 79.4401 236.326 80.0349 236.116 80.5684L236.245 80.6976L235.011 81.9271L235.011 81.9267L225.447 91.4487C225.147 91.7488 224.764 91.954 224.348 92.0386C223.932 92.1232 223.5 92.0836 223.106 91.9246Z" fill="#3F3D56"/>
<path d="M200.768 92.9379L187.538 87.6128C187.213 87.4814 186.952 87.2261 186.815 86.9029C186.677 86.5797 186.674 86.2151 186.805 85.8893C186.936 85.5634 187.191 85.303 187.514 85.1652C187.837 85.0275 188.202 85.0237 188.528 85.1546L201.757 90.4798C202.083 90.6111 202.344 90.8664 202.481 91.1896C202.619 91.5128 202.622 91.8774 202.491 92.2033C202.36 92.5291 202.105 92.7896 201.782 92.9273C201.459 93.0651 201.094 93.0689 200.768 92.9379V92.9379Z" fill="#3F3D56"/>
<path d="M208.959 88.5302C210.748 88.5302 212.198 87.0803 212.198 85.2917C212.198 83.5031 210.748 82.0532 208.959 82.0532C207.171 82.0532 205.721 83.5031 205.721 85.2917C205.721 87.0803 207.171 88.5302 208.959 88.5302Z" fill="white"/>
<path d="M165.418 249.297L126.883 233.786C126.094 233.466 125.463 232.847 125.129 232.063C124.795 231.279 124.785 230.395 125.101 229.604L134.349 206.628C134.669 205.838 135.289 205.208 136.073 204.874C136.856 204.54 137.74 204.53 138.532 204.846L177.066 220.356C177.855 220.676 178.486 221.296 178.82 222.079C179.154 222.863 179.164 223.747 178.848 224.538L169.6 247.515C169.28 248.304 168.66 248.935 167.876 249.269C167.093 249.603 166.209 249.613 165.418 249.297ZM137.882 206.462C137.519 206.317 137.114 206.322 136.755 206.475C136.396 206.628 136.112 206.917 135.965 207.279L126.717 230.254C126.573 230.616 126.578 231.021 126.731 231.381C126.884 231.74 127.173 232.024 127.535 232.171L166.066 247.68C166.429 247.825 166.834 247.82 167.194 247.667C167.553 247.514 167.837 247.225 167.984 246.863L177.232 223.889C177.376 223.526 177.371 223.121 177.218 222.762C177.065 222.403 176.776 222.119 176.414 221.972L137.882 206.462Z" fill="#3F3D56"/>
<path d="M165.645 234.677L165.643 234.676L135.897 222.703C135.483 222.534 135.13 222.243 134.887 221.867C134.643 221.491 134.522 221.05 134.539 220.603L135.1 206.671C135.114 206.324 135.211 205.985 135.383 205.683C135.556 205.381 135.798 205.125 136.089 204.936C136.381 204.747 136.714 204.631 137.059 204.598C137.405 204.564 137.754 204.614 138.077 204.743L177.443 220.511C177.975 220.724 178.401 221.139 178.628 221.666C178.855 222.192 178.865 222.787 178.655 223.32L178.784 223.45L177.55 224.679L177.55 224.679L167.986 234.201C167.686 234.501 167.303 234.706 166.887 234.791C166.471 234.875 166.039 234.836 165.645 234.677Z" fill="#3F3D56"/>
<path d="M143.309 235.69L130.079 230.365C129.754 230.233 129.493 229.978 129.356 229.655C129.218 229.332 129.215 228.967 129.346 228.641C129.477 228.315 129.732 228.055 130.055 227.917C130.378 227.779 130.743 227.776 131.069 227.907L144.298 233.232C144.46 233.297 144.607 233.393 144.731 233.515C144.855 233.636 144.954 233.781 145.023 233.941C145.091 234.102 145.127 234.273 145.129 234.447C145.13 234.621 145.098 234.794 145.033 234.955C144.968 235.117 144.872 235.264 144.75 235.388C144.628 235.512 144.483 235.611 144.323 235.68C144.163 235.748 143.991 235.784 143.817 235.786C143.643 235.787 143.47 235.755 143.309 235.69Z" fill="#3F3D56"/>
<path d="M151.5 231.282C153.289 231.282 154.739 229.832 154.739 228.044C154.739 226.255 153.289 224.805 151.5 224.805C149.712 224.805 148.262 226.255 148.262 228.044C148.262 229.832 149.712 231.282 151.5 231.282Z" fill="white"/>
<path d="M180.684 191.109C200.247 191.109 216.106 175.25 216.106 155.687C216.106 136.124 200.247 120.265 180.684 120.265C161.121 120.265 145.262 136.124 145.262 155.687C145.262 175.25 161.121 191.109 180.684 191.109Z" fill="#CDF4DE"/>
<path d="M194.127 177.912L155.592 162.402C154.803 162.082 154.172 161.462 153.838 160.678C153.504 159.894 153.494 159.01 153.81 158.219L163.058 135.243C163.378 134.454 163.998 133.823 164.782 133.489C165.565 133.155 166.449 133.145 167.24 133.461L205.775 148.971C206.564 149.291 207.195 149.911 207.529 150.695C207.863 151.478 207.873 152.362 207.557 153.153L198.309 176.13C197.989 176.919 197.369 177.55 196.585 177.884C195.802 178.218 194.918 178.228 194.127 177.912ZM166.591 135.077C166.228 134.933 165.823 134.937 165.464 135.09C165.105 135.244 164.821 135.533 164.674 135.894L155.426 158.869C155.282 159.231 155.286 159.637 155.44 159.996C155.593 160.355 155.882 160.639 156.244 160.786L194.775 176.295C195.138 176.44 195.543 176.436 195.903 176.282C196.262 176.129 196.546 175.84 196.693 175.478L205.941 152.504C206.085 152.141 206.08 151.736 205.927 151.377C205.774 151.018 205.485 150.734 205.123 150.587L166.591 135.077Z" fill="#3F3D56"/>
<path d="M194.354 163.292L194.352 163.291L164.606 151.318C164.192 151.15 163.839 150.858 163.596 150.483C163.352 150.107 163.231 149.666 163.248 149.218L163.809 135.287C163.823 134.939 163.92 134.601 164.092 134.299C164.265 133.997 164.507 133.741 164.798 133.552C165.09 133.363 165.423 133.247 165.768 133.213C166.114 133.18 166.463 133.23 166.786 133.359L206.152 149.127C206.684 149.34 207.11 149.755 207.337 150.281C207.564 150.808 207.574 151.403 207.364 151.936L207.493 152.065L206.259 153.295L206.259 153.294L196.695 162.816C196.395 163.117 196.012 163.322 195.596 163.406C195.18 163.491 194.748 163.451 194.354 163.292Z" fill="#3F3D56"/>
<path d="M172.018 164.306L158.788 158.98C158.463 158.849 158.202 158.594 158.065 158.271C157.927 157.947 157.924 157.583 158.055 157.257C158.186 156.931 158.441 156.671 158.764 156.533C159.087 156.395 159.452 156.391 159.778 156.522L173.007 161.847C173.333 161.979 173.593 162.234 173.731 162.557C173.869 162.881 173.872 163.245 173.741 163.571C173.61 163.897 173.355 164.157 173.032 164.295C172.708 164.433 172.344 164.437 172.018 164.306Z" fill="#3F3D56"/>
<path d="M84.9622 181.615C84.9656 180.937 84.8204 180.267 84.5369 179.652C84.2533 179.036 83.8383 178.491 83.3209 178.053C82.8036 177.615 82.1966 177.296 81.5427 177.118C80.8888 176.941 80.2039 176.909 79.5362 177.024L71.5604 162.612L67.5898 170.195L75.7725 182.719C76.041 183.827 76.707 184.799 77.6442 185.45C78.5814 186.1 79.7247 186.385 80.8575 186.249C81.9902 186.113 83.0337 185.566 83.7902 184.712C84.5468 183.858 84.9637 182.756 84.9622 181.615H84.9622Z" fill="#9E616A"/>
<path d="M79.8081 123.401L71.6064 122.826C71.6064 122.826 70.5962 122.688 67.8178 127.094C65.0394 131.5 55.5156 153.842 55.5156 153.842L72.2009 178.06L77.6202 172.665L67.9317 153.178L77.2181 140.135L79.8081 123.401Z" fill="#CACACA"/>
<path d="M170.227 149.582C169.677 149.792 169.088 149.879 168.501 149.836C167.914 149.793 167.344 149.623 166.831 149.336C166.317 149.049 165.872 148.653 165.528 148.176C165.184 147.699 164.949 147.152 164.839 146.574L150.691 144.491L155.642 138.949L168.318 141.777C169.302 141.657 170.295 141.901 171.11 142.464C171.924 143.027 172.504 143.87 172.74 144.832C172.975 145.794 172.849 146.809 172.386 147.685C171.923 148.56 171.154 149.235 170.227 149.582Z" fill="#9E616A"/>
<path d="M115.845 304.557H121.89L124.766 281.237L115.844 281.238L115.845 304.557Z" fill="#9E616A"/>
<path d="M114.301 302.583L116.002 302.583L122.646 299.881L126.207 302.583H126.208C128.22 302.583 130.15 303.382 131.573 304.805C132.996 306.228 133.795 308.158 133.795 310.17V310.417L114.301 310.418L114.301 302.583Z" fill="#2F2E41"/>
<path d="M79.3738 304.557H85.4196L88.2957 281.237L79.373 281.238L79.3738 304.557Z" fill="#9E616A"/>
<path d="M77.832 302.583L79.5337 302.583L86.1774 299.881L89.7383 302.583H89.7387C91.751 302.583 93.6809 303.382 95.1038 304.805C96.5267 306.228 97.3262 308.158 97.3263 310.17V310.417L77.8324 310.418L77.832 302.583Z" fill="#2F2E41"/>
<path d="M81.7068 189.725L77.7109 213.811L79.0545 291.238H88.8893L103.999 209.338L114.868 289.892L124.757 289.464L129.691 208.153L125.257 187.398L81.7068 189.725Z" fill="#2F2E41"/>
<path d="M117.841 118.094L107.315 116.543L105.077 110.732L90.2477 110.712L86.9156 118.299L71.7617 122.874L84.3167 166.003C84.3167 166.003 77.3976 182.031 79.0993 182.1C80.801 182.168 81.6394 184.602 80.4525 185.88C79.2655 187.159 76.8839 186.345 78.0747 188.288C78.7568 189.339 79.2137 190.52 79.4166 191.756C79.4166 191.756 129.629 202.476 126.847 188.653C126.502 186.935 122.306 163.128 122.306 163.128C122.306 163.128 125.959 159.085 124.398 157.479C122.837 155.872 123.661 138.905 123.661 138.905L117.841 118.094Z" fill="#CACACA"/>
<path d="M116.119 119.979L117.842 118.094L141.248 131.818L161.052 139.717L161.436 146.627L135.716 143.555L117.512 134.654L116.119 119.979Z" fill="#CACACA"/>
<path d="M109.611 94.0672C109.611 95.6942 109.291 97.3053 108.668 98.8085C108.045 100.312 107.133 101.678 105.982 102.828C104.832 103.979 103.466 104.891 101.963 105.514C100.46 106.137 98.8485 106.457 97.2214 106.457C96.2457 106.456 95.2734 106.342 94.3236 106.118C92.0607 105.575 89.9964 104.405 88.367 102.744C86.7376 101.082 85.609 98.9952 85.1102 96.7221C84.6115 94.4489 84.7628 92.0812 85.5469 89.89C86.331 87.6989 87.7161 85.7727 89.5438 84.332C91.3715 82.8913 93.5678 81.9942 95.8815 81.7435C98.1952 81.4928 100.533 81.8986 102.627 82.9143C104.72 83.9301 106.486 85.5149 107.721 87.4872C108.957 89.4596 109.611 91.7399 109.611 94.0672V94.0672Z" fill="#9E616A"/>
<path d="M100.539 104.114L91.6405 105.83C90.8114 106.055 89.9427 106.091 89.0979 105.936C87.7742 105.587 86.8871 104.366 86.2099 103.176C83.068 97.6048 82.0786 91.0746 83.4289 84.8225C83.7328 83.4424 84.3826 81.8612 85.7675 81.5801C86.1698 81.4985 86.6248 81.5307 86.9433 81.2717C87.4123 80.8901 87.2579 80.0813 86.7973 79.6897C86.2967 79.3446 85.7064 79.1528 85.0985 79.1376C85.4912 78.6759 85.9773 78.3026 86.5247 78.0423C87.072 77.782 87.6683 77.6404 88.2743 77.6271L85.8941 76.3044C87.0406 75.5089 88.5809 75.5816 89.9334 75.9253C91.2859 76.269 92.5876 76.851 93.977 76.9813C95.7214 77.1448 97.4427 76.5843 99.1814 76.3676C101.776 76.0863 104.396 76.5548 106.732 77.7175C109.068 78.8802 111.022 80.6885 112.361 82.9278C112.834 83.6746 113.133 84.5176 113.237 85.3951C113.285 85.8339 113.23 86.2778 113.076 86.6915C112.922 87.1052 112.674 87.4774 112.351 87.7784C111.377 88.598 109.842 88.4775 108.898 89.3321C108.17 89.9907 107.989 91.0543 107.948 92.0349C107.907 93.0154 107.954 94.0401 107.533 94.927C107.113 95.8139 106.017 96.4808 105.14 96.0399C105.101 94.8253 103.701 93.9653 102.512 94.2161C101.323 94.4668 100.444 95.5483 100.102 96.7145C99.7601 97.8806 99.8617 99.1267 100.011 100.333C100.16 101.539 100.353 102.759 100.186 103.963" fill="#2F2E41"/>
<path d="M178.826 160.257C180.615 160.257 182.065 158.807 182.065 157.019C182.065 155.23 180.615 153.78 178.826 153.78C177.038 153.78 175.588 155.23 175.588 157.019C175.588 158.807 177.038 160.257 178.826 160.257Z" fill="#CDF4DE"/>
<path d="M248.945 311H0.457718C0.336721 311 0.220795 310.951 0.135361 310.866C0.0499263 310.78 0.00195312 310.664 0.00195312 310.543C0.00195312 310.422 0.0499263 310.306 0.135361 310.22C0.220795 310.135 0.336721 310.086 0.457718 310.086H248.945C249.066 310.086 249.182 310.134 249.268 310.22C249.354 310.306 249.402 310.422 249.402 310.543C249.402 310.664 249.354 310.78 249.268 310.866C249.182 310.952 249.066 311 248.945 311Z" fill="#CACACA"/>
</g>
<defs>
<clipPath id="clip0_248:9612">
<rect width="294.798" height="311" fill="white"/>
</clipPath>
</defs>
</svg>
