<svg width="68" height="61" viewBox="0 0 68 61" fill="none" xmlns="http://www.w3.org/2000/svg">
<g clip-path="url(#clip0)">
<path d="M11.5947 40.3623C11.9423 40.3471 12.2294 40.3018 12.4561 40.2263C12.6978 40.1509 12.8792 39.9771 13.0001 39.7052C13.1361 39.4333 13.2041 38.9953 13.2041 38.3911V29.7134C13.2041 29.3056 13.2116 28.9129 13.2267 28.5352C13.2569 28.1576 13.2796 27.8707 13.2947 27.6743C13.0529 27.6894 12.7507 27.7044 12.3881 27.7196C12.0254 27.7196 11.7609 27.7271 11.5947 27.7422V25.9976L18.1907 25.975C19.6867 25.975 20.9787 26.2015 22.0667 26.6547C23.1699 27.0927 24.0689 27.6894 24.7641 28.4446C25.4742 29.1998 26.0032 30.0458 26.3507 30.9822C26.6982 31.9037 26.8721 32.8326 26.8721 33.769C26.8721 34.6905 26.7059 35.6269 26.3734 36.5785C26.0561 37.5301 25.5499 38.4063 24.8547 39.2068C24.1596 39.9923 23.2529 40.6342 22.1347 41.1326C21.0166 41.6159 19.6641 41.8576 18.0774 41.8576H11.5947V40.3623ZM16.4907 38.1419C16.4907 38.5497 16.4832 38.9424 16.4681 39.32C16.4529 39.6977 16.4303 39.9846 16.4001 40.181C16.5512 40.1658 16.7552 40.1658 17.0121 40.181C17.2841 40.181 17.5636 40.1885 17.8507 40.2037C18.1379 40.2037 18.3721 40.2037 18.5534 40.2037C19.3846 40.2037 20.0947 40.0376 20.6841 39.7052C21.2886 39.3728 21.7796 38.9274 22.1574 38.3684C22.5502 37.7945 22.8374 37.1524 23.0187 36.4426C23.2001 35.7327 23.2907 35 23.2907 34.2448C23.2907 31.9338 22.8222 30.242 21.8854 29.1696C20.9636 28.0973 19.7169 27.5383 18.1454 27.493C17.7827 27.4778 17.4729 27.5157 17.2161 27.6063C16.9743 27.6818 16.7929 27.8555 16.6721 28.1274C16.5512 28.3993 16.4907 28.8298 16.4907 29.4189V38.1419ZM36.1907 36.3973C36.1907 35.7629 36.0925 35.3097 35.896 35.0378C35.6997 34.7508 35.4277 34.5695 35.08 34.4941C34.7477 34.4186 34.3773 34.3883 33.9693 34.4034L33.38 34.4261V38.1419C33.38 38.5497 33.3725 38.9349 33.3573 39.2974C33.3423 39.6599 33.3197 39.9393 33.2893 40.1357H36.3267C36.78 40.1357 37.2183 40.0376 37.6413 39.8411C38.0645 39.6297 38.412 39.2899 38.684 38.8216C38.956 38.3383 39.092 37.6887 39.092 36.8731H40.5653L40.452 41.8576H28.484V40.3623C28.8317 40.3471 29.1187 40.3018 29.3453 40.2263C29.5872 40.1509 29.7685 39.9771 29.8893 39.7052C30.0253 39.4333 30.0933 38.9953 30.0933 38.3911V29.7134C30.0933 29.3056 30.101 28.9129 30.116 28.5352C30.1463 28.1576 30.169 27.8707 30.184 27.6743C29.9423 27.6894 29.64 27.7044 29.2773 27.7196C28.9147 27.7196 28.6503 27.7271 28.484 27.7422V25.9976H39.8173L39.9533 30.3931H38.4573C38.4573 29.5623 38.3138 28.9356 38.0267 28.5126C37.7397 28.0896 37.3845 27.8102 36.9613 27.6743C36.5383 27.5232 36.1227 27.4552 35.7147 27.4703L34.8987 27.493C34.5813 27.493 34.3093 27.5383 34.0827 27.6289C33.856 27.7044 33.6823 27.8857 33.5613 28.1727C33.4405 28.4446 33.38 28.8751 33.38 29.4642V32.8627H36.032L35.9413 30.8916H37.6867V36.3973H36.1907ZM48.5937 41.9936L43.3804 29.8267C43.2292 29.449 43.0857 29.0563 42.9497 28.6485C42.8137 28.2407 42.7457 27.916 42.7457 27.6743C42.247 27.6894 41.839 27.7121 41.5217 27.7422V25.9976H48.2084V27.493C47.6492 27.4778 47.2185 27.5988 46.9164 27.8555C46.6292 28.1122 46.6217 28.5731 46.8937 29.2376C47.2412 30.0834 47.5887 30.9369 47.9364 31.7979C48.2839 32.6588 48.6314 33.5123 48.979 34.3581C49.2359 34.9925 49.455 35.5515 49.6364 36.0347C49.8177 36.5031 50.0292 37.0242 50.271 37.5981H50.2937C50.4599 37.145 50.6337 36.639 50.815 36.0801C51.0114 35.5211 51.2004 34.985 51.3817 34.4714C51.6687 33.6709 51.9559 32.8779 52.243 32.0924C52.53 31.3069 52.8172 30.5216 53.1044 29.7361C53.1799 29.4793 53.3007 29.1318 53.467 28.6938C53.6484 28.2559 53.8372 27.916 54.0337 27.6743C53.7919 27.6894 53.482 27.7044 53.1044 27.7196C52.7265 27.7196 52.4545 27.7271 52.2884 27.7422V25.9976H57.3884V27.493C56.8745 27.5082 56.4287 27.6969 56.051 28.0594C55.6732 28.4219 55.318 29.0412 54.9857 29.9173C54.23 31.9263 53.4745 33.9351 52.719 35.9441C51.9634 37.9531 51.2079 39.9696 50.4524 41.9936H48.5937Z" fill="#083E49"/>
<path d="M5.20736 30.3566C5.52121 30.3566 5.86644 30.3827 6.24305 30.435C6.61967 30.4873 6.99628 30.5553 7.3729 30.6389C7.29967 31.1931 7.22121 31.7735 7.13751 32.38C7.05382 32.9761 6.97536 33.5617 6.90213 34.1368C6.83936 34.7015 6.78182 35.2139 6.72951 35.674C6.68767 36.1341 6.66674 36.4949 6.66674 36.7563C6.66674 36.955 6.68244 37.138 6.71382 37.3053C6.75567 37.4622 6.86028 37.5406 7.02767 37.5406C7.18459 37.5406 7.35721 37.4361 7.54551 37.2269C7.74428 37.0073 7.9169 36.6361 8.06336 36.1132L8.64398 36.2544C8.60213 36.4531 8.5289 36.6831 8.42428 36.9446C8.33013 37.1955 8.19413 37.4465 8.01628 37.6975C7.8489 37.938 7.6449 38.1419 7.40428 38.3092C7.16367 38.4661 6.88121 38.5445 6.5569 38.5445C5.76182 38.5445 5.36428 38.0739 5.36428 37.1328C5.36428 36.8818 5.37997 36.6099 5.41136 36.3171C5.45321 36.0243 5.50551 35.7263 5.56828 35.4231H5.5369C5.23351 36.3119 4.90921 36.9812 4.56397 37.4308C4.22921 37.87 3.89444 38.1681 3.55967 38.3249C3.2249 38.4713 2.90582 38.5445 2.60244 38.5445C2.03751 38.5445 1.55628 38.3301 1.15874 37.9014C0.771664 37.4622 0.578125 36.7511 0.578125 35.7681C0.578125 35.0466 0.67751 34.3617 0.876279 33.7133C1.07505 33.0545 1.36797 32.4741 1.75505 31.9722C2.14213 31.4703 2.62336 31.0781 3.19874 30.7958C3.78459 30.503 4.45413 30.3566 5.20736 30.3566ZM4.68951 31.0781C4.13505 31.0781 3.66951 31.2873 3.2929 31.7055C2.92674 32.1134 2.64951 32.6624 2.46121 33.3525C2.2729 34.0323 2.17874 34.7904 2.17874 35.627C2.17874 36.2126 2.24151 36.6936 2.36705 37.0701C2.50305 37.4361 2.73321 37.6191 3.05751 37.6191C3.31905 37.6191 3.57536 37.4883 3.82644 37.2269C4.08797 36.955 4.32859 36.5943 4.54828 36.1446C4.77844 35.6949 4.97721 35.193 5.14459 34.6388C5.32244 34.0741 5.45844 33.4989 5.55259 32.9133C5.65721 32.3277 5.71474 31.7683 5.72521 31.235C5.45321 31.1304 5.10797 31.0781 4.68951 31.0781Z" fill="#083E49"/>
<path d="M60.1294 38.5445L59.5645 38.0739C59.8155 37.7079 60.1137 37.2896 60.4589 36.819C60.8146 36.338 61.1808 35.8517 61.5574 35.3602C61.934 34.8688 62.2897 34.4139 62.6245 33.9956C62.9278 33.6087 63.1998 33.2741 63.4405 32.9917C63.6915 32.7094 63.9269 32.4479 64.1466 32.2074C64.3768 31.9564 64.6174 31.6898 64.8685 31.4074H64.8528C64.5285 31.7107 64.2303 31.9094 63.9583 32.0035C63.6968 32.0872 63.4562 32.1185 63.2365 32.0976C62.9017 32.0872 62.5983 32.014 62.3263 31.878C62.0648 31.7421 61.7666 31.6741 61.4318 31.6741C61.2435 31.6741 61.0657 31.7421 60.8983 31.878C60.7309 32.0035 60.6472 32.2283 60.6472 32.5525C60.6472 32.7407 60.6838 32.9342 60.7571 33.1329L60.2078 33.3054C60.1451 33.1486 60.0928 32.9812 60.0509 32.8035C60.0195 32.6152 60.0038 32.4166 60.0038 32.2074C60.0038 31.695 60.1712 31.261 60.506 30.9055C60.8408 30.5395 61.2645 30.3565 61.7771 30.3565C62.0909 30.3565 62.3786 30.3983 62.6401 30.482C62.9121 30.5656 63.1842 30.6493 63.4562 30.733C63.7282 30.8062 64.0158 30.8428 64.3192 30.8428C64.4448 30.8428 64.6383 30.8166 64.8998 30.7643C65.1614 30.712 65.4229 30.5709 65.6845 30.3408L66.218 30.8428C66.0297 31.0937 65.7786 31.4074 65.4648 31.7839C65.1614 32.1604 64.8214 32.5786 64.4448 33.0388C64.0786 33.4884 63.7072 33.959 63.3306 34.4505C62.7971 35.1302 62.3263 35.7001 61.9183 36.1602C61.5103 36.6203 61.1128 37.0752 60.7257 37.5249H60.7414C61.0552 37.2216 61.3586 37.0125 61.6515 36.8975C61.9445 36.772 62.2635 36.7092 62.6088 36.7092C62.8598 36.7092 63.1005 36.7511 63.3306 36.8347C63.5608 36.9079 63.7805 36.9863 63.9897 37.07C64.2094 37.1536 64.4291 37.1955 64.6488 37.1955C64.8266 37.1955 64.9992 37.1432 65.1666 37.0386C65.334 36.9236 65.4229 36.7092 65.4334 36.3955C65.4334 36.2073 65.3915 36.0034 65.3078 35.7838L65.8571 35.5955C65.9198 35.7629 65.9669 35.9354 65.9983 36.1132C66.0402 36.2909 66.0611 36.4844 66.0611 36.6935C66.0611 37.2059 65.8989 37.6451 65.5746 38.0111C65.2608 38.3667 64.8423 38.5445 64.3192 38.5445C64.0158 38.5445 63.702 38.4974 63.3777 38.4033C63.0534 38.3196 62.7291 38.236 62.4048 38.1523C62.0909 38.0582 61.7771 38.0111 61.4632 38.0111C61.2749 38.0111 61.0657 38.0425 60.8355 38.1053C60.6158 38.1575 60.3805 38.3039 60.1294 38.5445Z" fill="#083E49"/>
<path d="M20.044 2.51565L15.0107 5.42041L18.7885 11.961L23.8218 9.0562L20.044 2.51565Z" fill="#083E49"/>
<path d="M18.9793 6.48361C20.3692 5.68148 20.8454 3.90495 20.043 2.51562C19.2405 1.12629 17.4632 0.650272 16.0733 1.4524C14.6834 2.25453 14.2072 4.03106 15.0096 5.42039C15.8121 6.80972 17.5894 7.28574 18.9793 6.48361Z" fill="#083E49"/>
<path d="M51.4226 5.15347L46.8926 2.53918L43.1148 9.07973L47.6448 11.694L51.4226 5.15347Z" fill="#083E49"/>
<path d="M47.7057 6.36191C48.9566 7.08382 50.6212 6.54278 51.4237 5.15345C52.2261 3.76412 51.8626 2.05262 50.6117 1.3307C49.3607 0.608787 47.6962 1.14983 46.8937 2.53916C46.0912 3.92849 46.4548 5.63999 47.7057 6.36191Z" fill="#083E49"/>
<path d="M50.5641 21.7857C49.6923 15.6856 43.5897 10.4571 33.1282 10.4571C22.6666 10.4571 16.5641 15.6856 15.6923 21.7857H12.2051C12.2051 15.2499 21.6205 7.00049 33.1282 7.00049C44.6358 7.00049 54.0512 14.5963 54.0512 21.7857H50.5641Z" fill="#083E49"/>
<path d="M25.2824 19.2005C26.7268 19.2005 27.8978 18.03 27.8978 16.5862C27.8978 15.1424 26.7268 13.9719 25.2824 13.9719C23.8379 13.9719 22.667 15.1424 22.667 16.5862C22.667 18.03 23.8379 19.2005 25.2824 19.2005Z" fill="#083E49"/>
<path d="M40.9748 19.2005C42.4192 19.2005 43.5901 18.03 43.5901 16.5862C43.5901 15.1424 42.4192 13.9719 40.9748 13.9719C39.5303 13.9719 38.3594 15.1424 38.3594 16.5862C38.3594 18.03 39.5303 19.2005 40.9748 19.2005Z" fill="#083E49"/>
<mask id="mask0" style="mask-type:alpha" maskUnits="userSpaceOnUse" x="6" y="45" width="54" height="16">
<path d="M59.2823 47.4529C57.6304 56.326 51.0233 59.0783 35.0556 60.6411C20.1891 55.5216 12.4807 53.3197 6.97461 46.7141C11.9301 45.6132 14.8379 51.6684 30.6506 51.6684C46.4634 51.6684 53.2256 40.9127 59.2823 47.4529Z" fill="#C4C4C4"/>
</mask>
<g mask="url(#mask0)">
<path d="M33.332 9.01208C26.6127 9.01208 19.214 11.558 17.6741 19.8151C17.4547 20.6968 18.1215 21.1138 18.6721 21.2257L25.5202 21.8795C26.1826 21.8795 26.6086 21.2343 26.8279 20.572C27.3785 17.7078 29.796 16.2715 32.4372 16.2715C33.8697 16.2715 35.5129 16.8434 36.3946 18.1637C37.3841 19.5958 37.1862 21.5698 37.1862 23.2211V24.2189C33.1125 24.6576 27.8259 24.9758 23.9716 26.6272C19.5667 28.498 16.4696 32.36 16.4696 38.084C16.4696 45.3519 21.0939 48.9903 26.9311 48.9903C31.8866 48.9903 34.6397 47.7604 38.4939 43.7952C39.8145 45.666 40.2748 46.5604 42.5891 48.5431C42.8084 48.6548 43.0236 48.7495 43.2429 48.7495C43.574 48.7495 43.9097 48.6592 44.2408 48.4397V48.5431C45.6733 47.3302 48.1768 45.0079 49.6093 43.7952C50.1599 43.3565 50.048 42.5996 49.6093 41.9373C48.2887 40.286 46.9939 38.7376 46.9939 35.4349V24.5286C46.9939 19.9055 47.3123 15.6092 43.8968 12.4181C41.1436 9.8851 36.7474 9.01208 33.332 9.01208ZM33.332 11.214C36.3043 11.214 40.1458 11.9795 42.3481 14.0696C44.6624 16.2715 44.7914 19.0238 44.7914 23.4277V35.4349C44.7914 39.0688 46.1938 41.0429 47.4068 42.6942C47.0757 42.9135 46.7746 43.2575 46.4433 43.5887V43.4855L43.2429 46.3412C42.0299 45.2402 41.5696 44.5865 40.7996 43.4855C40.6877 43.2663 40.4683 43.0254 40.249 42.6942L38.7349 40.4923L36.842 42.3845C33.4265 45.9067 31.2242 46.8916 26.9311 46.8916C21.7563 46.8916 18.6721 43.5801 18.6721 38.1872C18.6721 33.7834 20.8659 30.4892 24.832 28.7259C27.6969 27.5133 31.7705 27.0617 35.2935 26.7305C36.0635 26.6187 36.7303 26.6359 37.3927 26.524L39.3887 26.2832V22.7739C39.3887 21.0107 39.3973 18.9335 38.1842 17.0628C36.9711 15.2995 34.859 14.1728 32.4372 14.1728C28.6948 14.1728 25.7137 16.2715 24.832 19.5744L20.2206 19.127C21.9842 12.302 29.1465 11.214 33.332 11.214ZM35.1903 27.7282C26.4924 28.2787 24.6254 33.0179 24.6254 36.9831C24.5136 41.275 27.1721 44.2424 31.0263 44.2424C33.7792 44.2424 36.3001 42.5824 37.8401 39.9419C39.38 37.1894 39.3887 34.6693 39.3887 32.0288V27.7282H35.1903ZM35.1903 29.9301H37.1862V31.4783C37.1862 34.2308 37.2765 36.4196 35.8442 38.841C34.7429 40.8235 32.8975 42.0405 31.0263 42.0405C28.3851 42.0405 26.7247 40.0665 26.7247 36.9831C26.7247 31.8094 30.7853 30.2612 35.1903 29.9301ZM54.5647 45.9971C52.8011 45.9971 50.7364 46.4444 49.1964 47.5453C48.7576 47.8765 48.749 48.3022 49.2996 48.3022C51.0633 48.0828 55.0336 47.5539 55.8036 48.5431C56.4661 49.4246 55.0207 53.1446 54.3583 54.9078C54.139 55.4584 54.5733 55.583 55.0122 55.2519C57.9845 52.7188 58.7631 47.5539 58.2125 46.8916C57.8812 46.3412 56.3284 45.9971 54.5647 45.9971ZM7.90078 46.9947C7.56955 46.9947 7.32436 47.5582 7.76312 47.8894C14.3704 53.8327 22.5913 57.268 32.2829 57.268C39.2213 57.268 47.8457 55.2648 53.4635 51.1922C54.3454 50.53 53.5883 49.4117 52.7064 49.8504C46.4304 52.491 38.4514 53.8947 32.2829 53.8947C23.1419 53.8947 8.45139 47.2013 8.45139 47.2013L7.90078 46.9947Z" fill="#083E49"/>
</g>
</g>
<defs>
<clipPath id="clip0">
<rect width="68" height="61" fill="white"/>
</clipPath>
</defs>
</svg>
