<svg width="400" height="401" viewBox="0 0 400 401" fill="none" xmlns="http://www.w3.org/2000/svg">
<path d="M368.868 240.048V281.756C368.868 285.382 367.428 288.859 364.864 291.422C362.301 293.986 358.824 295.426 355.198 295.426H205.644C202.02 295.424 198.546 293.982 195.984 291.419C193.423 288.856 191.984 285.38 191.984 281.756V246.509L173.357 226.948L355.159 226.388C356.957 226.381 358.738 226.73 360.401 227.413C362.064 228.097 363.576 229.102 364.85 230.371C366.123 231.64 367.134 233.149 367.823 234.809C368.513 236.47 368.868 238.25 368.868 240.048Z" fill="#F5F5F5"/>
<path d="M214.024 251.653L349.74 251.024L349.72 246.854L214.014 247.483L214.024 251.653Z" fill="#E6E6E6"/>
<path d="M214.024 265.372L349.74 264.753L349.72 260.583L214.014 261.203L214.024 265.372Z" fill="#E6E6E6"/>
<path d="M267.694 274.327L213.998 274.59L214.018 278.76L267.714 278.497L267.694 274.327Z" fill="#E6E6E6"/>
<path d="M103.816 0.89209H192.022C193.056 0.89209 194.079 1.09559 195.033 1.49098C195.988 1.88636 196.855 2.46589 197.586 3.19646C198.316 3.92704 198.896 4.79436 199.291 5.74891C199.686 6.70345 199.89 7.72653 199.89 8.75972V51.9432C199.89 54.0298 199.061 56.031 197.586 57.5064C196.11 58.9819 194.109 59.8108 192.022 59.8108H117.172C115.085 59.8108 113.084 58.9819 111.608 57.5064C110.133 56.031 109.304 54.0298 109.304 51.9432V6.34042L103.816 0.89209Z" fill="#F5F5F5"/>
<path d="M214.633 79.4304V94.9296C214.633 95.9729 215.047 96.9735 215.785 97.7113C216.523 98.449 217.523 98.8634 218.567 98.8634H305.17C306.213 98.8634 307.213 98.449 307.951 97.7113C308.689 96.9735 309.103 95.9729 309.103 94.9296V86.4621L319.046 75.8211L218.576 75.4966C218.059 75.4953 217.546 75.5961 217.068 75.7932C216.59 75.9903 216.155 76.2799 215.788 76.6453C215.422 77.0107 215.131 77.4448 214.933 77.9227C214.735 78.4006 214.633 78.913 214.633 79.4304Z" fill="#F0F0F0"/>
<path d="M156.254 48.5996V76.2642C156.256 77.4545 156.022 78.6334 155.568 79.7334C155.113 80.8335 154.446 81.8331 153.605 82.6753C152.764 83.5174 151.765 84.1854 150.665 84.6412C149.566 85.097 148.387 85.3316 147.197 85.3316H47.9662C46.7759 85.3316 45.5973 85.097 44.4977 84.6412C43.3982 84.1854 42.3992 83.5174 41.558 82.6753C40.7168 81.8331 40.0499 80.8335 39.5953 79.7334C39.1406 78.6334 38.9073 77.4545 38.9086 76.2642V52.8973L26.5859 39.9158L147.167 39.542C148.359 39.5382 149.54 39.7696 150.642 40.223C151.745 40.6765 152.747 41.343 153.591 42.1845C154.435 43.026 155.105 44.0258 155.562 45.1266C156.019 46.2275 156.254 47.4077 156.254 48.5996Z" fill="#E0E0E0"/>
<path d="M53.5645 56.2996L143.57 55.8865L143.56 53.123L53.5547 53.5361L53.5645 56.2996Z" fill="#F0F0F0"/>
<path d="M53.5645 65.4061L143.57 64.9832L143.56 62.2197L53.5547 62.6328L53.5645 65.4061Z" fill="#F0F0F0"/>
<path d="M89.1495 71.3426L53.5391 71.5166L53.5526 74.2801L89.163 74.106L89.1495 71.3426Z" fill="#F0F0F0"/>
<path d="M10.0547 139.893V181.611C10.0547 183.406 10.4084 185.183 11.0955 186.841C11.7826 188.499 12.7896 190.006 14.0592 191.274C15.3287 192.543 16.8357 193.549 18.4942 194.235C20.1526 194.921 21.93 195.273 23.7247 195.272H173.279C175.073 195.273 176.851 194.921 178.509 194.235C180.168 193.549 181.675 192.543 182.944 191.274C184.214 190.006 185.221 188.499 185.908 186.841C186.595 185.183 186.949 183.406 186.949 181.611V146.364L205.565 126.804L23.764 126.204C21.9639 126.198 20.1805 126.549 18.5161 127.235C16.8518 127.921 15.3393 128.929 14.0655 130.201C12.7917 131.473 11.7816 132.984 11.0934 134.647C10.4051 136.31 10.0521 138.093 10.0547 139.893Z" fill="#F0F0F0"/>
<path d="M164.9 151.498L29.1836 150.879L29.2033 146.709L164.91 147.329L164.9 151.498Z" fill="#E6E6E6"/>
<path d="M164.9 165.227L29.1836 164.598L29.2033 160.428L164.91 161.058L164.9 165.227Z" fill="#E6E6E6"/>
<path d="M111.206 174.155L111.186 178.325L164.881 178.588L164.902 174.418L111.206 174.155Z" fill="#E6E6E6"/>
<path d="M303.655 41.5998C307.771 32.4509 303.69 21.698 294.541 17.5825C285.392 13.467 274.64 17.5473 270.524 26.6962C266.409 35.8451 270.489 46.598 279.638 50.7135C288.787 54.829 299.54 50.7487 303.655 41.5998Z" fill="#F5F5F5"/>
<path d="M280.819 29.5696C281.497 29.5106 282.127 30.2679 282.205 31.2612C282.284 32.2545 281.802 33.1101 281.114 33.1691C280.425 33.2281 279.796 32.461 279.717 31.4677C279.639 30.4744 280.13 29.6188 280.819 29.5696Z" fill="#E0E0E0"/>
<path d="M282.412 24.967C281.318 25.1023 280.236 25.3226 279.177 25.626C278.173 26.0846 277.206 26.6205 276.285 27.229C276.953 26.2711 277.898 25.5408 278.994 25.1363C280.089 24.7319 281.282 24.6728 282.412 24.967Z" fill="#E0E0E0"/>
<path d="M292.365 29.3335C291.667 29.3335 291.077 30.0809 291.037 31.084C290.998 32.0872 291.519 32.9034 292.217 32.9329C292.916 32.9624 293.496 32.1757 293.535 31.1824C293.575 30.1891 293.053 29.3532 292.365 29.3335Z" fill="#E0E0E0"/>
<path d="M290.574 24.7998C291.686 24.4555 292.876 24.4595 293.985 24.811C295.094 25.1626 296.07 25.845 296.78 26.7667C295.839 26.1907 294.852 25.694 293.829 25.2817C292.758 25.04 291.67 24.8789 290.574 24.7998Z" fill="#E0E0E0"/>
<path d="M296.044 33.9561C296.051 34.2885 296.008 34.6201 295.916 34.9395C295.684 35.8133 295.312 36.6437 294.814 37.3981C294.102 38.5335 293.161 39.5082 292.051 40.26C290.695 41.22 289.095 41.7758 287.436 41.8628C285.777 41.9498 284.127 41.5646 282.679 40.7517C281.493 40.1157 280.452 39.2418 279.62 38.1849C279.064 37.4796 278.626 36.6892 278.322 35.8443C278.185 35.5339 278.108 35.2001 278.096 34.8608C278.568 35.9545 279.179 36.9825 279.915 37.9194C280.73 38.8991 281.733 39.7051 282.865 40.2895C284.24 41.0344 285.794 41.3854 287.356 41.3038C288.918 41.2223 290.427 40.7113 291.717 39.8273C292.793 39.1287 293.719 38.2226 294.441 37.1621C295.108 36.1655 295.647 35.0882 296.044 33.9561Z" fill="#E0E0E0"/>
<path d="M37.4922 238.317H40.0983L45.8417 230.666V225.641C45.8417 225.641 49.9034 225.405 49.4313 231.984C48.9593 238.563 49.4313 236.901 49.4313 236.901C49.4313 236.901 58.0562 236.901 58.7741 237.649C59.2954 238.17 59.5314 246.372 59.6199 250.817C59.663 251.91 59.3345 252.985 58.6879 253.868C58.0414 254.75 57.115 255.387 56.0598 255.675C55.7374 255.751 55.4075 255.791 55.0763 255.793C53.0308 255.744 42.0652 254.053 42.0652 254.053H37.4922V238.317Z" fill="#F0F0F0"/>
<path d="M29.9688 236.911L31.5816 254.112H36.0858V237.255L29.9688 236.911Z" fill="#F0F0F0"/>
<path d="M399.059 88.7543C398.439 88.09 397.584 87.6945 396.676 87.6522C395.768 87.6099 394.88 87.9243 394.201 88.5281C393.526 89.068 392.978 89.7495 392.596 90.5244C392.214 91.2993 392.006 92.1487 391.988 93.0127C391.828 92.1478 391.481 91.3282 390.972 90.6114C390.462 89.8945 389.802 89.2976 389.038 88.8625C388.278 88.3503 387.349 88.1542 386.448 88.3158C385.546 88.4774 384.743 88.9839 384.209 89.7279C383.632 90.7488 383.457 91.9481 383.717 93.0913C383.888 94.2449 384.371 95.3298 385.114 96.2286C387.838 99.1199 389.244 99.5821 392.618 101.539C395.686 99.1592 396.679 98.5888 398.98 95.3139C399.601 94.3253 399.941 93.1865 399.964 92.0194C400.074 90.8568 399.752 89.6944 399.059 88.7543Z" fill="#F0F0F0"/>
<path d="M237.004 354.099L134.646 353.617C131.719 353.606 128.822 353.018 126.122 351.886C123.422 350.755 120.972 349.103 118.91 347.024C116.849 344.946 115.218 342.481 114.109 339.772C113 337.063 112.436 334.161 112.449 331.234L113.541 74.6214C113.575 68.7126 115.952 63.0587 120.15 58.9009C124.349 54.743 130.025 52.421 135.934 52.4445L238.292 52.9166C244.204 52.9452 249.863 55.3199 254.025 59.5189C258.188 63.7179 260.512 69.3976 260.489 75.3098L259.407 331.893C259.378 337.808 257.003 343.469 252.802 347.633C248.601 351.797 242.919 354.123 237.004 354.099Z" fill="#263238"/>
<path d="M238.144 61.748L218.298 61.6594C217.65 61.6697 217.011 61.8077 216.417 62.0655C215.823 62.3234 215.286 62.696 214.836 63.1621C214.387 63.6281 214.034 64.1783 213.797 64.7812C213.561 65.384 213.446 66.0277 213.459 66.6751V70.2745C213.472 70.9219 213.357 71.5655 213.121 72.1684C212.884 72.7712 212.531 73.3215 212.082 73.7875C211.632 74.2535 211.095 74.6261 210.501 74.884C209.907 75.1419 209.268 75.2799 208.621 75.2901L169.912 75.1131C169.263 75.0978 168.625 74.9545 168.032 74.6912C167.439 74.428 166.904 74.0501 166.458 73.5794C166.012 73.1086 165.664 72.5543 165.433 71.9483C165.202 71.3423 165.093 70.6965 165.113 70.0483V66.4489C165.132 65.8006 165.023 65.1549 164.792 64.5489C164.561 63.9429 164.213 63.3885 163.767 62.9178C163.321 62.447 162.786 62.0691 162.193 61.8059C161.601 61.5427 160.962 61.3993 160.313 61.3841H153.331L135.992 61.2956C133.942 61.2865 131.909 61.6815 130.011 62.458C128.113 63.2344 126.386 64.3772 124.929 65.821C123.473 67.2648 122.315 68.9814 121.521 70.8727C120.728 72.764 120.315 74.7931 120.306 76.844L119.244 327.31C119.229 331.451 120.857 335.429 123.773 338.37C126.688 341.311 130.651 342.975 134.793 342.996L236.944 343.468C238.995 343.477 241.027 343.082 242.926 342.306C244.824 341.529 246.551 340.386 248.007 338.943C249.464 337.499 250.622 335.782 251.415 333.891C252.208 332 252.621 329.971 252.63 327.92L253.692 77.4537C253.703 75.4015 253.309 73.3674 252.533 71.4675C251.757 69.5675 250.615 67.839 249.171 66.3806C247.727 64.9222 246.01 63.7624 244.118 62.9675C242.226 62.1727 240.196 61.7583 238.144 61.748Z" fill="white"/>
<path d="M181.999 311.841C181.999 312.265 181.873 312.679 181.637 313.032C181.402 313.384 181.067 313.659 180.675 313.821C180.284 313.984 179.852 314.026 179.437 313.943C179.021 313.861 178.639 313.657 178.339 313.357C178.039 313.057 177.835 312.675 177.752 312.259C177.669 311.843 177.712 311.412 177.874 311.02C178.036 310.629 178.311 310.294 178.664 310.058C179.016 309.823 179.431 309.697 179.855 309.697C180.423 309.699 180.966 309.926 181.368 310.328C181.769 310.729 181.996 311.273 181.999 311.841Z" fill="#455A64"/>
<path d="M190.141 311.841C190.141 312.265 190.016 312.679 189.78 313.032C189.544 313.384 189.21 313.659 188.818 313.821C188.426 313.984 187.995 314.026 187.579 313.943C187.163 313.861 186.781 313.657 186.481 313.357C186.182 313.057 185.977 312.675 185.895 312.259C185.812 311.843 185.854 311.412 186.017 311.02C186.179 310.629 186.454 310.294 186.806 310.058C187.159 309.823 187.573 309.697 187.997 309.697C188.565 309.699 189.109 309.926 189.511 310.328C189.912 310.729 190.139 311.273 190.141 311.841Z" fill="#455A64"/>
<path d="M198.286 311.841C198.286 312.265 198.16 312.679 197.925 313.032C197.689 313.384 197.354 313.659 196.962 313.821C196.571 313.984 196.14 314.026 195.724 313.943C195.308 313.861 194.926 313.657 194.626 313.357C194.326 313.057 194.122 312.675 194.039 312.259C193.957 311.843 193.999 311.412 194.161 311.02C194.324 310.629 194.598 310.294 194.951 310.058C195.303 309.823 195.718 309.697 196.142 309.697C196.71 309.699 197.254 309.926 197.655 310.328C198.057 310.729 198.283 311.273 198.286 311.841Z" fill="#455A64"/>
<path d="M139.337 131.623C139.337 131.623 139.337 131.446 139.337 131.082C139.412 129.655 139.916 128.284 140.782 127.148C141.5 126.171 142.45 125.387 143.546 124.867C144.944 124.245 146.477 123.992 148.001 124.129H166.608L245.284 124.287H245.864L245.461 124.709L235.381 135.311L235.45 135.144V152.699C235.52 153.868 235.434 155.043 235.194 156.19C234.892 157.339 234.323 158.401 233.532 159.288C232.757 160.173 231.787 160.866 230.7 161.314C229.617 161.739 228.459 161.937 227.297 161.894H195.197L152.21 161.805H147.686C146.238 161.916 144.786 161.656 143.467 161.048C142.268 160.468 141.243 159.582 140.497 158.478C139.751 157.374 139.31 156.093 139.219 154.764C139.219 149.847 139.219 145.706 139.219 142.274C139.219 138.842 139.219 136.206 139.268 134.406C139.268 133.511 139.268 132.833 139.268 132.351C139.268 131.869 139.268 131.653 139.268 131.653C139.268 131.653 139.268 131.889 139.268 132.351C139.268 132.813 139.268 133.511 139.268 134.406C139.268 136.226 139.268 138.881 139.268 142.274C139.268 145.667 139.268 149.896 139.337 154.744C139.431 156.019 139.861 157.247 140.583 158.302C141.305 159.358 142.293 160.203 143.448 160.753C144.721 161.335 146.124 161.579 147.519 161.461H152.21L195.246 161.412H220.659H227.326C228.421 161.457 229.513 161.273 230.532 160.871C231.55 160.452 232.458 159.806 233.188 158.983C233.921 158.154 234.447 157.163 234.722 156.091C234.954 154.986 235.037 153.855 234.968 152.728V135.055L235.037 134.987L245.127 124.385L245.314 124.808L166.637 124.473L153.42 124.405H148.021C146.531 124.258 145.029 124.491 143.654 125.083C142.575 125.581 141.636 126.338 140.92 127.286C140.39 127.978 139.984 128.757 139.72 129.587C139.53 130.253 139.401 130.934 139.337 131.623Z" fill="#455A64"/>
<path d="M223.236 137.917L149.703 137.572L149.713 135.311L223.236 135.655V137.917Z" fill="#455A64"/>
<path d="M223.236 145.351L149.703 145.007L149.713 142.745L223.236 143.089V145.351Z" fill="#455A64"/>
<path d="M194.136 150.187L194.125 152.449L223.215 152.591L223.226 150.329L194.136 150.187Z" fill="#455A64"/>
<path d="M239.305 181.425V204.044C239.305 206.007 238.526 207.889 237.139 209.277C235.753 210.666 233.871 211.447 231.909 211.45H150.873C148.908 211.45 147.025 210.67 145.636 209.281C144.247 207.892 143.467 206.008 143.467 204.044V184.936L133.387 174.334L231.87 174.029C232.844 174.024 233.81 174.212 234.712 174.581C235.614 174.95 236.434 175.494 237.125 176.182C237.816 176.869 238.364 177.686 238.738 178.586C239.112 179.486 239.305 180.45 239.305 181.425Z" fill="#92E3A9"/>
<path d="M155.416 187.718L228.949 187.374L228.939 185.112L155.406 185.457L155.416 187.718Z" fill="white"/>
<path d="M155.416 195.154L228.949 194.81L228.939 192.558L155.406 192.892L155.416 195.154Z" fill="white"/>
<path d="M184.483 200.002L155.393 200.145L155.404 202.406L184.494 202.264L184.483 200.002Z" fill="white"/>
<path d="M195.198 94.8512C195.911 94.5402 196.516 94.0247 196.936 93.3701C197.356 92.7154 197.572 91.9508 197.558 91.1731C197.584 90.6682 197.507 90.1632 197.332 89.689C197.156 89.2148 196.886 88.7812 196.538 88.4147C196.19 88.0481 195.771 87.7562 195.306 87.5567C194.842 87.3573 194.341 87.2544 193.836 87.2544C193.33 87.2544 192.83 87.3573 192.365 87.5567C191.901 87.7562 191.481 88.0481 191.133 88.4147C190.785 88.7812 190.515 89.2148 190.34 89.689C190.164 90.1632 190.087 90.6682 190.113 91.1731C190.094 91.9569 190.309 92.7287 190.731 93.3893C191.154 94.0499 191.764 94.5693 192.483 94.8807C186.75 95.7461 187.006 101.981 187.006 101.981L200.567 102.04C200.567 102.04 200.882 95.7166 195.198 94.8512Z" fill="#92E3A9"/>
<path opacity="0.5" d="M195.198 94.8512C195.911 94.5402 196.516 94.0247 196.936 93.3701C197.356 92.7154 197.572 91.9508 197.558 91.1731C197.584 90.6682 197.507 90.1632 197.332 89.689C197.156 89.2148 196.886 88.7812 196.538 88.4147C196.19 88.0481 195.771 87.7562 195.306 87.5567C194.842 87.3573 194.341 87.2544 193.836 87.2544C193.33 87.2544 192.83 87.3573 192.365 87.5567C191.901 87.7562 191.481 88.0481 191.133 88.4147C190.785 88.7812 190.515 89.2148 190.34 89.689C190.164 90.1632 190.087 90.6682 190.113 91.1731C190.094 91.9569 190.309 92.7287 190.731 93.3893C191.154 94.0499 191.764 94.5693 192.483 94.8807C186.75 95.7461 187.006 101.981 187.006 101.981L200.567 102.04C200.567 102.04 200.882 95.7166 195.198 94.8512Z" fill="white"/>
<path d="M187.752 94.8512C188.463 94.5354 189.065 94.0191 189.486 93.3657C189.907 92.7124 190.128 91.9503 190.123 91.1731C190.16 90.6609 190.091 90.1464 189.921 89.662C189.75 89.1775 189.482 88.7333 189.132 88.3572C188.782 87.9811 188.359 87.6811 187.888 87.476C187.417 87.2709 186.909 87.165 186.395 87.165C185.882 87.165 185.374 87.2709 184.903 87.476C184.432 87.6811 184.008 87.9811 183.659 88.3572C183.309 88.7333 183.04 89.1775 182.87 89.662C182.7 90.1464 182.631 90.6609 182.668 91.1731C182.649 91.9569 182.864 92.7287 183.286 93.3893C183.708 94.0499 184.319 94.5693 185.038 94.8807C179.305 95.7462 179.56 101.981 179.56 101.981L193.122 102.04C193.122 102.04 193.437 95.7167 187.752 94.8512Z" fill="#92E3A9"/>
<path d="M208.489 104.795L172.033 104.629L172.013 109.153L208.469 109.319L208.489 104.795Z" fill="#92E3A9"/>
<path opacity="0.3" d="M208.489 104.795L172.033 104.629L172.013 109.153L208.469 109.319L208.489 104.795Z" fill="white"/>
<path d="M141.039 232.928C141.022 232.751 141.022 232.573 141.039 232.397C141.098 231.866 141.269 231.353 141.541 230.892C141.991 230.129 142.683 229.537 143.507 229.21C144.647 228.899 145.833 228.796 147.009 228.906H169.559L245.492 229.063H246.072L245.639 229.466L235.706 240.127L235.775 239.95V247.08C235.775 247.611 235.775 248.063 235.775 248.653C235.734 249.482 235.447 250.28 234.949 250.945C234.451 251.609 233.766 252.109 232.982 252.381C232.466 252.556 231.923 252.636 231.379 252.617H220.787H197.863L159.095 252.538H145.828C145.259 252.569 144.689 252.536 144.127 252.44C143.335 252.267 142.613 251.863 142.052 251.278C141.491 250.693 141.118 249.953 140.98 249.155C140.922 248.669 140.902 248.179 140.921 247.69C140.921 245.811 140.921 244.1 140.921 242.556C140.921 239.478 140.921 237.088 140.97 235.436C140.97 234.639 140.97 234.029 140.97 233.587C140.97 233.144 140.97 232.957 140.97 232.957C140.97 232.957 140.97 233.174 140.97 233.587C140.97 234 140.97 234.639 140.97 235.436C140.97 237.088 140.97 239.478 141.019 242.556C141.019 244.1 141.019 245.811 141.019 247.69C141.003 248.163 141.026 248.636 141.088 249.106C141.218 249.852 141.568 250.543 142.094 251.088C142.62 251.633 143.297 252.008 144.039 252.164C144.582 252.246 145.132 252.272 145.681 252.243H151.228H159.095L197.902 252.184H231.409C231.892 252.202 232.376 252.132 232.835 251.977C233.757 251.654 234.513 250.979 234.939 250.099C235.15 249.662 235.27 249.187 235.293 248.703C235.293 248.211 235.293 247.67 235.293 247.158V239.93L235.362 239.861L245.315 229.22L245.492 229.643L169.569 229.319L147.018 229.171C145.865 229.044 144.698 229.131 143.576 229.427C142.94 229.679 142.38 230.093 141.952 230.627C141.524 231.162 141.243 231.799 141.137 232.476C141.112 232.628 141.08 232.779 141.039 232.928Z" fill="#455A64"/>
<path d="M226.531 238.888L152.998 238.554L153.008 236.292L226.541 236.636L226.531 238.888Z" fill="#455A64"/>
<path d="M196.706 243.756L196.695 246.018L226.533 246.163L226.544 243.901L196.706 243.756Z" fill="#455A64"/>
<path d="M236.718 273.27V288.759C236.718 289.802 236.303 290.803 235.566 291.541C234.828 292.279 233.827 292.693 232.784 292.693H146.181C145.138 292.693 144.137 292.279 143.4 291.541C142.662 290.803 142.247 289.802 142.247 288.759V280.292L132.305 269.651L232.784 269.336C233.827 269.336 234.828 269.75 235.566 270.488C236.303 271.226 236.718 272.226 236.718 273.27Z" fill="#92E3A9"/>
<path d="M151.236 279.229L224.769 278.895L224.759 276.633L151.227 276.977L151.236 279.229Z" fill="white"/>
<path d="M151.236 286.507L224.769 286.163L224.759 283.911L151.227 284.245L151.236 286.507Z" fill="white"/>
<path d="M355.245 87.5835C361.616 87.5835 366.781 82.4187 366.781 76.0476C366.781 69.6765 361.616 64.5117 355.245 64.5117C348.874 64.5117 343.709 69.6765 343.709 76.0476C343.709 82.4187 348.874 87.5835 355.245 87.5835Z" fill="#92E3A9"/>
<path opacity="0.5" d="M355.245 87.5835C361.616 87.5835 366.781 82.4187 366.781 76.0476C366.781 69.6765 361.616 64.5117 355.245 64.5117C348.874 64.5117 343.709 69.6765 343.709 76.0476C343.709 82.4187 348.874 87.5835 355.245 87.5835Z" fill="white"/>
<path d="M351.42 72.7432C351.853 72.7432 352.247 73.2054 352.286 73.8348C352.325 74.4642 352.001 75.0051 351.558 75.0248C351.116 75.0444 350.732 74.5626 350.693 73.9331C350.653 73.3037 350.978 72.7628 351.42 72.7432Z" fill="#263238"/>
<path d="M352.491 69.8425C352.491 70.0096 351.507 69.9605 350.524 70.3342C349.541 70.7079 348.744 71.3176 348.626 71.1996C348.508 71.0816 349.108 70.2162 350.327 69.7834C351.547 69.3507 352.54 69.6949 352.491 69.8425Z" fill="#263238"/>
<path d="M360.851 74.5427C360.723 74.6411 360.104 73.9723 359.11 73.874C358.117 73.7756 357.37 74.2772 357.271 74.1592C357.173 74.0412 357.35 73.874 357.674 73.6478C358.123 73.3664 358.652 73.2418 359.179 73.2938C359.704 73.3509 360.194 73.587 360.566 73.9625C360.841 74.2575 360.91 74.4936 360.851 74.5427Z" fill="#263238"/>
<path d="M361.845 72.6155C361.756 72.7531 360.861 72.2713 359.573 72.2319C358.284 72.1926 357.35 72.586 357.271 72.4286C357.568 72.1231 357.934 71.8931 358.338 71.758C358.741 71.6228 359.172 71.5863 359.592 71.6517C361.028 71.7008 361.943 72.5073 361.845 72.6155Z" fill="#263238"/>
<path d="M361.027 75.8213C361.033 76.6186 360.777 77.3958 360.3 78.0341C359.797 78.8753 359.091 79.5766 358.246 80.0734C357.401 80.5702 356.445 80.8465 355.466 80.8769C354.486 80.9072 353.515 80.6907 352.641 80.2472C351.767 79.8037 351.019 79.1475 350.465 78.3389C349.941 77.7364 349.64 76.973 349.609 76.1753C349.948 76.8625 350.342 77.5204 350.79 78.1422C351.338 78.8438 352.044 79.4064 352.85 79.7841C353.656 80.1619 354.54 80.3443 355.43 80.3165C356.32 80.2887 357.191 80.0515 357.972 79.6242C358.753 79.1969 359.422 78.5915 359.926 77.857C360.34 77.2051 360.708 76.5248 361.027 75.8213Z" fill="#263238"/>
<path d="M32.4463 280.105C32.3476 283.312 31.3003 286.418 29.4367 289.03C27.5732 291.642 24.977 293.643 21.9764 294.78C18.9758 295.917 15.7055 296.139 12.5788 295.417C9.45223 294.696 6.60967 293.064 4.4105 290.727C2.21133 288.391 0.754281 285.455 0.22353 282.29C-0.307221 279.125 0.11216 275.875 1.42866 272.948C2.74515 270.022 4.89966 267.552 7.61983 265.85C10.34 264.148 13.5037 263.29 16.7111 263.386C18.8423 263.45 20.9401 263.933 22.8846 264.808C24.8291 265.682 26.5821 266.932 28.0435 268.484C29.5048 270.037 30.6458 271.863 31.4013 273.857C32.1568 275.85 32.5119 277.974 32.4463 280.105Z" fill="#92E3A9"/>
<path opacity="0.5" d="M32.4463 280.105C32.3476 283.312 31.3003 286.418 29.4367 289.03C27.5732 291.642 24.977 293.643 21.9764 294.78C18.9758 295.917 15.7055 296.139 12.5788 295.417C9.45223 294.696 6.60967 293.064 4.4105 290.727C2.21133 288.391 0.754281 285.455 0.22353 282.29C-0.307221 279.125 0.11216 275.875 1.42866 272.948C2.74515 270.022 4.89966 267.552 7.61983 265.85C10.34 264.148 13.5037 263.29 16.7111 263.386C18.8423 263.45 20.9401 263.933 22.8846 264.808C24.8291 265.682 26.5821 266.932 28.0435 268.484C29.5048 270.037 30.6458 271.863 31.4013 273.857C32.1568 275.85 32.5119 277.974 32.4463 280.105Z" fill="white"/>
<path d="M13.0339 275.148C12.747 274.774 12.3254 274.526 11.8589 274.458C11.3923 274.39 10.9177 274.507 10.536 274.784C10.1666 275.033 9.85512 275.359 9.62266 275.739C9.39019 276.119 9.24217 276.545 9.18863 276.987C9.14734 276.536 9.01015 276.099 8.78626 275.706C8.56237 275.312 8.25695 274.971 7.89047 274.705C7.52197 274.41 7.05398 274.268 6.58346 274.308C6.11293 274.348 5.67593 274.568 5.36299 274.922C5.01949 275.418 4.87231 276.024 4.94994 276.623C4.98306 277.224 5.17664 277.804 5.51051 278.305C6.50924 279.554 7.73351 280.605 9.11979 281.403C10.4864 280.68 11.699 279.698 12.6897 278.511C13.0512 278.032 13.2786 277.465 13.3486 276.869C13.4631 276.276 13.3508 275.662 13.0339 275.148Z" fill="#92E3A9"/>
<path d="M27.3121 275.551C27.0253 275.177 26.6028 274.93 26.1355 274.863C25.6683 274.797 25.1938 274.917 24.8141 275.197C24.442 275.444 24.1285 275.769 23.8957 276.149C23.6629 276.53 23.5165 276.957 23.4668 277.4C23.4255 276.949 23.2883 276.513 23.0644 276.119C22.8405 275.726 22.5351 275.385 22.1686 275.119C21.8011 274.821 21.3326 274.677 20.8613 274.718C20.3901 274.758 19.9527 274.979 19.6412 275.335C19.2959 275.831 19.1486 276.438 19.2281 277.036C19.2563 277.638 19.4503 278.22 19.7887 278.718C20.7874 279.967 22.0117 281.018 23.3979 281.816C24.7604 281.087 25.9718 280.106 26.9679 278.925C27.3297 278.442 27.5571 277.872 27.6268 277.272C27.7393 276.68 27.6271 276.066 27.3121 275.551Z" fill="#92E3A9"/>
<path d="M21.4888 283.605C21.329 284.948 20.6669 286.18 19.6356 287.054C18.6043 287.929 17.2803 288.38 15.9298 288.318C14.5793 288.255 13.3024 287.684 12.3559 286.719C11.4095 285.753 10.8636 284.465 10.8281 283.114L21.4888 283.605Z" fill="white"/>
<path d="M319.988 383.791L318.021 373.405L299.385 376.71L302.089 392.278L303.26 392.15C308.462 391.53 329.577 388.305 332.822 386.603C336.49 384.705 319.988 383.791 319.988 383.791Z" fill="#92E3A9"/>
<path d="M333.167 385.571C333.167 385.748 326.283 387.174 317.668 388.757C309.053 390.341 302.09 391.481 302.061 391.304C302.031 391.127 308.945 389.711 317.55 388.128C326.155 386.545 333.108 385.404 333.167 385.571Z" fill="#263238"/>
<path d="M320.707 385.836C320.539 385.777 320.569 385.207 320.874 384.597C321.179 383.988 321.602 383.614 321.749 383.702C321.897 383.791 321.749 384.302 321.444 384.873C321.139 385.443 320.874 385.905 320.707 385.836Z" fill="#263238"/>
<path d="M322.025 386.318C321.848 386.318 321.818 385.659 322.025 384.941C322.231 384.223 322.684 383.751 322.841 383.83C322.999 383.909 322.841 384.489 322.635 385.148C322.428 385.807 322.202 386.347 322.025 386.318Z" fill="#263238"/>
<path d="M307.597 390.203C307.528 390.272 307.204 390.046 306.712 389.662C306.103 389.155 305.444 388.71 304.745 388.335C304.112 387.988 303.402 387.805 302.68 387.803C302.1 387.803 301.746 387.99 301.697 387.902C301.647 387.813 301.952 387.518 302.621 387.351C303.486 387.179 304.383 387.315 305.158 387.735C305.906 388.137 306.573 388.673 307.125 389.318C307.479 389.77 307.686 390.144 307.597 390.203Z" fill="#263238"/>
<path d="M320.382 383.869C320.5 383.997 320.244 384.42 319.752 384.715C319.26 385.01 318.769 385.03 318.71 384.863C318.651 384.695 318.995 384.42 319.428 384.154C319.86 383.889 320.283 383.751 320.382 383.869Z" fill="#263238"/>
<path d="M319.93 382.935C319.93 383.112 319.507 383.348 318.878 383.476C318.249 383.604 317.727 383.554 317.708 383.377C317.688 383.2 318.16 382.964 318.75 382.846C319.34 382.728 319.881 382.768 319.93 382.935Z" fill="#263238"/>
<path d="M342.412 273.988C336.639 262.334 305.699 217.252 305.699 217.252L289.187 218.983V218.885L270.708 220.911L260.52 222.032L297.409 383.151L322.92 382.689L316.783 352.881C321.002 342.308 345.608 280.439 342.412 273.988ZM316.095 280.941L306.978 305.419L296.652 255.263L316.095 280.941Z" fill="#263238"/>
<path d="M295.628 142.834C295.392 141.153 296.297 134.16 296.297 134.16C296.297 134.16 302.719 133.688 303.319 127.355C303.919 121.021 303.987 106.358 303.987 106.358L292.511 100.28L279.362 109.584L275.959 118.435L280.444 129.43L280.306 133.069V141.398L295.628 142.834Z" fill="#FFBE9D"/>
<path d="M303.132 116.98C303.128 117.142 303.076 117.299 302.983 117.431C302.89 117.563 302.759 117.664 302.608 117.722C302.457 117.78 302.292 117.792 302.134 117.755C301.976 117.719 301.833 117.637 301.722 117.519C301.611 117.401 301.538 117.253 301.511 117.094C301.485 116.934 301.506 116.77 301.573 116.623C301.64 116.475 301.749 116.351 301.886 116.266C302.024 116.181 302.184 116.138 302.346 116.144C302.452 116.147 302.557 116.17 302.655 116.214C302.753 116.257 302.84 116.32 302.914 116.398C302.987 116.475 303.044 116.567 303.081 116.667C303.119 116.767 303.136 116.873 303.132 116.98Z" fill="#263238"/>
<path d="M303.191 116.124C303.083 116.232 302.493 115.701 301.628 115.622C300.762 115.543 300.084 115.947 299.995 115.829C299.907 115.711 300.064 115.583 300.359 115.396C300.755 115.157 301.217 115.054 301.677 115.101C302.134 115.139 302.565 115.326 302.906 115.632C303.162 115.878 303.241 116.084 303.191 116.124Z" fill="#263238"/>
<path d="M292.845 115.987C292.975 116.082 293.074 116.214 293.13 116.365C293.185 116.517 293.194 116.682 293.156 116.838C293.118 116.995 293.034 117.137 292.915 117.247C292.796 117.356 292.648 117.427 292.488 117.452C292.329 117.477 292.166 117.454 292.019 117.386C291.873 117.318 291.75 117.208 291.666 117.07C291.582 116.932 291.541 116.772 291.548 116.611C291.554 116.45 291.609 116.294 291.704 116.164C291.768 116.077 291.847 116.004 291.939 115.948C292.03 115.892 292.132 115.855 292.238 115.839C292.344 115.822 292.452 115.827 292.556 115.852C292.66 115.878 292.759 115.923 292.845 115.987Z" fill="#263238"/>
<path d="M293.484 115.819C293.376 115.917 292.796 115.386 291.921 115.318C291.046 115.249 290.377 115.642 290.288 115.514C290.2 115.386 290.357 115.278 290.652 115.091C291.048 114.852 291.509 114.745 291.97 114.786C292.431 114.828 292.866 115.018 293.209 115.327C293.465 115.563 293.543 115.77 293.484 115.819Z" fill="#263238"/>
<path d="M296.406 123.313C296.877 123.208 297.36 123.162 297.842 123.175C298.068 123.175 298.285 123.175 298.344 122.988C298.373 122.744 298.336 122.495 298.235 122.27C298.068 121.69 297.891 121.08 297.695 120.441C297.184 118.883 296.789 117.288 296.514 115.671C296.734 116.101 296.905 116.552 297.026 117.019C297.301 117.864 297.665 119.035 298.009 120.343C298.186 120.982 298.363 121.602 298.521 122.182C298.645 122.474 298.666 122.8 298.58 123.106C298.544 123.183 298.491 123.25 298.424 123.301C298.357 123.352 298.279 123.387 298.196 123.401C298.069 123.42 297.94 123.42 297.813 123.401C297.342 123.428 296.87 123.398 296.406 123.313Z" fill="#263238"/>
<path d="M293.494 124.041C292.619 123.431 295.884 125.585 297.674 125.634C297.339 126.074 296.865 126.387 296.328 126.522C295.792 126.656 295.226 126.603 294.723 126.372C292.904 125.516 293.494 124.041 293.494 124.041Z" fill="white"/>
<path d="M296.297 134.16C293.284 133.938 290.397 132.86 287.977 131.053C287.977 131.053 289.727 135.773 296.11 135.714L296.297 134.16Z" fill="#EB996E"/>
<path d="M281.192 120.205C281.192 120.205 281.104 120.274 280.947 120.362C280.725 120.466 280.472 120.484 280.239 120.411C279.875 120.212 279.572 119.919 279.361 119.563C279.15 119.206 279.039 118.8 279.039 118.385C278.995 117.922 279.055 117.455 279.216 117.018C279.256 116.847 279.339 116.688 279.455 116.556C279.572 116.424 279.719 116.323 279.885 116.261C279.99 116.224 280.105 116.225 280.209 116.265C280.314 116.304 280.401 116.38 280.455 116.478C280.534 116.625 280.504 116.743 280.534 116.743C280.563 116.743 280.652 116.645 280.593 116.428C280.554 116.296 280.471 116.181 280.357 116.104C280.28 116.051 280.193 116.014 280.102 115.995C280.011 115.977 279.917 115.977 279.826 115.996C279.606 116.053 279.406 116.165 279.242 116.322C279.078 116.478 278.958 116.674 278.891 116.891C278.69 117.375 278.609 117.902 278.655 118.425C278.661 118.908 278.808 119.379 279.079 119.78C279.35 120.18 279.733 120.492 280.18 120.677C280.326 120.711 280.479 120.711 280.625 120.677C280.772 120.643 280.909 120.576 281.025 120.48C281.193 120.303 281.212 120.215 281.192 120.205Z" fill="#EB996E"/>
<path d="M305.631 107.411C305.285 107.527 304.924 107.596 304.559 107.617C305.755 106.99 306.738 106.021 307.382 104.834C307.853 104.014 308.101 103.085 308.101 102.139C308.101 101.194 307.853 100.265 307.382 99.4446C306.874 98.6515 306.092 98.0728 305.186 97.8189C304.279 97.565 303.31 97.6536 302.465 98.0678C302.79 97.3911 302.859 96.6192 302.658 95.8956C302.458 95.172 302.001 94.546 301.373 94.134C300.72 93.7471 299.989 93.5117 299.233 93.4453C298.478 93.379 297.716 93.4832 297.006 93.7504C295.59 94.2962 294.264 95.0521 293.073 95.9927C292.983 95.4839 292.773 95.004 292.46 94.5932C292.147 94.1825 291.74 93.853 291.273 93.6324C290.334 93.1963 289.282 93.0623 288.263 93.2489C286.784 93.5023 285.418 94.2043 284.35 95.2596C283.282 96.315 282.565 97.6729 282.294 99.1496C281.83 98.6735 281.251 98.325 280.613 98.1375C279.974 97.95 279.299 97.9298 278.651 98.079C278.003 98.2282 277.404 98.5416 276.912 98.9892C276.42 99.4368 276.052 100.003 275.842 100.635C275.847 100.68 275.847 100.726 275.842 100.772C275.253 101.028 274.758 101.461 274.426 102.011C274.147 102.481 273.974 103.007 273.922 103.551C273.869 104.095 273.937 104.644 274.121 105.158C274.498 106.169 275.187 107.034 276.088 107.627C276.434 107.87 276.739 108.165 276.993 108.502C277.188 108.796 277.306 109.134 277.337 109.486C277.249 111.61 276.167 113.616 275.636 115.701C274.908 118.592 276.511 122.536 277.436 125.368C278.36 128.201 278.685 129.302 280.484 129.528L280.76 121.917C278.793 123.529 276.167 117.983 277.888 115.77C279.609 113.557 281.438 114.314 281.753 115.711C281.875 116.248 282.029 116.776 282.215 117.294H284.182L283.966 115.632C283.966 115.632 283.563 108.247 287.093 107.765C288.015 107.569 288.976 107.746 289.768 108.256C290.906 108.714 292.138 108.887 293.358 108.758C294.617 108.758 296.308 107.322 296.308 106.073C297.029 106.913 297.941 107.568 298.968 107.98C299.996 108.393 301.107 108.552 302.209 108.443C302.778 108.384 303.337 108.248 303.871 108.04C304.536 108.224 305.241 108.207 305.897 107.991C306.572 107.772 307.163 107.349 307.588 106.781C307.903 106.339 307.962 106.004 307.903 105.975C307.255 106.608 306.481 107.097 305.631 107.411ZM276.324 107.175C275.523 106.617 274.912 105.828 274.574 104.913C274.414 104.469 274.352 103.996 274.391 103.526C274.43 103.056 274.57 102.6 274.8 102.188C275.007 101.794 275.307 101.456 275.675 101.205C275.341 103.437 276.796 105.699 277.18 108.03C276.943 107.713 276.669 107.426 276.364 107.175H276.324Z" fill="#92E3A9"/>
<path d="M339.441 116.645V129.322C339.441 130.702 339.99 132.025 340.965 133.001C341.941 133.976 343.264 134.524 344.644 134.524H366.604V141.772L370.538 134.839C371.704 134.755 372.794 134.232 373.589 133.376C374.385 132.52 374.827 131.395 374.826 130.227V116.645C374.825 115.957 374.687 115.276 374.421 114.641C374.154 114.007 373.765 113.431 373.275 112.948C372.784 112.465 372.203 112.085 371.565 111.828C370.926 111.571 370.243 111.443 369.555 111.453H344.644C343.266 111.453 341.944 111.999 340.969 112.973C339.993 113.946 339.444 115.267 339.441 116.645Z" fill="#92E3A9"/>
<path d="M351.391 123.657C351.391 124.081 351.266 124.496 351.03 124.848C350.794 125.201 350.46 125.476 350.068 125.638C349.676 125.8 349.245 125.843 348.829 125.76C348.413 125.677 348.031 125.473 347.731 125.173C347.432 124.873 347.227 124.491 347.145 124.075C347.062 123.659 347.104 123.228 347.267 122.837C347.429 122.445 347.704 122.11 348.056 121.875C348.409 121.639 348.823 121.513 349.247 121.513C349.816 121.513 350.361 121.739 350.763 122.141C351.165 122.543 351.391 123.089 351.391 123.657Z" fill="white"/>
<path d="M359.534 123.657C359.534 124.081 359.408 124.496 359.173 124.848C358.937 125.201 358.602 125.476 358.21 125.638C357.819 125.8 357.388 125.843 356.972 125.76C356.556 125.677 356.174 125.473 355.874 125.173C355.574 124.873 355.37 124.491 355.287 124.075C355.205 123.659 355.247 123.228 355.409 122.837C355.572 122.445 355.846 122.11 356.199 121.875C356.551 121.639 356.966 121.513 357.39 121.513C357.959 121.513 358.504 121.739 358.906 122.141C359.308 122.543 359.534 123.089 359.534 123.657Z" fill="white"/>
<path d="M367.677 123.657C367.677 124.081 367.551 124.496 367.315 124.848C367.08 125.201 366.745 125.476 366.353 125.638C365.961 125.8 365.53 125.843 365.114 125.76C364.698 125.677 364.316 125.473 364.017 125.173C363.717 124.873 363.513 124.491 363.43 124.075C363.347 123.659 363.39 123.228 363.552 122.837C363.714 122.445 363.989 122.11 364.342 121.875C364.694 121.639 365.109 121.513 365.533 121.513C366.101 121.513 366.647 121.739 367.049 122.141C367.451 122.543 367.677 123.089 367.677 123.657Z" fill="white"/>
<path d="M356.771 154.322C356.328 153.338 328.398 177.993 322.832 178.839L306.546 157.616C306.546 157.616 303.163 152.256 295.895 143.071C291.214 137.17 278.282 138.37 274.879 145.598C269.106 157.862 268.909 174.119 264.444 200.239L260.668 222.396C260.668 222.396 266.244 221.737 266.224 221.787L305.877 217.666L306.861 191.113C314.728 199.059 317.128 200.721 321.209 200.092C331.467 198.498 367.353 166.222 367.353 166.222C367.353 166.222 357.204 155.325 356.771 154.322Z" fill="#455A64"/>
<path d="M362.513 170.735C361.797 170.3 361.136 169.778 360.547 169.182C357.478 166.457 354.804 163.32 352.6 159.858C352.103 159.166 351.697 158.412 351.391 157.616C351.923 158.254 352.406 158.932 352.836 159.642C353.741 160.911 355.029 162.642 356.573 164.451C358.117 166.261 359.612 167.805 360.724 168.906C361.37 169.465 361.968 170.077 362.513 170.735Z" fill="#263238"/>
<path d="M321.248 187.247C321.417 184.396 321.918 181.574 322.743 178.839C322.587 181.692 322.085 184.515 321.248 187.247Z" fill="#263238"/>
<path d="M324.807 186.372C324.231 185.217 323.811 183.99 323.558 182.724C323.136 181.505 322.881 180.235 322.801 178.947C323.372 180.105 323.792 181.331 324.05 182.596C324.466 183.816 324.721 185.086 324.807 186.372Z" fill="#263238"/>
<path opacity="0.2" d="M285.805 163.251L306.447 202.274L306.91 190.699L285.805 163.251Z" fill="black"/>
<path d="M284.467 161.353C284.827 161.718 285.156 162.113 285.45 162.533L287.909 165.828C289.984 168.621 292.885 172.446 296.14 176.646L304.5 187.356L307.008 190.621C307.331 191.008 307.62 191.423 307.873 191.86C307.516 191.517 307.187 191.145 306.89 190.748C306.211 189.922 305.326 188.86 304.254 187.582C302.051 184.887 299.032 181.15 295.777 176.96C292.521 172.771 289.659 168.896 287.653 166.054C286.67 164.628 285.853 163.467 285.322 162.651C284.999 162.245 284.712 161.811 284.467 161.353Z" fill="#263238"/>
<path d="M285.116 173.548C284.948 173.167 284.826 172.768 284.752 172.358C284.556 171.581 284.3 170.47 283.995 169.103L284.3 169.25L280.238 171.443L279.963 171.591L279.874 171.286C279.727 170.755 279.569 170.194 279.402 169.624L278.694 167.077L279.058 167.224L275.055 169.476L274.81 169.614V169.339C274.577 168.125 274.439 166.896 274.396 165.661C274.752 166.845 275.015 168.055 275.183 169.28L274.898 169.142L278.832 166.792L279.107 166.624L279.196 166.939C279.422 167.755 279.668 168.611 279.914 169.486C280.081 170.057 280.238 170.617 280.386 171.148L280.022 171.001L284.123 168.867L284.369 168.729L284.418 169.004C284.674 170.371 284.88 171.502 284.998 172.289C285.09 172.702 285.13 173.125 285.116 173.548Z" fill="#263238"/>
<path d="M289.964 151.489C289.571 151.339 289.201 151.137 288.862 150.889C288.184 150.466 287.23 149.846 286.069 149.079L286.384 148.971C285.971 150.279 285.509 151.774 285.007 153.377L284.909 153.682L284.633 153.525L283.138 152.649L280.857 151.312L281.221 151.164L279.913 155.57L279.834 155.836L279.618 155.668C278.608 154.955 277.655 154.166 276.766 153.308C277.841 153.917 278.87 154.604 279.844 155.364L279.549 155.462C279.893 154.164 280.296 152.669 280.739 151.036L280.827 150.722L281.103 150.889L283.394 152.207L284.889 153.082L284.525 153.22L285.961 148.824L286.059 148.558L286.285 148.715C287.416 149.522 288.341 150.191 288.98 150.682C289.34 150.91 289.67 151.18 289.964 151.489Z" fill="#263238"/>
<path d="M304.451 159.071C304.105 158.834 303.791 158.553 303.516 158.235C302.946 157.675 302.14 156.858 301.176 155.855H301.51C300.822 157.045 300.035 158.393 299.199 159.858L299.042 160.124L298.806 159.907L297.537 158.737L295.57 156.937L295.963 156.868C295.137 158.353 294.38 159.701 293.721 160.871L293.584 161.117L293.406 160.91C292.58 159.985 291.823 158.999 291.145 157.96C292.061 158.787 292.916 159.682 293.702 160.635H293.387L295.521 156.573L295.678 156.288L295.914 156.504L297.881 158.304L299.14 159.484H298.756L301.136 155.55L301.284 155.314L301.471 155.521C302.454 156.504 303.162 157.409 303.674 158.019C303.98 158.332 304.242 158.686 304.451 159.071Z" fill="#E0E0E0"/>
<path d="M342.648 183.903C342.648 183.903 342.313 183.589 341.822 182.969C341.33 182.35 340.632 181.435 339.806 180.314H340.14L337.347 183.992L337.15 184.238L336.954 184.002L335.833 182.674L334.151 180.648H334.544L331.82 184.336L331.653 184.562L331.505 184.336C330.802 183.321 330.174 182.256 329.627 181.15C330.433 182.075 331.166 183.062 331.82 184.1H331.505C332.282 183.009 333.167 181.74 334.141 180.343L334.328 180.088L334.534 180.334L336.236 182.359L337.347 183.687H336.954L339.816 180.068L339.993 179.842L340.15 180.068C340.947 181.219 341.586 182.163 342.028 182.832C342.273 183.165 342.481 183.525 342.648 183.903Z" fill="#263238"/>
<path d="M318.996 181.917C318.642 181.714 318.312 181.474 318.012 181.199C317.383 180.707 316.488 179.989 315.416 179.114L315.74 179.035L313.872 183.244L313.754 183.529L313.498 183.343L312.092 182.359L309.958 180.786L310.341 180.677C309.692 182.251 309.102 183.628 308.581 184.916L308.473 185.182L308.276 184.985C307.346 184.176 306.481 183.295 305.689 182.349C306.695 183.063 307.645 183.852 308.532 184.71L308.227 184.778C308.709 183.52 309.269 182.074 309.879 180.5L309.997 180.196L310.253 180.382L312.397 181.936L313.793 182.92L313.41 183.028L315.317 178.819L315.435 178.563L315.642 178.74C316.684 179.664 317.54 180.422 318.13 180.963C318.72 181.504 319.025 181.877 318.996 181.917Z" fill="#E0E0E0"/>
<path d="M352.835 176.361C352.702 175.966 352.616 175.557 352.58 175.141C352.462 174.345 352.304 173.174 352.127 171.837L352.422 172.004L348.174 173.833L347.889 173.951L347.83 173.647C347.731 173.096 347.623 172.525 347.515 171.945C347.348 171.04 347.19 170.175 347.043 169.339L347.387 169.516L343.207 171.444L342.952 171.552V171.276C342.831 170.048 342.808 168.811 342.883 167.579C343.127 168.791 343.275 170.021 343.325 171.257L343.06 171.09L347.2 169.123L347.485 168.975L347.544 169.3C347.702 170.136 347.869 171.001 348.036 171.896C348.144 172.486 348.243 173.056 348.341 173.597L347.997 173.41L352.275 171.67L352.54 171.562V171.837C352.668 173.224 352.767 174.364 352.816 175.161C352.868 175.559 352.874 175.961 352.835 176.361Z" fill="#E0E0E0"/>
<path d="M305.69 165.877C305.368 166.132 305.018 166.35 304.647 166.526C303.959 166.919 302.956 167.509 301.697 168.129L301.756 167.795L304.972 171.109L305.188 171.335L304.923 171.502L303.448 172.397L301.186 173.774V173.381L304.431 176.626L304.628 176.833L304.372 176.941C303.265 177.488 302.118 177.948 300.94 178.318C301.987 177.661 303.082 177.082 304.215 176.587L304.166 176.901L300.841 173.735L300.605 173.518L300.881 173.351L303.143 171.965L304.618 171.07V171.453C303.467 170.234 302.395 169.083 301.461 168.08L301.264 167.873L301.52 167.755C302.769 167.146 303.802 166.644 304.52 166.32C304.888 166.12 305.282 165.972 305.69 165.877Z" fill="#263238"/>
<path d="M323.736 187.247C323.414 187.515 323.061 187.742 322.684 187.926C321.995 188.319 320.992 188.909 319.734 189.519L319.783 189.194L323.008 192.509L323.225 192.725L322.959 192.892L321.484 193.797L319.212 195.164L319.261 194.78L322.507 198.026L322.704 198.222L322.448 198.331C321.339 198.876 320.192 199.339 319.016 199.717C320.082 199.061 321.197 198.486 322.35 197.996L322.291 198.311L318.976 195.144L318.74 194.918L319.016 194.751L321.268 193.374L322.753 192.469L322.704 192.863L319.547 189.489L319.35 189.283L319.596 189.165C320.845 188.545 321.877 188.053 322.605 187.719C322.96 187.513 323.34 187.355 323.736 187.247Z" fill="#E0E0E0"/>
<path d="M287.929 186.962C287.764 186.576 287.642 186.174 287.565 185.762C287.368 184.985 287.113 183.874 286.808 182.517L287.113 182.654L283.012 184.867L282.736 185.024L282.658 184.72C282.5 184.179 282.343 183.618 282.185 183.048C281.94 182.172 281.694 181.317 281.468 180.501L281.831 180.648L277.839 182.9L277.593 183.038V182.763C277.367 181.551 277.229 180.325 277.18 179.094C277.538 180.274 277.801 181.481 277.966 182.704L277.681 182.566L281.615 180.215L281.89 180.058L281.979 180.363C282.205 181.179 282.451 182.035 282.707 182.91L283.169 184.582L282.805 184.425L286.906 182.29L287.152 182.163L287.211 182.428C287.467 183.795 287.663 184.926 287.791 185.713C287.886 186.122 287.933 186.542 287.929 186.962Z" fill="#E0E0E0"/>
<path d="M304.313 196.246C304.146 195.861 304.024 195.458 303.949 195.046C303.753 194.269 303.497 193.158 303.192 191.8L303.497 191.938L299.445 194.151L299.17 194.308L299.081 194.003C298.924 193.462 298.767 192.902 298.609 192.341C298.363 191.456 298.127 190.601 297.891 189.784L298.255 189.932L294.262 192.184L294.017 192.322V192.056C293.791 190.842 293.653 189.612 293.604 188.378C293.96 189.558 294.223 190.765 294.39 191.987L294.105 191.859L298.039 189.509L298.314 189.342L298.403 189.656C298.639 190.473 298.875 191.318 299.131 192.194L299.593 193.866L299.239 193.708L303.33 191.574L303.586 191.446L303.635 191.712C303.89 193.079 304.087 194.21 304.215 194.997C304.303 195.407 304.336 195.827 304.313 196.246Z" fill="#263238"/>
<path d="M280.266 216.682C280.098 216.301 279.976 215.902 279.903 215.492C279.706 214.715 279.45 213.604 279.145 212.246L279.45 212.384L275.398 214.597L275.123 214.744L275.034 214.44C274.877 213.908 274.72 213.348 274.562 212.777L273.854 210.23L274.208 210.378L270.225 212.669L269.979 212.807V212.532C269.753 211.317 269.615 210.088 269.566 208.854C269.922 210.038 270.185 211.248 270.353 212.473L270.068 212.335L274.002 209.984L274.277 209.817L274.366 210.132C274.602 210.948 274.838 211.804 275.093 212.679L275.556 214.341L275.202 214.194L279.293 212.06L279.548 211.922L279.598 212.197C279.853 213.564 280.05 214.695 280.178 215.482C280.265 215.876 280.295 216.28 280.266 216.682Z" fill="#E0E0E0"/>
<path d="M280.74 195.233C280.367 195.042 280.02 194.804 279.707 194.525C279.068 194.053 278.163 193.345 277.081 192.47L277.406 192.391L275.626 196.659L275.508 196.944L275.252 196.757C274.79 196.443 274.318 196.098 273.836 195.774L271.692 194.23L272.066 194.122L270.355 198.38L270.246 198.636L270.05 198.449C269.114 197.643 268.237 196.772 267.424 195.843C268.444 196.539 269.408 197.315 270.305 198.164L270 198.242C270.463 196.984 270.984 195.528 271.604 193.945L271.712 193.64L271.977 193.827L274.16 195.341L275.567 196.325L275.193 196.423L277.052 192.194L277.17 191.938L277.376 192.116C278.429 193.03 279.294 193.778 279.884 194.318C280.204 194.589 280.491 194.896 280.74 195.233Z" fill="#263238"/>
<path d="M289.316 195.813C289.021 196.103 288.69 196.354 288.333 196.561C287.674 197.003 286.71 197.623 285.53 198.361V198.026L288.982 201.104L289.208 201.321L288.952 201.498L287.546 202.481L285.382 204.006V203.622L288.913 206.651L289.119 206.838L288.883 206.966C287.815 207.587 286.7 208.126 285.549 208.579C286.55 207.848 287.601 207.191 288.696 206.612V206.926L285.156 203.976L284.91 203.77L285.176 203.583L287.329 202.049L288.736 201.065V201.459L285.353 198.321L285.146 198.125L285.382 197.987C286.582 197.289 287.575 196.718 288.283 196.335C288.605 196.119 288.951 195.944 289.316 195.813Z" fill="#263238"/>
<path d="M298.747 202.52C298.563 202.896 298.332 203.246 298.059 203.563C297.587 204.212 296.888 205.117 296.033 206.218L295.954 205.894L300.242 207.615L300.527 207.723L300.35 207.988L299.367 209.414L297.852 211.588L297.734 211.204L302.012 212.856L302.278 212.965L302.091 213.161C301.303 214.113 300.442 215.001 299.514 215.817C300.207 214.796 300.973 213.826 301.806 212.915L301.884 213.22L297.567 211.676L297.262 211.568L297.449 211.303C297.921 210.604 298.432 209.876 298.944 209.119C299.288 208.637 299.613 208.136 299.927 207.703L300.035 208.077L295.797 206.277L295.541 206.169L295.718 205.953C296.613 204.881 297.351 203.986 297.882 203.415C298.413 202.845 298.747 202.491 298.747 202.52Z" fill="#E0E0E0"/>
<path d="M293.396 218.55C293.396 218.55 293.396 218.658 293.504 218.875C293.612 219.091 293.671 219.435 293.789 219.858C294.025 220.714 294.379 221.983 294.772 223.625C295.166 225.267 295.667 227.274 296.012 229.663C296.246 230.966 296.071 232.31 295.51 233.509C294.888 234.838 294.035 236.046 292.992 237.079V236.911C295.569 249.146 299.178 266.287 303.181 285.248C307.066 303.934 310.537 320.8 313.016 333.044C314.245 339.161 315.218 344.118 315.858 347.55C316.182 349.261 316.418 350.599 316.566 351.484C316.674 351.941 316.727 352.41 316.723 352.88C316.723 352.88 316.645 352.408 316.467 351.503C316.29 350.599 316.005 349.251 315.661 347.57C314.943 344.118 313.92 339.181 312.662 333.093C310.105 320.849 306.594 303.973 302.709 285.337C298.775 266.356 295.215 249.205 292.678 236.97V236.872L292.747 236.803C294.832 234.708 296.238 232.063 295.697 229.683C295.382 227.313 294.9 225.287 294.536 223.645C294.173 222.002 293.858 220.763 293.642 219.868L293.406 218.885C293.389 218.774 293.386 218.662 293.396 218.55Z" fill="#455A64"/>
<path d="M272.686 220.911C272.686 220.911 272.843 221.128 272.991 221.58C273.201 222.216 273.326 222.878 273.364 223.547C273.527 225.794 272.849 228.021 271.463 229.796C270.076 231.571 268.08 232.769 265.861 233.155C265.212 233.276 264.552 233.316 263.894 233.273C263.648 233.278 263.405 233.234 263.176 233.145C263.176 233.047 264.218 233.145 265.821 232.801C267.912 232.341 269.776 231.166 271.092 229.478C272.408 227.791 273.094 225.696 273.03 223.557C272.967 222.669 272.852 221.785 272.686 220.911Z" fill="#455A64"/>
<path d="M289.157 221.963C289.157 221.963 289.157 221.815 289.393 221.688C289.54 221.602 289.703 221.547 289.872 221.525C290.041 221.503 290.212 221.515 290.376 221.56C290.631 221.622 290.86 221.76 291.036 221.954C291.211 222.149 291.324 222.392 291.36 222.651C291.407 222.977 291.345 223.309 291.183 223.595C291.02 223.88 290.767 224.104 290.463 224.229C290.159 224.355 289.822 224.375 289.505 224.287C289.188 224.199 288.91 224.007 288.714 223.743C288.553 223.538 288.453 223.293 288.423 223.034C288.394 222.775 288.437 222.513 288.547 222.278C288.95 221.481 289.599 221.461 289.58 221.52C289.56 221.579 289.108 221.756 288.891 222.405C288.827 222.58 288.811 222.769 288.844 222.952C288.877 223.135 288.958 223.306 289.078 223.448C289.225 223.613 289.416 223.732 289.629 223.79C289.843 223.847 290.068 223.841 290.278 223.772C290.475 223.678 290.639 223.526 290.748 223.336C290.856 223.146 290.905 222.928 290.888 222.71C290.874 222.527 290.806 222.353 290.692 222.209C290.578 222.065 290.424 221.959 290.248 221.904C289.888 221.807 289.505 221.827 289.157 221.963Z" fill="#455A64"/>
<path d="M309.947 224.147C309.387 224.542 308.725 224.771 308.04 224.806C306.386 225.054 304.698 224.692 303.292 223.787C301.886 222.882 300.857 221.496 300.398 219.888C300.161 219.261 300.097 218.582 300.211 217.921C300.3 217.921 300.319 218.688 300.733 219.819C301.253 221.296 302.249 222.559 303.565 223.41C304.88 224.26 306.44 224.651 308 224.52C309.2 224.363 309.918 224.068 309.947 224.147Z" fill="#455A64"/>
<path d="M320.746 374.507C320.426 374.595 320.094 374.635 319.762 374.625L317.087 374.773L308.236 375.195L299.385 375.658L296.7 375.766C296.374 375.812 296.043 375.812 295.717 375.766C296.034 375.658 296.365 375.598 296.7 375.589C297.32 375.51 298.234 375.412 299.365 375.314C301.618 375.107 304.745 374.881 308.216 374.704C311.688 374.527 314.806 374.448 317.068 374.438C318.199 374.438 319.113 374.438 319.752 374.438C320.085 374.415 320.419 374.438 320.746 374.507Z" fill="#455A64"/>
<path d="M275.851 232.132C275.989 232.132 283.719 264.025 293.15 303.432C302.582 342.839 310.086 374.831 309.948 374.86C309.81 374.89 302.08 342.977 292.649 303.55C283.218 264.124 275.714 232.161 275.851 232.132Z" fill="#455A64"/>
<path d="M301.017 233.401C301.085 233.466 301.144 233.539 301.194 233.618L301.676 234.257L303.505 236.765L310.134 246.019L319.919 259.787L325.672 267.94C327.639 270.773 329.606 273.949 330.127 277.686C330.649 281.423 329.557 285.033 328.426 288.268C327.295 291.504 326.056 294.651 324.915 297.611C322.614 303.512 320.43 308.842 318.532 313.258C316.634 317.674 315.031 321.224 313.91 323.663L312.583 326.466L312.228 327.184C312.14 327.341 312.101 327.429 312.091 327.42C312.108 327.33 312.137 327.244 312.179 327.164C312.258 326.967 312.366 326.721 312.494 326.416L313.723 323.584C314.795 321.116 316.349 317.546 318.198 313.12C320.047 308.695 322.201 303.384 324.472 297.444C325.603 294.494 326.774 291.356 327.944 288.101C329.114 284.846 330.137 281.355 329.626 277.755C329.114 274.156 327.177 271.048 325.259 268.225L319.536 260.063L309.839 246.186L303.338 236.834L301.597 234.277C301.41 234.001 301.263 233.785 301.155 233.608C301.047 233.431 301.007 233.401 301.017 233.401Z" fill="#455A64"/>
<path d="M350.998 155.324L372.959 139.294L374.04 141.015L352.218 157.242L350.998 155.324Z" fill="#263238"/>
<path d="M356.426 154.833C356.426 154.833 359.376 147.162 360.035 145.529C360.694 143.897 361.815 141.054 362.238 140.995C362.661 140.936 364.205 141.172 362.189 146.05C360.173 150.928 364.559 147.948 364.559 147.948L368.788 144.919C368.788 144.919 372.132 154.911 370.233 157.921C368.739 160.173 367.062 162.298 365.218 164.274L356.426 154.833Z" fill="#FFBE9D"/>
<path d="M77.7163 281.983C78.0015 280.321 77.3721 274.243 77.3721 274.243C77.3721 274.243 70.9993 273.564 70.6158 267.251C70.2322 260.937 70.6158 246.362 70.6158 246.362L82.2205 240.688L95.0054 250.355L93.0385 281.953L77.7163 281.983Z" fill="#B78876"/>
<path d="M72.375 256.925C72.375 257.138 72.4599 257.344 72.6112 257.495C72.7624 257.646 72.9675 257.731 73.1814 257.731C73.3953 257.731 73.6004 257.646 73.7517 257.495C73.9029 257.344 73.9879 257.138 73.9879 256.925C73.9879 256.819 73.967 256.714 73.9265 256.616C73.8859 256.518 73.8265 256.429 73.7517 256.354C73.6768 256.279 73.5879 256.22 73.49 256.18C73.3922 256.139 73.2873 256.118 73.1814 256.118C73.0755 256.118 72.9707 256.139 72.8728 256.18C72.775 256.22 72.6861 256.279 72.6112 256.354C72.5363 256.429 72.4769 256.518 72.4364 256.616C72.3958 256.714 72.375 256.819 72.375 256.925Z" fill="#263238"/>
<path d="M71.1972 256.344C71.2956 256.442 71.8955 255.941 72.7609 255.892C73.6264 255.842 74.2853 256.265 74.3836 256.147C74.482 256.029 74.3148 255.901 74.0296 255.705C73.6455 255.453 73.19 255.332 72.7314 255.361C72.2727 255.392 71.8356 255.568 71.4824 255.862C71.2267 256.088 71.1382 256.295 71.1972 256.344Z" fill="#263238"/>
<path d="M82.5935 257.584C83.0389 257.584 83.4 257.222 83.4 256.777C83.4 256.332 83.0389 255.971 82.5935 255.971C82.1482 255.971 81.7871 256.332 81.7871 256.777C81.7871 257.222 82.1482 257.584 82.5935 257.584Z" fill="#263238"/>
<path d="M80.5978 256.187C80.706 256.295 81.296 255.784 82.1713 255.744C83.0466 255.705 83.6957 256.118 83.7842 256C83.8727 255.882 83.7252 255.754 83.44 255.557C83.0553 255.307 82.6002 255.186 82.1418 255.213C81.6821 255.241 81.2438 255.417 80.8928 255.715C80.6273 255.941 80.5486 256.148 80.5978 256.187Z" fill="#263238"/>
<path d="M77.6079 263.455C77.1424 263.333 76.6629 263.274 76.1819 263.278C75.9655 263.278 75.7492 263.228 75.7 263.071C75.6728 262.828 75.7172 262.582 75.8279 262.363L76.4179 260.563C76.9814 259.033 77.4253 257.461 77.7456 255.862C77.0846 257.352 76.5292 258.887 76.0835 260.455C75.877 261.084 75.6902 261.694 75.5131 262.265C75.3782 262.55 75.3469 262.873 75.4246 263.179C75.4579 263.257 75.509 263.326 75.5739 263.381C75.6389 263.436 75.7157 263.474 75.7983 263.494C75.9222 263.512 76.0482 263.512 76.1721 263.494C76.6505 263.539 77.1326 263.526 77.6079 263.455Z" fill="#263238"/>
<path d="M80.4905 264.28C79.217 265.086 77.7717 265.582 76.2715 265.726C76.5909 266.168 77.0503 266.489 77.5751 266.637C78.0999 266.785 78.6594 266.752 79.1628 266.542C81.0216 265.765 80.4905 264.28 80.4905 264.28Z" fill="white"/>
<path d="M77.373 274.243C80.376 274.118 83.2803 273.135 85.7422 271.411C85.7422 271.411 83.8442 276.053 77.5107 275.797L77.373 274.243Z" fill="#A36957"/>
<path d="M103.375 255.036C103.375 255.036 105.951 269.601 93.6484 272.226L94.0123 254.682L103.375 255.036Z" fill="#263238"/>
<path d="M102.972 251.81C102.204 248.694 100.768 245.781 98.7631 243.274C100.533 244.012 101.713 244.749 101.959 244.513C102.205 244.277 101.753 243.835 100.976 243.176C99.9669 242.35 98.813 241.72 97.5731 241.317L96.9929 241.16C97.8046 240.836 98.546 240.359 99.1762 239.753C99.9306 239.047 100.452 238.127 100.672 237.117C100.891 236.107 100.798 235.054 100.405 234.098C99.9613 233.285 99.286 232.623 98.4649 232.194C97.6439 231.765 96.714 231.589 95.7931 231.689C94.8781 231.818 94.0063 232.161 93.2479 232.688C92.4895 233.216 91.8656 233.915 91.4265 234.728C91.2146 235.117 91.0401 235.525 90.9053 235.947C90.9352 235.249 91.0074 234.552 91.1217 233.862C91.5151 231.433 92.4198 229.614 92.2723 229.535C91.3395 230.77 90.7584 232.235 90.5906 233.774C90.5906 234.01 90.5316 234.236 90.5021 234.462C90.309 233.834 90.0724 233.219 89.794 232.623C89.1941 231.355 88.6237 230.656 88.4565 230.764C88.1123 230.932 89.2334 233.597 89.6957 237.196C88.5893 236.828 87.4379 236.613 86.2732 236.557C84.1293 236.557 80.5692 235.574 75.5339 239.616C73.8291 240.704 72.3554 242.118 71.1969 243.776C69.5329 246.211 68.595 249.069 68.4924 252.017C68.462 252.902 68.518 253.788 68.6596 254.662C68.6897 254.985 68.7727 255.301 68.9055 255.597C69.0038 255.597 68.7186 254.23 68.9055 252.037C69.0161 250.411 69.3777 248.812 69.9774 247.296C69.2282 249.919 69.3947 252.718 70.4495 255.233L81.71 253.472C80.9823 251.004 81.5133 247.09 81.8575 245.172C83.8245 254.367 91.7412 258.783 91.7412 258.783L103.592 256.924C103.425 255.852 103.228 252.774 102.972 251.81Z" fill="#263238"/>
<path d="M130.232 392.661C130.596 392.838 159.648 398.561 158.576 394.627C157.504 390.694 130.488 384.518 130.488 384.518L130.232 392.661Z" fill="#92E3A9"/>
<path d="M143.44 390.094C143.578 390.094 143.785 390.763 143.775 391.638C143.765 392.513 143.558 393.201 143.421 393.182C143.283 393.162 143.254 392.474 143.263 391.638C143.273 390.802 143.303 390.104 143.44 390.094Z" fill="#263238"/>
<path d="M141.896 389.563C142.024 389.563 142.28 390.34 142.181 391.363C142.083 392.385 141.719 393.133 141.591 393.084C141.464 393.035 141.591 392.267 141.67 391.314C141.749 390.36 141.749 389.583 141.896 389.563Z" fill="#263238"/>
<path d="M140.018 389.405C140.155 389.405 140.352 390.172 140.372 391.156C140.391 392.139 140.224 392.926 140.086 392.916C139.949 392.906 139.88 392.129 139.86 391.166C139.841 390.202 139.88 389.415 140.018 389.405Z" fill="#263238"/>
<path d="M136.479 386.563C136.631 386.556 136.784 386.572 136.931 386.613C137.226 386.613 137.659 386.75 138.21 386.878C139.321 387.114 140.924 387.498 142.881 388.039C144.838 388.579 147.159 389.258 149.696 390.123C150.965 390.556 152.312 390.999 153.63 391.579C155.059 392.155 156.371 392.985 157.505 394.028C157.682 394.169 157.826 394.347 157.928 394.549C157.99 394.692 158 394.853 157.955 395.002C157.91 395.152 157.813 395.28 157.682 395.365C157.303 395.562 156.879 395.654 156.453 395.631C155.695 395.69 154.948 395.719 154.22 395.739C152.755 395.739 151.339 395.739 149.991 395.631C147.307 395.464 144.907 395.129 142.901 394.815C140.894 394.5 139.282 394.185 138.17 393.959L136.892 393.693C136.739 393.673 136.59 393.63 136.449 393.566C137.037 393.585 137.622 393.651 138.2 393.762L142.95 394.451C144.917 394.726 147.356 395.021 150.021 395.169C151.358 395.237 152.755 395.277 154.21 395.237C154.928 395.237 155.676 395.188 156.413 395.129C156.752 395.149 157.089 395.084 157.397 394.942C157.485 394.874 157.495 394.834 157.466 394.746C157.384 394.612 157.281 394.493 157.161 394.392C156.068 393.392 154.806 392.596 153.433 392.041C152.116 391.471 150.778 391.058 149.5 390.566C146.972 389.691 144.671 388.963 142.733 388.383C140.796 387.803 139.203 387.399 138.111 387.065C137.557 386.934 137.011 386.766 136.479 386.563Z" fill="#263238"/>
<path d="M151.907 390.881C152.045 390.93 151.76 392.031 151.907 393.389C152.055 394.746 152.429 395.798 152.291 395.867C151.767 395.154 151.457 394.307 151.396 393.424C151.335 392.541 151.526 391.659 151.947 390.881H151.907Z" fill="#263238"/>
<path d="M34.1987 386.908C33.7955 386.908 4.47873 390.95 6.75051 394.244C9.02228 397.539 36.5983 394.647 36.5983 394.647L34.1987 386.908Z" fill="#92E3A9"/>
<path d="M22.4957 393.644C22.3777 393.703 21.9548 393.113 21.6794 392.287C21.404 391.461 21.4139 390.753 21.5122 390.753C21.6106 390.753 21.8958 391.373 22.1613 392.169C22.4268 392.966 22.6235 393.575 22.4957 393.644Z" fill="#263238"/>
<path d="M24.137 393.634C24.019 393.703 23.5174 393.025 23.2716 392.031C23.0257 391.038 23.1339 390.202 23.2716 390.202C23.4093 390.202 23.5371 390.979 23.7731 391.904C24.0092 392.828 24.2649 393.566 24.137 393.634Z" fill="#263238"/>
<path d="M25.9571 393.172C25.8293 393.231 25.3966 392.553 25.0524 391.628C24.7082 390.704 24.6098 389.907 24.7475 389.868C24.8852 389.828 25.1999 390.556 25.5343 391.451C25.8686 392.346 26.085 393.113 25.9571 393.172Z" fill="#263238"/>
<path d="M30.2664 394.686C30.1247 394.741 29.9755 394.774 29.8238 394.785L28.5257 394.952C27.3947 395.089 25.7622 395.247 23.7363 395.375C21.7103 395.503 19.2911 395.611 16.6062 395.63C15.2589 395.63 13.8526 395.63 12.3774 395.542C10.8404 395.475 9.32947 395.121 7.92233 394.499C7.70634 394.423 7.5087 394.303 7.34209 394.145C7.24463 394.026 7.19141 393.877 7.19141 393.722C7.19141 393.568 7.24463 393.419 7.34209 393.3C7.63159 392.985 8.00267 392.757 8.41405 392.641C9.11231 392.336 9.80072 392.07 10.4891 391.805C11.866 391.303 13.2231 390.89 14.5213 390.526C17.1176 389.808 19.4976 389.346 21.494 388.992C23.4904 388.638 25.1229 388.402 26.2441 388.254L27.5422 388.087C27.6921 388.063 27.8448 388.063 27.9946 388.087C27.4319 388.26 26.8564 388.388 26.2736 388.471L21.5628 389.366C19.5959 389.769 17.216 390.271 14.6787 390.998C13.3903 391.372 12.0528 391.785 10.7448 392.296C10.0663 392.562 9.37784 392.828 8.68942 393.123C8.36867 393.215 8.07509 393.384 7.83382 393.614C7.77481 393.713 7.77481 393.742 7.83382 393.821C7.95687 393.923 8.09662 394.003 8.24687 394.057C9.60117 394.642 11.0509 394.975 12.5249 395.04C13.9607 395.158 15.3769 395.148 16.7144 395.158C19.3894 395.158 21.7989 395.099 23.8248 395.021C25.8507 394.942 27.4832 394.824 28.6142 394.755C29.1628 394.695 29.7147 394.672 30.2664 394.686Z" fill="#263238"/>
<path d="M14.2452 395.67C14.0879 395.67 14.0092 394.539 13.4584 393.29C12.9077 392.041 12.18 391.176 12.2881 391.078C12.3963 390.979 13.3601 391.717 13.9305 393.044C14.3687 393.847 14.4814 394.787 14.2452 395.67Z" fill="#263238"/>
<path d="M125.1 351.316H110.181L55.1072 352.742L39.372 350.707C36.9232 350.166 35.3103 349.94 34.7891 350.107C32.6755 350.988 30.8233 352.397 29.4096 354.198C23.4105 361.357 27.187 372.392 36.2151 374.85L44.6925 377.152L26.1445 383.112L32.4091 400.892C32.4091 400.892 60.1032 394.903 86.9613 388.58L129.938 400.204L136.134 380.25L128.847 377.88C133.42 376.483 136.311 375.382 136.714 374.713C139.419 370.523 144.208 351.041 125.031 351.336" fill="#455A64"/>
<path opacity="0.2" d="M128.61 377.948L96.6673 391.176L87.0098 388.56L128.61 377.948Z" fill="black"/>
<path opacity="0.2" d="M44.8281 352.811L85.7201 364.524L116.866 353.903L44.8281 352.811Z" fill="black"/>
<path d="M39.0081 399.604C38.4858 398.795 38.0476 397.935 37.7001 397.037C36.9723 395.414 36.0282 393.103 35.1038 390.585C34.1793 388.068 33.4221 385.668 32.9402 383.977C32.6289 383.066 32.4082 382.127 32.2812 381.174C32.6819 382.044 33.0108 382.945 33.2647 383.868C33.8351 385.55 34.6317 387.871 35.5561 390.408C36.4806 392.946 37.3755 395.237 38.0148 396.889C38.4145 397.768 38.7466 398.675 39.0081 399.604Z" fill="#263238"/>
<path d="M137.589 357.945C137.51 357.993 137.423 358.029 137.333 358.053L136.566 358.338L133.616 359.381L122.71 363.088C113.455 366.176 100.651 370.356 86.4594 374.811C72.2682 379.266 59.3653 383.151 50.0127 385.904L38.9193 389.11L35.9001 389.946L35.1035 390.153C35.0142 390.181 34.9217 390.198 34.8281 390.202L35.0937 390.104L35.8706 389.848L38.8209 388.914L49.8651 385.55C59.1981 382.718 72.0715 378.774 86.2529 374.319C100.434 369.864 113.259 365.744 122.533 362.744L133.528 359.194L136.527 358.21L137.304 357.974C137.397 357.951 137.493 357.941 137.589 357.945Z" fill="#263238"/>
<path d="M107.808 357.227C107.61 357.34 107.399 357.429 107.179 357.492L105.35 358.161C103.757 358.731 101.416 359.538 98.5639 360.511C92.8205 362.478 84.8644 365.075 76.0625 367.897C67.2606 370.72 59.2552 373.208 53.443 374.958C50.4927 375.834 48.1816 376.522 46.5589 376.984L44.6805 377.505C44.4612 377.57 44.2378 377.619 44.0117 377.653C44.2145 377.546 44.4291 377.464 44.651 377.407L46.4999 376.797L53.384 374.614L75.9445 367.415L98.4852 360.167L105.32 357.974L107.189 357.394C107.389 357.316 107.596 357.26 107.808 357.227Z" fill="#263238"/>
<path d="M85.5137 364.456C85.5137 364.593 76.3381 362.095 65.0972 358.879C53.8564 355.664 44.7889 352.979 44.8283 352.812C44.8676 352.644 54.0039 355.172 65.2349 358.388C76.466 361.604 85.5531 364.318 85.5137 364.456Z" fill="#263238"/>
<path d="M130.174 378.893C129.166 382.212 127.991 385.478 126.653 388.678C124.578 394.028 122.788 398.316 122.66 398.267C123.665 394.95 124.841 391.687 126.181 388.491C128.256 383.141 130.046 378.843 130.174 378.893Z" fill="#263238"/>
<path d="M126.338 387.134C123.625 386.666 120.942 386.038 118.303 385.255C115.634 384.625 113.007 383.83 110.436 382.875C113.149 383.341 115.832 383.969 118.47 384.754C121.139 385.385 123.767 386.179 126.338 387.134Z" fill="#263238"/>
<path d="M65.1681 370.828C64.6529 370.766 64.1433 370.664 63.6438 370.523L59.5329 369.54C56.0712 368.655 51.2817 367.455 46.0596 365.882C41.5832 364.566 37.1976 362.959 32.9305 361.072C31.3078 360.325 29.9801 359.676 29.1344 359.194C28.6638 358.972 28.2158 358.706 27.7969 358.397C28.2876 358.567 28.7643 358.774 29.2229 359.017C30.1277 359.44 31.4357 360 33.078 360.738C37.3687 362.521 41.7513 364.073 46.2071 365.39C51.4194 366.963 56.1892 368.212 59.6313 369.186L63.6929 370.356C64.1992 370.464 64.6934 370.622 65.1681 370.828Z" fill="#263238"/>
<path d="M95.3983 281.107H94.1886L94.0116 276.918L77.4011 277.901C77.4011 277.901 77.5683 279.868 77.5584 281.235C67.3305 282.219 50.9364 287.47 50.543 310.493L63.6622 310.798C62.5509 321.36 62.6788 327.664 61.6068 331.628C59.7776 338.177 53.9851 352.005 55.1455 352.703C56.306 353.401 110.14 354.394 112.707 352.998C115.274 351.601 110.602 333.555 109.432 328.657C108.695 325.53 108.537 318.371 108.518 312.834L123.584 312.155C123.584 312.155 124.676 281.019 95.3983 281.107Z" fill="#92E3A9"/>
<path d="M94.1003 280.94C93.3066 281.175 92.4878 281.313 91.6613 281.353C90.1369 281.53 88.0323 281.698 85.7016 281.747C83.3708 281.796 81.2662 281.747 79.7418 281.609C78.9132 281.596 78.0886 281.49 77.2832 281.294C78.1024 281.197 78.9292 281.181 79.7517 281.245C81.276 281.245 83.3708 281.245 85.6524 281.245C87.934 281.245 90.0681 281.088 91.5531 281.009C92.398 280.905 93.251 280.882 94.1003 280.94Z" fill="#263238"/>
<path d="M80.4217 277.764C80.5692 277.764 80.6774 278.57 80.6774 279.563C80.6774 280.557 80.5692 281.373 80.4217 281.373C80.2742 281.373 80.166 280.567 80.166 279.563C80.166 278.56 80.2349 277.764 80.4217 277.764Z" fill="#263238"/>
<path d="M84.8166 277.449C84.9543 277.449 85.092 278.334 85.1215 279.416C85.2115 280.078 85.1441 280.752 84.9248 281.383C84.7773 281.383 84.6396 280.498 84.6101 279.416C84.517 278.753 84.5879 278.078 84.8166 277.449Z" fill="#263238"/>
<path d="M89.4007 277.292C89.5384 277.292 89.7351 278.157 89.7548 279.259C89.7744 280.36 89.6269 281.226 89.4794 281.226C89.2648 280.594 89.1844 279.924 89.2434 279.259C89.2729 278.197 89.2729 277.302 89.4007 277.292Z" fill="#263238"/>
<path d="M92.7239 277.134C92.8714 277.134 92.9697 278 93.1074 279.052C93.2451 280.104 93.3533 280.97 93.2156 281.019C93.0779 281.068 92.7337 280.222 92.6058 279.121C92.478 278.019 92.5862 277.125 92.7239 277.134Z" fill="#263238"/>
<path d="M65.7396 310.552C65.475 308.927 65.3761 307.28 65.4446 305.635C65.3403 303.993 65.4129 302.344 65.6609 300.718C65.9208 302.343 66.0196 303.99 65.956 305.635C66.0476 307.277 65.9751 308.924 65.7396 310.552Z" fill="#263238"/>
<path d="M107.957 312.194C107.559 310.45 107.322 308.672 107.249 306.884C107.012 305.108 106.949 303.312 107.062 301.524C107.694 305.045 107.993 308.617 107.957 312.194Z" fill="#263238"/>
<path d="M65.7365 310.552C64.9868 310.651 64.229 310.674 63.4746 310.621H58.0558H52.6271C51.876 310.675 51.1214 310.652 50.375 310.552C51.1076 310.364 51.8609 310.268 52.6173 310.267C54.0039 310.159 55.9315 310.08 58.0558 310.09C60.18 310.1 62.1076 310.168 63.4943 310.277C64.25 310.279 65.0027 310.372 65.7365 310.552Z" fill="#263238"/>
<path d="M123.556 312.195C120.892 312.454 118.215 312.539 115.541 312.45C112.863 312.539 110.182 312.454 107.516 312.195C110.183 311.941 112.863 311.856 115.541 311.939C118.215 311.856 120.892 311.942 123.556 312.195Z" fill="#263238"/>
<path d="M122.897 312.322C122.897 312.322 126.831 349.035 115.58 352.644C104.329 356.253 82.1426 339.161 82.1426 339.161L88.535 326.218C88.535 326.218 103.287 336.466 106.473 334.155C109.66 331.844 107.998 312.322 107.998 312.322H122.897Z" fill="#B78876"/>
<path d="M50.7316 310.552C50.7316 310.552 46.7289 346.891 57.9698 350.51C69.2106 354.129 91.4072 337.017 91.4072 337.017L85.0049 324.075C85.0049 324.075 70.1646 333.565 67.0864 331.165C65.3063 329.769 65.2572 310.739 65.2572 310.739C60.0252 310.513 55.1768 310.287 50.7316 310.552Z" fill="#B78876"/>
<path d="M115.894 318.125L108.429 354.709C108.429 354.709 62.5612 354.355 62.0891 354.217C61.6171 354.08 57.1719 318.125 57.1719 318.125H115.894Z" fill="#263238"/>
<path d="M82.9478 336.663C82.9103 337.214 83.0394 337.763 83.3183 338.24C83.5972 338.717 84.013 339.099 84.5117 339.336C85.0104 339.573 85.569 339.655 86.1149 339.571C86.6607 339.487 87.1687 339.24 87.5727 338.864C87.9767 338.487 88.2581 337.998 88.3804 337.459C88.5027 336.921 88.4602 336.358 88.2584 335.844C88.0566 335.329 87.7049 334.888 87.2489 334.576C86.7929 334.265 86.2537 334.097 85.7014 334.096C84.9968 334.075 84.3123 334.332 83.7966 334.813C83.281 335.294 82.9759 335.958 82.9478 336.663Z" fill="white"/>
<path d="M92.5857 256.393C93.0011 256.136 93.4737 255.987 93.9611 255.957C94.4486 255.928 94.9357 256.021 95.3787 256.226C95.9445 256.682 96.3169 257.336 96.4212 258.055C96.5531 258.638 96.5462 259.243 96.401 259.822C96.2558 260.401 95.9763 260.938 95.5852 261.389C95.1775 261.824 94.6322 262.106 94.0411 262.187C93.4501 262.267 92.8493 262.142 92.3398 261.832" fill="#B78876"/>
<path d="M93.7658 260.828C93.7658 260.75 94.0804 260.7 94.4443 260.425C94.6845 260.27 94.8787 260.052 95.0066 259.797C95.1346 259.541 95.1917 259.255 95.1721 258.97C95.144 258.688 95.0432 258.418 94.8794 258.187C94.7156 257.956 94.4945 257.771 94.2378 257.652C93.8248 257.455 93.5101 257.465 93.5002 257.386C93.4904 257.308 93.8149 257.16 94.3656 257.298C94.7253 257.404 95.0447 257.616 95.2829 257.906C95.521 258.196 95.667 258.55 95.7019 258.924C95.7368 259.297 95.6591 259.673 95.4788 260.002C95.2985 260.33 95.0238 260.598 94.6902 260.769C94.1198 260.986 93.7658 260.936 93.7658 260.828Z" fill="#A36957"/>
</svg>
