<svg width="452" height="280" viewBox="0 0 452 280" fill="none" xmlns="http://www.w3.org/2000/svg">
<path d="M451.673 268.076V275.827L361.184 276.661L360.219 276.679L325.826 276.995L325.004 277.007L314.551 277.096H314.241L250.52 277.687L145.919 278.658H145.83L119.234 278.909L118.949 278.915L0.773438 280V271.057L28.5601 254.364L84.312 253.899L85.5033 253.893L85.8964 253.887L87.0877 253.87L113.856 253.649L115.053 253.643L115.434 253.637L116.626 253.631L125.209 253.56L125.435 253.554L146.61 253.375H146.783L312.014 251.98L316.058 251.95H316.463L319.548 251.92L341.974 251.735L343.166 251.717L344.267 251.705H344.839L351.814 251.652L353.196 251.634L355.049 251.622L360.856 251.568L370.071 251.491L371.262 251.479L373.335 251.467H373.722L418.222 251.085L451.673 268.076Z" fill="#65617D"/>
<path opacity="0.2" d="M451.673 268.076V275.827L361.184 276.661L360.219 276.679L325.826 276.995L325.004 277.007L314.551 277.096H314.241L250.52 277.687L145.919 278.658H145.83L119.234 278.909L118.949 278.915L0.773438 280V271.057L28.5601 254.364L84.312 253.899L85.5033 253.893L85.8964 253.887L87.0877 253.87L113.856 253.649L115.053 253.643L115.434 253.637L116.626 253.631L125.209 253.56L125.435 253.554L146.61 253.375H146.783L312.014 251.98L316.058 251.95H316.463L319.548 251.92L341.974 251.735L343.166 251.717L344.267 251.705H344.839L351.814 251.652L353.196 251.634L355.049 251.622L360.856 251.568L370.071 251.491L371.262 251.479L373.335 251.467H373.722L418.222 251.085L451.673 268.076Z" fill="black"/>
<path d="M113.944 238.273V252.874C113.944 253.565 113.749 254.243 113.38 254.827C113.011 255.412 112.483 255.88 111.859 256.176C111.395 256.402 110.887 256.524 110.37 256.534L89.5823 256.975C89.0272 256.989 88.4765 256.872 87.9741 256.635C87.339 256.344 86.8009 255.876 86.4239 255.288C86.0469 254.699 85.8469 254.014 85.8477 253.315V238.273H113.944Z" fill="#3F3D56"/>
<path opacity="0.1" d="M113.944 238.273V252.874C113.944 253.565 113.749 254.243 113.38 254.827C113.011 255.412 112.483 255.88 111.859 256.176C111.395 256.402 110.887 256.524 110.37 256.534L89.5823 256.975C89.0272 256.989 88.4765 256.872 87.9741 256.635C87.339 256.344 86.8009 255.876 86.4239 255.288C86.0469 254.699 85.8469 254.014 85.8477 253.315V238.273H113.944Z" fill="black"/>
<path d="M115.135 238.273V252.874C115.136 253.565 114.94 254.243 114.571 254.827C114.202 255.412 113.675 255.88 113.051 256.176C112.586 256.402 112.078 256.524 111.562 256.534L90.7737 256.975C90.2186 256.989 89.6679 256.872 89.1655 256.635C88.5304 256.344 87.9923 255.876 87.6153 255.288C87.2384 254.699 87.0383 254.014 87.0391 253.315V238.273H115.135Z" fill="#3F3D56"/>
<path d="M371.26 238.273H343.164V257.053H371.26V238.273Z" fill="#3F3D56"/>
<path opacity="0.1" d="M371.26 238.273H343.164V257.053H371.26V238.273Z" fill="black"/>
<path d="M370.073 238.273H341.977V257.053H370.073V238.273Z" fill="#3F3D56"/>
<path opacity="0.1" d="M74.9305 108.404V111.82L63.6133 111.528V108.404H74.9305Z" fill="black"/>
<path d="M74.9344 108.41H63.6172V142.785H74.9344V108.41Z" fill="#3F3D56"/>
<path d="M149.422 12.1707L135.823 109.943C135.737 110.567 135.424 111.138 134.943 111.546C134.463 111.954 133.85 112.17 133.22 112.154L24.337 109.328L22.2701 109.275C21.9102 109.266 21.5562 109.182 21.2311 109.027C20.906 108.873 20.6171 108.651 20.3833 108.377C20.1495 108.103 19.976 107.783 19.8742 107.437C19.7723 107.092 19.7444 106.729 19.7922 106.371L35.0585 4.02105C35.1569 3.38707 35.4893 2.81305 35.9899 2.41239C36.4906 2.01172 37.1232 1.81354 37.7627 1.85695L147.039 9.26137C147.392 9.28182 147.736 9.3752 148.051 9.5356C148.365 9.69601 148.643 9.91997 148.867 10.1933C149.091 10.4667 149.256 10.7836 149.351 11.1239C149.447 11.4642 149.471 11.8207 149.422 12.1707Z" fill="#65617D"/>
<path d="M42.3653 9.0459L30.8516 99.2643L130.919 102.442L143.225 15.4011L42.3653 9.0459Z" fill="#1EF0D5"/>
<path d="M285.395 7.65137H169.835C168.082 7.65137 166.66 9.07402 166.66 10.829V107.808C166.66 109.563 168.082 110.985 169.835 110.985H285.395C287.148 110.985 288.57 109.563 288.57 107.808V10.829C288.57 9.07402 287.148 7.65137 285.395 7.65137Z" fill="#65617D"/>
<path d="M283.199 14.6089H172.41V100.654H283.199V14.6089Z" fill="#1EF0D5"/>
<path opacity="0.1" d="M379.501 106.615V108.875L368.184 109.107V106.615H379.501Z" fill="black"/>
<path d="M379.497 106.621H368.18V142.987H379.497V106.621Z" fill="#3F3D56"/>
<path d="M430.564 104.708C430.58 104.955 430.546 105.203 430.464 105.436C430.382 105.67 430.254 105.884 430.087 106.067C429.92 106.25 429.718 106.396 429.493 106.499C429.268 106.601 429.024 106.657 428.777 106.663L317.273 108.97C316.81 108.98 316.36 108.814 316.014 108.505C315.669 108.197 315.452 107.769 315.409 107.307L305.825 7.57985C305.801 7.33243 305.828 7.08279 305.903 6.84603C305.979 6.60927 306.102 6.39033 306.264 6.20248C306.427 6.01463 306.626 5.86177 306.849 5.75319C307.073 5.6446 307.316 5.58254 307.564 5.57076L418.222 0.0621577L419.413 0.00253713C419.887 -0.0224347 420.352 0.137697 420.71 0.449137C421.067 0.760577 421.29 1.19898 421.331 1.67182L430.564 104.708Z" fill="#65617D"/>
<path d="M312.188 11.431L413.25 6.45898L421.785 97.0768L321.521 99.4615L312.188 11.431Z" fill="#1EF0D5"/>
<path opacity="0.1" d="M430.564 104.708C430.58 104.955 430.547 105.203 430.465 105.436C430.383 105.67 430.254 105.884 430.087 106.067C429.92 106.249 429.718 106.396 429.493 106.499C429.268 106.601 429.025 106.657 428.777 106.663L418.223 0.0621577L419.414 0.00253713C419.887 -0.0224347 420.352 0.137697 420.71 0.449137C421.068 0.760577 421.291 1.19898 421.332 1.67182L430.564 104.708Z" fill="black"/>
<path opacity="0.1" d="M37.7806 1.85082L24.337 109.328L22.2701 109.275C21.9102 109.266 21.5562 109.182 21.2311 109.027C20.906 108.872 20.6171 108.651 20.3833 108.377C20.1495 108.103 19.976 107.783 19.8742 107.437C19.7723 107.092 19.7444 106.728 19.7922 106.371L35.0585 4.02089C35.1557 3.38252 35.4901 2.80441 35.9948 2.40209C36.4994 1.99978 37.1372 1.8029 37.7806 1.85082Z" fill="black"/>
<path opacity="0.1" d="M74.9305 132.603H63.6133V142.786H74.9305V132.603Z" fill="black"/>
<path opacity="0.1" d="M115.135 238.268V241.231L87.0391 241.982V238.268H115.135Z" fill="black"/>
<path d="M164.725 136.15V236.426C164.718 237.038 164.476 237.624 164.049 238.062C163.622 238.5 163.043 238.757 162.432 238.78L48.2771 241.821H48.2473C47.6257 241.813 47.0318 241.563 46.5922 241.123C46.1526 240.683 45.9023 240.088 45.8945 239.466V136.15C45.9023 135.528 46.1526 134.933 46.5922 134.493C47.0318 134.053 47.6257 133.803 48.2473 133.795H162.372C162.994 133.803 163.588 134.053 164.027 134.493C164.467 134.933 164.717 135.528 164.725 136.15Z" fill="#65617D"/>
<path opacity="0.1" d="M48.2771 133.795V241.821H48.2473C47.6257 241.813 47.0318 241.563 46.5922 241.123C46.1526 240.683 45.9023 240.088 45.8945 239.466V136.15C45.9023 135.528 46.1526 134.933 46.5922 134.493C47.0318 134.053 47.6257 133.803 48.2473 133.795H48.2771Z" fill="black"/>
<path d="M53.4883 140.198H159.214V228.58L53.4883 230.965V140.198Z" fill="#92E3A9"/>
<path opacity="0.1" d="M379.501 132.603H368.184V142.988H379.501V132.603Z" fill="black"/>
<path opacity="0.1" d="M370.073 238.268V242.089L341.977 241.338V238.268H370.073Z" fill="black"/>
<path d="M407.147 136.15V239.466C407.139 240.093 406.885 240.692 406.439 241.133C405.993 241.574 405.391 241.821 404.764 241.821L290.586 238.78C289.975 238.757 289.396 238.5 288.969 238.062C288.542 237.624 288.3 237.038 288.293 236.426V136.15C288.301 135.528 288.551 134.933 288.991 134.493C289.43 134.053 290.024 133.803 290.646 133.795H404.77C405.396 133.796 405.996 134.044 406.441 134.485C406.886 134.926 407.139 135.524 407.147 136.15Z" fill="#65617D"/>
<path opacity="0.1" d="M407.148 136.15V239.466C407.14 240.093 406.886 240.692 406.44 241.133C405.994 241.574 405.392 241.821 404.766 241.821V133.795C405.392 133.795 405.994 134.042 406.44 134.483C406.886 134.924 407.14 135.523 407.148 136.15Z" fill="black"/>
<path d="M399.554 140.198H293.828V228.58L399.554 230.965V140.198Z" fill="#92E3A9"/>
<path d="M285.338 136.15V236.426C285.331 237.038 285.089 237.624 284.662 238.062C284.235 238.5 283.656 238.757 283.045 238.78L168.89 241.821C168.264 241.821 167.662 241.574 167.216 241.133C166.77 240.692 166.516 240.093 166.508 239.466V136.15C166.516 135.528 166.766 134.933 167.205 134.493C167.645 134.053 168.239 133.803 168.861 133.795H282.985C283.607 133.803 284.201 134.053 284.64 134.493C285.08 134.933 285.33 135.528 285.338 136.15Z" fill="#65617D"/>
<path d="M174.105 140.198H279.832V228.58L174.105 230.965V140.198Z" fill="#92E3A9"/>
<path opacity="0.1" d="M451.673 268.077V275.827L361.184 276.661L360.219 276.679L325.826 276.995L325.004 277.007L314.551 277.097H314.241L250.52 277.687L145.919 278.659H145.83L119.234 278.909L118.949 278.915L0.773438 280V271.058L121.397 270.265H121.683L146.098 270.098H146.211L314.825 268.983H314.998L315.099 268.977H315.379L318.232 268.959H319.102L363.471 268.661L366.092 268.649L366.675 268.643L451.673 268.077Z" fill="black"/>
<path d="M227.809 142.785C244.694 142.785 258.383 129.085 258.383 112.184C258.383 95.2832 244.694 81.5825 227.809 81.5825C210.923 81.5825 197.234 95.2832 197.234 112.184C197.234 129.085 210.923 142.785 227.809 142.785Z" fill="#FBBEBE"/>
<path d="M258.387 174.782C258.387 174.782 199.121 181.936 204.779 174.782C206.828 172.195 207.394 164.528 207.281 155.794C207.245 153.141 207.15 150.393 207.013 147.656C206.358 134.541 204.779 121.723 204.779 121.723C204.779 121.723 256.6 97.2799 250.644 116.655C248.261 124.483 249.041 135.477 250.852 145.796C251.382 148.807 251.996 151.758 252.639 154.56C254.209 161.394 256.127 168.144 258.387 174.782Z" fill="#FBBEBE"/>
<path opacity="0.1" d="M258.387 174.782C258.387 174.782 199.121 181.936 204.779 174.782C206.828 172.195 207.394 164.528 207.281 155.794C216.317 151.931 227.813 154.81 227.813 154.81C239.916 152.396 247.677 152.867 252.639 154.56C254.209 161.394 256.127 168.144 258.387 174.782Z" fill="black"/>
<path d="M145.891 279.332V278.831L250.497 277.693L314.231 277.097H314.409L314.344 277.979L314.433 277.097H314.546V276.995L315.362 268.977L315.672 265.942L315.768 264.994L315.851 264.201L319.532 251.914L323.213 239.645L326.31 229.314L331.04 213.527C331.04 213.527 328.359 207.267 326.87 205.479C325.381 203.69 323.892 191.469 323.892 191.469C323.892 191.469 311.181 179.349 305.624 177.954C303.295 177.357 298.696 176.564 293.812 175.569C291.984 175.199 290.107 174.806 288.303 174.377C287.284 174.144 286.283 173.9 285.324 173.655C283.458 173.189 281.619 172.619 279.815 171.95C278.869 171.606 277.969 171.148 277.134 170.585C272.756 167.372 261.785 167.008 261.362 167.008C261.361 166.994 261.361 166.98 261.362 166.966V166.912C261.377 166.662 261.377 166.411 261.362 166.161C261.362 165.923 261.362 165.643 261.308 165.327C261.308 165.231 261.308 165.13 261.266 165.029C261.237 164.814 261.201 164.587 261.147 164.349C261.129 164.242 261.105 164.137 261.076 164.033C260.903 163.315 260.654 162.617 260.331 161.952C260.29 161.857 260.236 161.756 260.188 161.66C259.896 161.11 259.558 160.585 259.176 160.092C259.098 159.991 259.015 159.884 258.926 159.782C258.438 159.206 257.895 158.679 257.305 158.208C257.145 158.083 256.978 157.952 256.805 157.833C256.709 157.755 256.607 157.683 256.501 157.618L255.971 157.272L255.477 156.986C255.042 156.748 254.583 156.515 254.083 156.295C253.928 156.223 253.761 156.158 253.595 156.092C253.428 156.026 253.166 155.925 252.945 155.842H252.91L252.463 155.663C252.123 155.55 251.778 155.448 251.415 155.347L250.861 155.204L250.265 155.067L249.669 154.941C249.074 154.822 248.436 154.715 247.769 154.631L247.09 154.548L246.393 154.476L245.673 154.417L244.648 154.357L243.457 154.315C238.203 154.315 232.964 154.873 227.827 155.979C224.259 155.184 220.604 154.847 216.951 154.977H216.433L215.837 155.013H215.456L214.687 155.085C214.431 155.085 214.169 155.138 213.913 155.174C213.657 155.21 213.389 155.239 213.133 155.281L212.74 155.347C212.352 155.412 211.959 155.484 211.548 155.567C211.417 155.591 211.286 155.621 211.155 155.657C210.637 155.77 210.119 155.907 209.606 156.062C209.35 156.134 209.094 156.217 208.838 156.307C208.707 156.342 208.582 156.39 208.457 156.438L208.076 156.575L207.7 156.724L207.254 156.903C207.027 156.998 206.807 157.1 206.587 157.207C206.462 157.261 206.336 157.32 206.217 157.386C206.098 157.451 205.973 157.505 205.86 157.571C204.513 158.267 203.268 159.146 202.161 160.182L201.857 160.474L201.559 160.778C201.458 160.879 201.363 160.987 201.268 161.094C200.879 161.519 200.517 161.967 200.183 162.435C200.088 162.56 199.999 162.686 199.909 162.817C199.531 163.375 199.189 163.956 198.885 164.558C198.808 164.701 198.736 164.85 198.665 164.993C198.179 166 197.78 167.047 197.473 168.123C197.362 168.52 197.261 168.918 197.17 169.315C197.17 169.315 184.56 174.883 174.1 178.913C171.319 179.987 168.698 180.958 166.506 181.692C165.869 181.906 165.273 182.103 164.719 182.288C163.517 182.723 162.267 183.011 160.996 183.146C160.397 183.156 159.8 183.212 159.209 183.313C154.403 184.094 146.165 187.486 145.265 190.89C145.192 191.162 145.172 191.446 145.206 191.725C145.206 191.725 145.206 191.767 145.206 191.791C145.801 195.964 141.632 195.368 141.632 195.368C141.632 195.368 140.143 206.397 138.058 209.378C136.551 211.524 135.521 216.311 135.39 219.924C135.315 221.05 135.403 222.18 135.652 223.28C135.652 223.31 135.652 223.34 135.652 223.364C135.89 224.163 135.318 226.345 134.347 229.141C133.293 232.211 131.756 236.026 130.279 239.627C128.051 245.064 125.955 250.001 125.824 251.086C125.77 251.569 125.615 252.433 125.401 253.548C124.531 258.091 122.601 266.741 121.648 270.241C120.939 272.852 119.909 276.429 119.2 278.885C119.2 278.957 119.158 279.028 119.141 279.094L145.843 278.831V279.332H145.927H145.891Z" fill="#CDF4DE"/>
<path opacity="0.1" d="M261.403 167.378C244.13 170.561 211.608 169.876 197.551 169.393C202.703 150.911 227.827 157.195 227.827 157.195C258.926 150.983 261.308 163.872 261.403 167.378Z" fill="black"/>
<path d="M353.094 247.663C353.094 247.663 373.441 244.533 373.84 253.476C374.239 262.418 363.464 268.666 363.464 268.666L353.094 247.663Z" fill="#FBBEBE"/>
<path opacity="0.1" d="M250.851 145.796C249.976 146.188 249.081 146.534 248.17 146.834C241.749 149.051 235.275 151.287 228.514 152.098C221.754 152.909 214.66 152.193 208.763 148.819C208.144 148.469 207.547 148.08 206.976 147.656C206.321 134.541 204.742 121.723 204.742 121.723C204.742 121.723 256.563 97.2799 250.606 116.655C248.236 124.483 249.04 135.477 250.851 145.796Z" fill="black"/>
<path d="M219.42 64.3529C218.57 64.5776 217.679 64.6003 216.818 64.4191C215.958 64.238 215.152 63.858 214.464 63.3096L215.703 65.0325C214.973 65.1168 214.233 65.0405 213.536 64.8088C212.838 64.5771 212.199 64.1956 211.665 63.6911C211.552 65.2335 211.616 66.7836 211.855 68.3114C209.805 68.4104 207.787 67.7765 206.161 66.5229C206.129 67.0608 206.263 67.5954 206.544 68.0548C206.825 68.5143 207.24 68.8764 207.733 69.0924C205.674 68.8462 203.596 69.3583 201.886 70.5332C200.176 71.7081 198.952 73.4654 198.441 75.4774L201.551 75.7636C199.107 76.2859 196.914 77.6252 195.332 79.5612C194.379 80.7535 193.652 82.2797 194.069 83.7344C194.486 85.189 196.5 86.119 197.595 85.0817C196.036 86.9441 194.903 89.1253 194.276 91.4724C193.648 93.8195 193.541 96.2755 193.962 98.6684C194.245 99.688 194.338 100.751 194.236 101.804C194.039 102.788 193.42 103.64 193.11 104.6C192.515 106.341 193.081 108.231 193.611 109.966L196.404 119.159C197.417 122.479 198.423 125.806 199.746 129.019C200.682 131.051 201.478 133.145 202.128 135.285C202.879 138.171 202.909 141.33 204.511 143.852C205.609 145.439 207.077 146.734 208.788 147.626C214.678 151 221.796 151.716 228.539 150.905C235.282 150.094 241.75 147.858 248.165 145.641C249.59 145.211 250.958 144.61 252.24 143.852C256.677 140.943 257.666 134.993 258.494 129.753C259.417 123.91 260.65 118.08 262.836 112.583C264.134 109.31 265.814 105.989 265.528 102.484C265.165 97.8278 261.484 94.0541 260.573 89.4755C260.267 87.945 260.282 86.3679 260.614 84.8432C260.897 83.9348 261.055 82.9922 261.085 82.0412C260.984 80.1216 259.411 78.6431 257.934 77.409C254.729 74.7302 251.422 72.1985 248.011 69.8138C247.838 68.6214 249.458 68.1087 250.191 67.1668C251.227 65.8373 250.155 63.7269 248.582 63.1069C247.01 62.4869 245.247 62.8922 243.609 63.3036C243.715 62.4644 243.549 61.6132 243.133 60.8765C242.718 60.1398 242.076 59.557 241.303 59.2147C240.53 58.8724 239.667 58.789 238.843 58.9768C238.019 59.1647 237.278 59.6137 236.729 60.2572C236.294 59.2588 235.599 58.3957 234.717 57.7581C233.835 57.1205 232.797 56.7317 231.714 56.6325C227.765 56.3225 227.687 59.345 225.162 61.0084C222.636 62.6717 220.551 60.4778 218.61 58.88C218.253 59.7832 218.14 60.7644 218.282 61.7251C218.424 62.6858 218.817 63.5921 219.42 64.3529Z" fill="#3F3D56"/>
<path d="M368.181 265.548C368.181 265.548 367.651 266.812 366.674 268.643C365.196 271.458 363.397 274.093 361.313 276.494L361.152 276.667H360.187L325.795 276.983H324.973L324.872 276.864L318.201 268.941L315.687 265.954L315.586 265.829L315.371 265.578L315.252 265.435L315.097 265.25L310.207 259.444L311.994 251.992L315.038 239.436L315.115 239.132L315.711 236.748L316.134 234.959L317.551 229.128L322.412 209.067L331.049 213.539L340.156 229.635L345.046 238.28H347.726C348.233 238.28 349.394 239.257 350.562 240.384C350.979 240.784 351.396 241.207 351.753 241.576C352.813 242.673 353.653 243.615 353.653 243.615C353.653 243.615 357.995 243.711 359.163 247.133C359.223 247.298 359.273 247.468 359.312 247.64C359.699 248.985 360.203 250.293 360.819 251.55C361.587 253.226 362.552 255.127 363.529 257.029C365.346 260.517 367.192 263.837 367.871 265.042L367.954 265.191L368.181 265.548Z" fill="#CDF4DE"/>
<path opacity="0.1" d="M317.015 238.631L316.956 239.484V239.543L316.854 240.914L316.062 251.95L315.103 265.244L314.829 268.988L314.234 277.001V277.102L250.5 277.698L145.912 278.831V279.332H145.828V278.831V278.664L146.096 270.103L146.608 253.374L147.049 239.192L147.091 237.779C147.117 236.926 147.316 236.087 147.677 235.314C148.038 234.541 148.552 233.85 149.189 233.282C149.825 232.715 150.571 232.283 151.38 232.014C152.189 231.745 153.044 231.643 153.893 231.716C156.705 231.954 160.356 232.246 164.722 232.556L166.509 232.687C191.722 234.44 238.319 236.706 285.339 233.88C286.328 233.826 287.323 233.766 288.317 233.695C295.608 233.236 302.893 232.646 310.106 231.906C311.018 231.811 311.939 231.916 312.806 232.216C313.673 232.515 314.463 233.001 315.122 233.64C315.781 234.278 316.292 235.053 316.619 235.91C316.946 236.767 317.081 237.686 317.015 238.601V238.631Z" fill="black"/>
<path d="M145.895 279.332V278.831L250.501 277.692L314.234 277.096H314.413V276.995L315.009 268.982L315.265 265.405L316.242 251.926L317.01 241.255V240.992C317.046 240.501 317.024 240.006 316.945 239.52C316.948 239.5 316.948 239.48 316.945 239.46C316.781 238.454 316.372 237.504 315.753 236.694C315.097 235.852 314.238 235.191 313.256 234.774C312.275 234.357 311.203 234.197 310.142 234.309C302.929 235.048 295.645 235.639 288.354 236.098C287.359 236.169 286.364 236.229 285.376 236.283C238.356 239.079 191.759 236.813 166.545 235.09L164.758 234.959C160.392 234.649 156.741 234.363 153.93 234.118C152.383 233.988 150.843 234.435 149.607 235.374C148.37 236.314 147.525 237.678 147.235 239.204C147.175 239.527 147.139 239.853 147.128 240.182L146.722 253.393L146.169 270.127L145.906 278.688V278.855V279.356L145.895 279.332Z" fill="#3F3D56"/>
<path opacity="0.1" d="M317.196 242.811L316.464 251.95L315.374 265.572L315.1 268.983L314.504 276.619L314.468 277.001V277.102L314.379 277.985L314.445 277.102H314.272L250.538 277.699L145.914 278.831V278.664L146.206 270.103L146.802 253.375L147.183 242.256C147.202 241.624 147.378 241.006 147.696 240.459C148.015 239.913 148.465 239.454 149.005 239.126C149.68 238.713 150.469 238.525 151.257 238.59C152.508 238.691 154.045 238.81 155.837 238.942C158.75 239.156 162.342 239.407 166.523 239.669C174.267 240.158 183.981 240.682 195.114 241.112C226.087 242.304 267.901 242.703 307.619 239.222C309.406 239.067 311.252 238.894 313.057 238.721C313.771 238.65 314.491 238.786 315.13 239.114C315.311 239.205 315.482 239.312 315.642 239.436C316.16 239.812 316.571 240.318 316.833 240.903C316.894 241.019 316.944 241.141 316.982 241.267C317.161 241.761 317.234 242.287 317.196 242.811Z" fill="black"/>
<path opacity="0.1" d="M115.135 250.972V252.874C115.136 253.565 114.94 254.243 114.571 254.828C114.202 255.412 113.675 255.88 113.051 256.177L89.1655 256.636C88.5304 256.344 87.9923 255.877 87.6153 255.288C87.2384 254.699 87.0383 254.014 87.0391 253.315V251.527L115.135 250.972Z" fill="black"/>
<path d="M115.435 257.298L84.3125 257.894V252.725L115.435 252.129V257.298Z" fill="#3F3D56"/>
<path opacity="0.1" d="M115.435 257.298L84.3125 257.894V252.725L115.435 252.129V257.298Z" fill="black"/>
<path d="M116.626 257.298L85.5039 257.894V252.725L116.626 252.129V257.298Z" fill="#3F3D56"/>
<g opacity="0.1">
<path opacity="0.1" d="M219.662 62.3974C219.08 61.6406 218.694 60.752 218.536 59.8101C218.393 60.7309 218.479 61.6729 218.787 62.5524C219.082 62.5251 219.375 62.4733 219.662 62.3974Z" fill="black"/>
<path opacity="0.1" d="M212.099 66.3562C211.987 65.6254 211.913 64.889 211.879 64.1504C211.879 64.8837 211.879 65.6229 211.879 66.3622L212.099 66.3562Z" fill="black"/>
<path opacity="0.1" d="M260.643 86.2505C260.676 85.7194 260.747 85.1913 260.857 84.6707C261.139 83.7638 261.299 82.8236 261.334 81.8746C261.32 81.6616 261.288 81.4502 261.238 81.2427C261.137 81.7912 260.976 82.3396 260.857 82.8821C260.619 83.9881 260.547 85.1233 260.643 86.2505Z" fill="black"/>
<path opacity="0.1" d="M248.255 67.8287L248.904 68.2997C249.452 67.9034 249.964 67.4606 250.435 66.9762C250.659 66.6659 250.798 66.3022 250.838 65.9214C250.878 65.5406 250.817 65.1561 250.661 64.8062C250.602 64.9422 250.526 65.0704 250.435 65.1877C249.702 66.1296 248.082 66.6483 248.255 67.8287Z" fill="black"/>
<path opacity="0.1" d="M199.311 73.5635C199.094 73.9983 198.92 74.4536 198.793 74.9228C199.725 74.4022 200.728 74.0225 201.771 73.796L199.311 73.5635Z" fill="black"/>
<path opacity="0.1" d="M207.523 67.0775C207.132 66.8618 206.758 66.6167 206.404 66.3442C206.389 66.5801 206.407 66.8169 206.457 67.0477C206.813 67.0307 207.169 67.0407 207.523 67.0775Z" fill="black"/>
<path opacity="0.1" d="M265.759 102.204C265.515 105.096 264.169 107.88 263.079 110.622C260.893 116.119 259.66 121.949 258.737 127.798C257.909 133.038 256.95 138.988 252.482 141.891C251.206 142.654 249.839 143.255 248.414 143.68C241.993 145.903 235.519 148.133 228.758 148.944C221.998 149.755 214.903 149.045 209.007 145.671C207.297 144.778 205.829 143.483 204.73 141.897C203.14 139.375 203.11 136.216 202.347 133.33C201.697 131.188 200.901 129.092 199.965 127.058C198.648 123.851 197.636 120.501 196.629 117.204C195.696 114.139 194.765 111.073 193.836 108.005C193.53 107.082 193.302 106.135 193.157 105.173C192.924 106.699 193.377 108.297 193.836 109.793C194.765 112.866 195.696 115.932 196.629 118.992C197.636 122.313 198.648 125.64 199.965 128.847C200.901 130.881 201.697 132.976 202.347 135.119C203.098 138.004 203.128 141.164 204.73 143.686C205.829 145.271 207.297 146.566 209.007 147.459C214.903 150.834 222.015 151.543 228.758 150.732C235.501 149.922 241.969 147.692 248.414 145.468C249.839 145.044 251.206 144.443 252.482 143.68C256.92 140.776 257.909 134.827 258.737 129.586C259.66 123.738 260.893 117.907 263.079 112.411C264.377 109.144 266.057 105.823 265.771 102.311C265.771 102.276 265.759 102.24 265.759 102.204Z" fill="black"/>
<path opacity="0.1" d="M194.468 99.8964C194.468 99.8964 194.468 99.8547 194.468 99.8309C194.575 98.7796 194.482 97.7175 194.194 96.701C194.075 96.0467 193.997 95.3857 193.962 94.7217C193.893 95.9824 193.971 97.2468 194.194 98.4895C194.289 98.9545 194.396 99.4255 194.468 99.8964Z" fill="black"/>
<path opacity="0.1" d="M196.284 85.3139C196.742 84.5436 197.262 83.8119 197.838 83.1259C196.748 84.1692 194.735 83.2392 194.312 81.7905C194.156 82.3765 194.156 82.9931 194.312 83.579C194.459 84.0165 194.718 84.4074 195.065 84.712C195.411 85.0167 195.832 85.2243 196.284 85.3139Z" fill="black"/>
</g>
<path opacity="0.1" d="M155.637 209.062C155.637 209.062 189.588 226.649 201.799 224.562L155.637 209.062Z" fill="black"/>
<path opacity="0.1" d="M224.734 201.907C224.734 201.907 257.792 212.638 268.812 214.129C279.831 215.619 224.734 201.907 224.734 201.907Z" fill="black"/>
<path d="M261.4 166.185C244.126 169.368 211.604 168.683 197.547 168.2C202.699 149.718 227.823 156.002 227.823 156.002C258.922 149.79 261.304 162.679 261.4 166.185Z" fill="#CDF4DE"/>
<path opacity="0.1" d="M345.05 238.273C345.05 238.273 346.938 245.129 345.05 251.091C343.162 257.053 345.05 238.273 345.05 238.273Z" fill="black"/>
<path opacity="0.1" d="M353.09 245.267C353.09 245.267 353.882 253.971 352.095 255.515C350.308 257.059 353.09 245.267 353.09 245.267Z" fill="black"/>
<path d="M56.1016 154.333L116.625 153.737" stroke="#CDF4DE" stroke-width="2" stroke-miterlimit="10"/>
<path d="M56.1016 161.767L116.625 161.177" stroke="#CDF4DE" stroke-width="2" stroke-miterlimit="10"/>
<path d="M56.1016 169.207L116.625 168.611" stroke="#CDF4DE" stroke-width="2" stroke-miterlimit="10"/>
</svg>
