<svg width="379" height="368" viewBox="0 0 379 368" fill="none" xmlns="http://www.w3.org/2000/svg">
<g clip-path="url(#clip0_248:14545)">
<path d="M356.565 101.569C353.017 95.174 349.08 89.002 344.777 83.0876C341.762 78.9382 338.576 74.9272 335.219 71.0547H335.211C329.137 64.0444 322.531 57.5121 315.453 51.516C314.004 50.2867 312.535 49.0826 311.047 47.9037C297.616 37.2282 282.721 28.5329 266.818 22.0835L266.959 45.3009L268.481 309.966H136.586L129.168 45.8002L129.721 22.9536C65.0563 50.1249 19.6524 114.009 19.6524 188.493C19.6404 203.866 21.6035 219.178 25.4938 234.052C27.137 240.34 29.1264 246.532 31.4528 252.601C32.2927 254.804 33.1788 256.987 34.1111 259.15C34.5604 260.203 35.0182 261.248 35.4927 262.288C36.1016 263.648 36.7357 265.003 37.3866 266.341C37.8906 267.394 38.4085 268.44 38.9404 269.48C39.6249 270.843 40.3318 272.196 41.0612 273.537C41.6239 274.59 42.2034 275.634 42.7913 276.675C52.2764 293.437 64.3885 308.572 78.6671 321.505C82.7364 325.192 86.9709 328.689 91.3705 331.993C122.501 355.364 160.386 368 199.325 368C238.265 368 276.15 355.364 307.28 331.993C309.674 330.198 312.019 328.342 314.315 326.426C315.839 325.159 317.338 323.868 318.812 322.553C319.203 322.205 319.593 321.857 319.98 321.505C333.144 309.582 344.473 295.782 353.6 280.552C356.952 274.968 359.992 269.203 362.705 263.283C363.423 261.722 364.118 260.147 364.792 258.559C367.891 251.274 370.498 243.791 372.594 236.158C372.918 234.979 373.23 233.796 373.531 232.609V232.605C373.581 232.399 373.636 232.189 373.686 231.984C373.997 230.734 374.295 229.475 374.581 228.216V228.212C375.505 224.155 376.284 220.049 376.92 215.894C377 215.361 377.079 214.828 377.155 214.295C377.184 214.102 377.214 213.909 377.235 213.716V213.712C377.688 210.503 378.056 207.269 378.339 204.012C378.776 198.898 378.996 193.725 378.999 188.493C379.046 158.083 371.325 128.164 356.565 101.569Z" fill="#F2F2F2"/>
<path d="M338.922 296.851C349.557 282.495 353.647 262.274 345.374 246.441C337.616 264.25 323.803 278.743 306.378 287.356C299.647 290.653 291.815 293.62 288.699 300.433C286.761 304.672 287.13 309.678 288.688 314.071C290.247 318.464 292.898 322.372 295.521 326.227L295.659 327.382C312.173 320.542 328.287 311.207 338.922 296.851Z" fill="#E6E6E6"/>
<path d="M345.023 246.568C344.546 261.343 339.422 275.593 330.378 287.293C328.475 289.847 326.182 292.085 323.582 293.924C320.992 295.635 317.99 296.621 314.889 296.781C312.001 296.988 309.022 296.865 306.235 297.77C304.814 298.254 303.513 299.033 302.415 300.055C301.317 301.077 300.448 302.319 299.865 303.7C298.321 307.104 298.094 310.859 297.999 314.538C297.895 318.624 297.85 322.869 295.921 326.583C295.688 327.033 296.4 327.369 296.634 326.92C299.99 320.458 297.81 312.902 299.81 306.109C300.744 302.94 302.638 300.032 305.806 298.762C308.575 297.651 311.647 297.775 314.573 297.591C317.601 297.479 320.555 296.629 323.177 295.114C325.863 293.413 328.238 291.267 330.203 288.769C334.715 283.215 338.326 276.988 340.902 270.314C343.885 262.713 345.544 254.659 345.808 246.499C345.824 245.994 345.039 246.066 345.023 246.568Z" fill="white"/>
<path d="M333.508 283.697C335.679 284.947 338.224 285.385 340.688 284.933C343.152 284.481 345.375 283.169 346.96 281.23C347.28 280.837 346.683 280.323 346.363 280.716C344.891 282.524 342.82 283.746 340.524 284.163C338.229 284.579 335.86 284.161 333.845 282.986C333.407 282.731 333.073 283.444 333.508 283.697Z" fill="white"/>
<path d="M316.367 296.868C314.993 291.939 315.528 286.674 317.867 282.122C318.1 281.671 317.387 281.335 317.155 281.785C314.73 286.527 314.184 292.007 315.625 297.134C315.763 297.622 316.504 297.354 316.367 296.868H316.367Z" fill="white"/>
<path d="M342.838 262.75C341.897 262.441 341.048 261.904 340.366 261.187C339.685 260.469 339.192 259.594 338.933 258.639C338.802 258.149 338.061 258.417 338.191 258.904C338.482 259.957 339.028 260.924 339.779 261.718C340.53 262.513 341.465 263.111 342.501 263.462C342.596 263.503 342.703 263.506 342.801 263.472C342.898 263.437 342.979 263.366 343.026 263.274C343.07 263.18 343.075 263.072 343.04 262.974C343.005 262.875 342.932 262.795 342.838 262.75Z" fill="white"/>
<path d="M286.175 233.841C286.249 234.149 286.322 234.457 286.391 234.771C287.356 238.921 287.982 243.142 288.263 247.393C288.29 247.722 288.312 248.055 288.329 248.383C288.896 258.633 287.554 268.898 284.37 278.658C283.099 282.54 281.535 286.321 279.69 289.966C277.142 295 273.979 300.256 273.266 305.678C273.185 306.242 273.139 306.812 273.129 307.382L294.237 327.461C294.308 327.482 294.375 327.509 294.446 327.531L295.252 328.371C295.36 328.189 295.469 327.999 295.577 327.818C295.64 327.713 295.699 327.603 295.762 327.498C295.803 327.427 295.843 327.355 295.884 327.293C295.898 327.27 295.911 327.246 295.92 327.227C295.961 327.165 295.992 327.103 296.028 327.045C296.637 325.982 297.24 324.914 297.836 323.839C297.84 323.834 297.84 323.834 297.84 323.824C302.361 315.622 306.236 306.97 308.673 298.005C308.746 297.735 308.824 297.461 308.888 297.182C309.964 293.135 310.707 289.007 311.11 284.839C311.323 282.556 311.421 280.264 311.402 277.971C311.343 272.047 310.351 266.17 308.463 260.554C304.698 249.359 297.391 239.491 286.975 234.235C286.709 234.1 286.446 233.97 286.175 233.841Z" fill="#E6E6E6"/>
<path d="M285.969 234.154C294.492 246.238 298.988 260.698 298.818 275.48C298.837 278.663 298.355 281.829 297.388 284.862C296.35 287.786 294.548 290.379 292.168 292.372C289.987 294.274 287.535 295.968 285.854 298.367C285.012 299.608 284.442 301.013 284.181 302.489C283.921 303.966 283.975 305.48 284.342 306.934C285.161 310.58 287.242 313.715 289.384 316.71C291.762 320.035 294.285 323.451 294.983 327.577C295.068 328.077 295.839 327.916 295.755 327.417C294.54 320.239 288.247 315.517 285.75 308.89C284.585 305.798 284.346 302.337 286.109 299.417C287.651 296.865 290.179 295.116 292.404 293.209C294.754 291.299 296.601 288.843 297.782 286.056C298.9 283.082 299.504 279.94 299.567 276.764C299.824 269.615 298.953 262.471 296.988 255.593C294.79 247.73 291.261 240.301 286.554 233.627C286.263 233.214 285.679 233.744 285.969 234.154Z" fill="white"/>
<path d="M299.153 270.724C301.64 270.416 303.935 269.235 305.631 267.391C307.326 265.548 308.31 263.163 308.407 260.662C308.425 260.156 307.639 260.104 307.621 260.611C307.535 262.94 306.618 265.162 305.035 266.875C303.453 268.588 301.311 269.68 298.994 269.953C298.49 270.013 298.653 270.783 299.153 270.724H299.153Z" fill="white"/>
<path d="M293.4 291.553C289.333 288.444 286.587 283.917 285.712 278.876C285.626 278.376 284.854 278.537 284.94 279.035C285.861 284.28 288.728 288.985 292.968 292.211C293.372 292.518 293.803 291.858 293.4 291.553V291.553Z" fill="white"/>
<path d="M293.975 248.387C293.038 248.706 292.036 248.788 291.06 248.625C290.083 248.462 289.162 248.059 288.38 247.453C287.98 247.141 287.55 247.801 287.947 248.111C288.815 248.777 289.832 249.22 290.911 249.403C291.99 249.585 293.097 249.501 294.135 249.157C294.236 249.133 294.323 249.072 294.38 248.985C294.437 248.899 294.459 248.794 294.441 248.692C294.419 248.59 294.358 248.501 294.271 248.444C294.184 248.387 294.078 248.366 293.975 248.387Z" fill="white"/>
<path d="M8.38782 216.446C-1.04392 201.274 -3.47548 180.787 6.05753 165.679C12.3416 184.058 24.9303 199.625 41.5963 209.624C48.0377 213.457 55.6015 217.051 58.153 224.094C59.7407 228.477 58.9655 233.436 57.0547 237.687C55.1438 241.939 52.1836 245.62 49.2557 249.248L49.024 250.389C33.1215 242.23 17.8196 231.618 8.38782 216.446Z" fill="#E6E6E6"/>
<path d="M6.39816 165.834C5.6712 180.599 9.61942 195.218 17.682 207.614C19.3703 210.313 21.4739 212.73 23.9154 214.775C26.3581 216.69 29.2697 217.917 32.3474 218.328C35.2095 218.768 38.1881 218.888 40.893 220.016C42.2691 220.614 43.5031 221.496 44.5141 222.603C45.5251 223.711 46.2902 225.02 46.7594 226.444C48.0209 229.962 47.942 233.723 47.7369 237.398C47.5092 241.478 47.2079 245.713 48.8283 249.571C49.0246 250.039 48.2871 250.316 48.0911 249.849C45.2719 243.136 48.0584 235.782 46.6176 228.85C45.9454 225.615 44.2932 222.563 41.2398 221.039C38.5697 219.708 35.4983 219.582 32.5965 219.161C29.5882 218.804 26.7131 217.716 24.2223 215.994C21.6845 214.08 19.4912 211.748 17.7363 209.099C13.6904 203.197 10.5984 196.697 8.57361 189.836C6.21922 182.019 5.22072 173.856 5.62131 165.702C5.6463 165.197 6.42301 165.333 6.39817 165.834L6.39816 165.834Z" fill="white"/>
<path d="M14.8497 203.775C12.5844 204.845 10.0124 205.074 7.59317 204.424C5.1739 203.773 3.06485 202.285 1.64267 200.224C1.35634 199.806 1.99294 199.342 2.27966 199.761C3.60045 201.682 5.56517 203.068 7.81923 203.669C10.0733 204.271 12.4682 204.047 14.5717 203.039C15.0291 202.82 15.3044 203.558 14.8497 203.775Z" fill="white"/>
<path d="M30.8675 218.295C32.6381 213.494 32.5324 208.202 30.5715 203.476C30.3768 203.007 31.1143 202.73 31.3087 203.198C33.3401 208.12 33.4389 213.627 31.5853 218.62C31.4083 219.095 30.6914 218.768 30.8675 218.295Z" fill="white"/>
<path d="M7.25829 182.14C8.22107 181.908 9.1113 181.442 9.84903 180.782C10.5868 180.122 11.1489 179.289 11.4849 178.359C11.6558 177.881 12.3726 178.209 12.2028 178.683C11.8267 179.71 11.2048 180.629 10.3913 181.359C9.57788 182.09 8.59764 182.611 7.53628 182.876C7.43833 182.909 7.33134 182.904 7.23706 182.862C7.14277 182.819 7.06826 182.742 7.02867 182.647C6.99236 182.549 6.9961 182.441 7.0391 182.346C7.08209 182.251 7.16087 182.177 7.25829 182.14Z" fill="white"/>
<path d="M66.0835 157.927C65.9853 158.229 65.8871 158.53 65.7928 158.837C64.4935 162.895 63.5263 167.051 62.9007 171.266C62.8472 171.591 62.7978 171.921 62.7537 172.247C61.3549 182.416 61.8581 192.757 64.2376 202.743C65.1882 206.716 66.4398 210.61 67.9818 214.393C70.1117 219.618 72.837 225.113 73.1071 230.575C73.1416 231.144 73.1409 231.715 73.1048 232.285L50.4328 250.583C50.3604 250.599 50.2919 250.62 50.2192 250.636L49.3474 251.408C49.2542 251.218 49.1617 251.019 49.0685 250.83C49.014 250.72 48.9645 250.606 48.91 250.497C48.8753 250.422 48.8408 250.347 48.8052 250.282C48.7935 250.258 48.7821 250.233 48.7746 250.213C48.739 250.148 48.7129 250.083 48.6815 250.023C48.1611 248.915 47.6476 247.8 47.1409 246.681C47.1368 246.675 47.1368 246.675 47.1377 246.666C43.2993 238.123 40.1411 229.185 38.4411 220.053C38.3901 219.778 38.3346 219.498 38.2939 219.215C37.5505 215.094 37.1454 210.919 37.0828 206.733C37.0559 204.44 37.1452 202.147 37.3503 199.864C37.8916 193.964 39.3584 188.186 41.6969 182.742C46.3602 171.89 54.4456 162.648 65.2544 158.255C65.531 158.143 65.8028 158.034 66.0835 157.927Z" fill="#E6E6E6"/>
<path d="M66.2681 158.256C56.7897 169.608 51.1324 183.655 50.0999 198.402C49.8212 201.573 50.0445 204.768 50.7616 207.869C51.5579 210.868 53.1433 213.598 55.3532 215.778C57.3728 217.851 59.679 219.738 61.159 222.266C61.8974 223.571 62.3512 225.017 62.4908 226.51C62.6305 228.003 62.4527 229.508 61.9692 230.927C60.8565 234.495 58.5271 237.45 56.1486 240.261C53.5077 243.382 50.7152 246.582 49.6839 250.638C49.5589 251.129 48.8031 250.906 48.9279 250.416C50.7222 243.36 57.3789 239.164 60.4063 232.763C61.819 229.775 62.3391 226.345 60.819 223.292C59.4897 220.622 57.1132 218.674 55.0501 216.593C52.8631 214.498 51.2227 211.901 50.2722 209.027C49.3993 205.972 49.0532 202.791 49.2486 199.62C49.5745 192.475 51.0229 185.425 53.5408 178.729C56.372 171.07 60.4936 163.953 65.7273 157.683C66.0514 157.295 66.59 157.87 66.2681 158.256V158.256Z" fill="white"/>
<path d="M50.1528 193.634C47.6998 193.125 45.5077 191.762 43.9681 189.787C42.4285 187.812 41.6415 185.355 41.7478 182.855C41.7531 182.753 41.7977 182.657 41.8724 182.587C41.9471 182.517 42.0459 182.479 42.1481 182.481C42.2502 182.483 42.3478 182.524 42.4201 182.596C42.4924 182.668 42.5339 182.765 42.5358 182.868C42.4325 185.196 43.1658 187.485 44.6033 189.321C46.0407 191.156 48.0877 192.418 50.3747 192.879C50.8716 192.98 50.6468 193.734 50.1528 193.634Z" fill="white"/>
<path d="M54.1872 214.861C58.4943 212.093 61.5988 207.804 62.8815 202.851C63.0082 202.36 63.7641 202.582 63.6375 203.072C62.293 208.225 59.0533 212.681 54.5649 215.552C54.1369 215.825 53.7616 215.133 54.1872 214.861V214.861Z" fill="white"/>
<path d="M57.127 171.791C58.035 172.186 59.0269 172.349 60.0136 172.266C61.0003 172.182 61.9509 171.856 62.78 171.315C63.2043 171.036 63.5792 171.729 63.1577 172.006C62.2389 172.599 61.1886 172.959 60.0987 173.053C59.0087 173.147 57.9122 172.973 56.9051 172.546C56.8067 172.514 56.7244 172.446 56.6748 172.355C56.6252 172.264 56.6121 172.158 56.638 172.058C56.6679 171.958 56.736 171.874 56.8276 171.824C56.9191 171.774 57.0267 171.762 57.127 171.791Z" fill="white"/>
<path d="M183.47 61.5737C197.256 61.5737 208.432 50.4081 208.432 36.6345C208.432 22.861 197.256 11.6953 183.47 11.6953C169.684 11.6953 158.508 22.861 158.508 36.6345C158.508 50.4081 169.684 61.5737 183.47 61.5737Z" fill="#FF6584"/>
<path d="M259.899 35.3329C257.65 32.959 255.275 30.7069 252.785 28.5865C247.922 24.4664 242.538 20.9631 236.537 18.7563C234.278 17.9227 231.944 17.3087 229.566 16.9228C229.281 16.8767 228.999 16.8305 228.714 16.7927C228.693 16.7906 228.672 16.7906 228.651 16.7927C228.607 16.7803 228.562 16.7719 228.516 16.7676C227.933 16.692 227.349 16.6333 226.761 16.5913C223.595 16.3811 220.415 16.667 217.337 17.4389C215.552 17.889 213.809 18.4955 212.13 19.2513C210.448 20.0741 208.817 20.9974 207.246 22.0162C206.403 22.5282 205.534 22.9973 204.643 23.4217C202.041 24.6531 199.287 25.5335 196.454 26.0398C194.54 26.3827 192.602 26.5735 190.658 26.6103C188.97 26.6439 187.379 26.7026 185.779 27.311C184.071 27.952 182.537 28.9832 181.3 30.3222C180.063 31.6612 179.156 33.2708 178.652 35.0224C178.613 35.178 178.624 35.3422 178.684 35.4909C178.745 35.6396 178.851 35.7651 178.988 35.849C179.421 36.1594 179.841 36.5119 180.298 36.7888C180.702 36.973 181.133 37.0905 181.575 37.137C182.297 37.288 183.021 37.4349 183.746 37.5775C186.413 38.1062 189.091 38.5747 191.78 38.9831C197.189 39.8012 202.628 40.3774 208.099 40.7116C208.132 40.7165 208.166 40.7193 208.2 40.72C214.38 41.0927 220.575 41.1529 226.761 40.9004C227.697 40.8627 228.63 40.8165 229.566 40.762C233.467 40.5438 237.359 40.1997 241.241 39.7298C244.831 39.2935 248.408 38.7523 251.97 38.1062C254.515 37.6447 257.05 37.13 259.575 36.5622C259.698 36.526 259.809 36.4587 259.898 36.367C259.987 36.2753 260.051 36.1621 260.084 36.0386C260.116 35.915 260.116 35.7851 260.084 35.6615C260.052 35.5379 259.988 35.4247 259.899 35.3329Z" fill="#E6E6E6"/>
<path d="M208.015 68.5872C204.401 64.7249 200.42 61.2232 196.127 58.1318C194.703 57.1333 193.237 56.1935 191.73 55.3334C189.881 54.2674 187.962 53.3296 185.985 52.5265C185.544 52.3461 185.099 52.1741 184.654 52.0105C182.125 51.0747 179.502 50.4163 176.83 50.047C176.809 50.0428 176.788 50.047 176.767 50.0428C176.725 50.0344 176.679 50.026 176.637 50.0176C175.342 49.8498 174.037 49.7699 172.732 49.7784C171.795 49.7784 170.854 49.8288 169.922 49.9211C168.416 50.0694 166.922 50.3274 165.454 50.6931C164.727 50.8735 164.005 51.0833 163.295 51.3224C162.26 51.6628 161.244 52.0577 160.251 52.5056C160.234 52.514 160.221 52.5182 160.205 52.5265C158.537 53.3414 156.922 54.2578 155.367 55.2705C155.333 55.2914 155.295 55.3124 155.262 55.3334C153.496 56.3889 151.627 57.2632 149.685 57.943C148.018 58.5255 146.308 58.9772 144.57 59.294C142.657 59.6379 140.719 59.8273 138.775 59.8604C137.087 59.894 135.495 59.9527 133.899 60.5653C132.191 61.2061 130.657 62.2372 129.419 63.5762C128.181 64.9151 127.273 66.5248 126.769 68.2767C126.73 68.4322 126.741 68.5961 126.802 68.7447C126.862 68.8933 126.968 69.0188 127.105 69.1032C127.537 69.4137 127.961 69.7619 128.415 70.0388C128.818 70.2244 129.25 70.3421 129.691 70.387C130.414 70.5381 131.136 70.6891 131.863 70.8318C134.529 71.3604 137.208 71.8275 139.9 72.2331C143.592 72.7911 147.298 73.2372 151.02 73.5715C152.784 73.7351 154.549 73.8694 156.316 73.9743C160.847 74.247 165.383 74.3532 169.922 74.2931C170.859 74.2805 171.795 74.2596 172.732 74.2302C178.292 74.0666 183.835 73.6498 189.361 72.9799C195.521 72.2353 201.639 71.1781 207.692 69.8123C207.814 69.7764 207.925 69.7096 208.014 69.6182C208.103 69.5269 208.167 69.4141 208.2 69.2909C208.232 69.1677 208.232 69.0381 208.2 68.9148C208.168 68.7915 208.104 68.6787 208.015 68.5872Z" fill="#E6E6E6"/>
<path d="M145.796 1.65577L167.787 305.271L123.805 309.171V5.51862C129.046 1.42859 136.569 0.788696 145.796 1.65577Z" fill="#92E3A9"/>
<path d="M254.347 1.65577L232.355 305.271L276.338 309.171V5.51862C271.097 1.42859 263.574 0.788696 254.347 1.65577Z" fill="#92E3A9"/>
<path d="M277.374 5.65113C276.01 2.30799 273.108 0 269.752 0H129.924C125.258 0 121.466 4.47236 121.466 9.97491V311.744C121.425 314.536 122.47 317.234 124.38 319.272C125.38 320.321 126.646 321.079 128.042 321.466C128.655 321.635 129.288 321.72 129.924 321.719H269.752C270.388 321.72 271.021 321.635 271.634 321.466C275.396 320.456 278.21 316.484 278.21 311.744V9.97492C278.214 8.49323 277.93 7.02485 277.374 5.65113ZM275.405 311.744C275.405 315.419 272.868 318.41 269.752 318.41H129.924C127.341 318.41 125.153 316.355 124.485 313.557C124.343 312.963 124.271 312.354 124.271 311.744V9.97492C124.271 6.29995 126.808 3.31344 129.924 3.31344H269.752C270.326 3.31298 270.895 3.41531 271.432 3.61555C273.729 4.45753 275.405 6.9884 275.405 9.97492V311.744Z" fill="#92E3A9"/>
<path d="M276.805 91.7271H122.867V94.5318H276.805V91.7271Z" fill="#92E3A9"/>
<path d="M276.805 33.8286H122.867V36.6334H276.805V33.8286Z" fill="#92E3A9"/>
<path d="M276.805 138.474H122.867V141.278H276.805V138.474Z" fill="#92E3A9"/>
<path d="M172.823 1.25879H170.016V178.208H172.823V1.25879Z" fill="#92E3A9"/>
<path d="M229.659 1.25879H226.852V178.208H229.659V1.25879Z" fill="#92E3A9"/>
<path d="M294.35 304.189H109.999C106.65 304.193 103.439 305.524 101.071 307.89C98.7033 310.256 97.3711 313.464 97.3672 316.81C97.3655 318.419 97.675 320.013 98.2785 321.505C99.2163 323.844 100.834 325.85 102.923 327.263C105.012 328.677 107.476 329.433 109.999 329.434H294.35C296.556 329.433 298.722 328.856 300.635 327.759C302.547 326.663 304.139 325.085 305.252 323.183C305.569 322.645 305.844 322.084 306.075 321.505C306.679 320.013 306.988 318.419 306.986 316.81C306.982 313.463 305.649 310.256 303.28 307.89C300.911 305.524 297.7 304.193 294.35 304.189Z" fill="#92E3A9"/>
<path d="M276.807 171.664H123.805V181.013H276.807V171.664Z" fill="#92E3A9"/>
<path d="M198.901 168.859H201.708C203.073 168.859 204.382 169.401 205.348 170.365C206.313 171.329 206.855 172.637 206.855 174.001H193.754C193.754 173.326 193.887 172.657 194.146 172.033C194.404 171.409 194.783 170.842 195.261 170.365C195.739 169.887 196.307 169.509 196.931 169.25C197.556 168.992 198.225 168.859 198.901 168.859Z" fill="#92E3A9"/>
<path d="M203.004 198.031C219.018 198.031 232 185.061 232 169.062C232 153.062 219.018 140.092 203.004 140.092C186.99 140.092 174.008 153.062 174.008 169.062C174.008 185.061 186.99 198.031 203.004 198.031Z" fill="#FFB8B8"/>
<path d="M170.657 141.193C170.877 137.866 173.079 134.462 180.075 132.683C180.075 132.683 192.082 117.344 208.398 125.388C208.398 125.388 216.307 124.028 222.173 132.227C222.173 132.227 227.988 128.801 230.441 134.874C230.441 134.874 237.261 147.263 234.751 159.899C232.24 172.535 230.954 174.112 230.954 174.112C230.954 174.112 234.155 147.974 215.721 149.787C197.287 151.599 182.446 145.123 178.271 159.303C174.805 171.078 175.241 177.193 175.241 177.193C175.241 177.193 163.65 165.447 167.591 156.197C169.607 151.467 170.319 146.323 170.657 141.193Z" fill="#2F2E41"/>
<path d="M124.152 327.378H284.538C283.466 315.156 282.766 268.433 282.766 265.358C282.766 251.795 271.657 236.993 271.657 236.993L267.681 234.797L234.476 224.447L225.882 213.295C224.983 212.124 223.823 211.177 222.495 210.529C221.167 209.882 219.707 209.55 218.229 209.562L191.084 209.765C188.695 209.784 186.4 210.693 184.647 212.314L167.837 227.893L143.183 239.655L143.141 239.614L142.884 239.805L139.225 242.437L136.872 244.137C136.872 244.137 130.698 251.537 125.763 273.733C125.021 277.072 124.5 320.289 124.152 327.378Z" fill="#CDF4DE"/>
<path d="M321.66 321.505C321.274 321.857 320.883 322.206 320.493 322.554C319.014 323.867 317.515 325.158 315.995 326.426C313.698 328.339 311.353 330.195 308.961 331.994H93.051C88.6541 328.696 84.4197 325.2 80.3477 321.505H321.66Z" fill="#92E3A9"/>
<path d="M242.518 324.022H163.148L164.828 316.051H240.838L242.518 324.022Z" fill="#2F2E41"/>
<path d="M314.323 289.619H293.67C293.204 289.617 292.744 289.718 292.321 289.914C291.898 290.109 291.523 290.395 291.222 290.751C290.934 290.696 290.642 290.668 290.349 290.668C289.705 290.667 289.068 290.793 288.473 291.039C287.878 291.284 287.337 291.645 286.882 292.099C286.426 292.554 286.065 293.094 285.819 293.688C285.572 294.282 285.445 294.919 285.445 295.562C285.445 296.205 285.572 296.842 285.819 297.436C286.065 298.03 286.426 298.57 286.882 299.024C287.337 299.479 287.878 299.839 288.473 300.085C289.068 300.33 289.705 300.456 290.349 300.456C291.088 300.456 291.818 300.286 292.482 299.961L292.826 304.19L294.195 320.905C294.26 321.114 294.348 321.315 294.456 321.505C294.732 322.013 295.141 322.436 295.638 322.732C296.136 323.027 296.703 323.183 297.282 323.183H310.712C311.291 323.182 311.859 323.026 312.357 322.731C312.855 322.436 313.264 322.012 313.542 321.505C313.647 321.314 313.733 321.113 313.798 320.905L317.41 293.793C317.558 293.311 317.592 292.8 317.507 292.302C317.422 291.805 317.221 291.334 316.921 290.928C316.621 290.522 316.229 290.192 315.778 289.965C315.327 289.737 314.829 289.619 314.323 289.619ZM290.349 299.059C289.421 299.058 288.532 298.689 287.876 298.033C287.221 297.377 286.853 296.488 286.853 295.562C286.853 294.635 287.221 293.746 287.876 293.09C288.532 292.435 289.421 292.066 290.349 292.065C290.412 292.065 290.471 292.081 290.534 292.086C290.395 292.649 290.413 293.239 290.584 293.793L292.062 298.593C291.542 298.895 290.951 299.056 290.349 299.059Z" fill="#263238"/>
<path d="M267.677 200.912H136.94C135.817 200.913 134.74 201.36 133.946 202.153C133.152 202.947 132.705 204.023 132.703 205.145V293.285C132.704 294.408 133.151 295.484 133.945 296.277C134.74 297.071 135.817 297.517 136.94 297.519H267.677C268.801 297.517 269.878 297.071 270.672 296.277C271.467 295.484 271.914 294.408 271.915 293.285V205.145C271.913 204.023 271.466 202.947 270.672 202.153C269.877 201.36 268.801 200.913 267.677 200.912Z" fill="#263238"/>
<path d="M217.03 271.536H186.446C186.013 271.536 185.598 271.709 185.293 272.015C184.987 272.321 184.816 272.735 184.816 273.168V321.438H218.664V273.168C218.664 272.953 218.622 272.741 218.54 272.543C218.458 272.345 218.337 272.165 218.186 272.013C218.034 271.862 217.854 271.742 217.656 271.66C217.457 271.578 217.245 271.536 217.03 271.536ZM201.841 298.962C200.884 298.958 199.968 298.576 199.292 297.9C198.616 297.225 198.234 296.309 198.229 295.354V289.786C198.23 288.83 198.611 287.913 199.289 287.238C199.966 286.562 200.884 286.182 201.841 286.182C202.798 286.182 203.716 286.562 204.393 287.238C205.07 287.913 205.451 288.83 205.452 289.786V295.354C205.448 296.309 205.066 297.225 204.39 297.9C203.713 298.576 202.797 298.958 201.841 298.962Z" fill="#2F2E41"/>
<path d="M184.711 319.894V324.551C184.711 324.792 184.808 325.023 184.978 325.194C185.149 325.365 185.381 325.461 185.622 325.461H217.857C218.098 325.46 218.33 325.364 218.5 325.193C218.671 325.023 218.767 324.792 218.768 324.551V319.894H184.711Z" fill="#263238"/>
<path d="M264.896 292.364C266.036 292.364 266.96 291.441 266.96 290.302C266.96 289.163 266.036 288.24 264.896 288.24C263.756 288.24 262.832 289.163 262.832 290.302C262.832 291.441 263.756 292.364 264.896 292.364Z" fill="#2F2E41"/>
<path d="M153.445 287.311C153.35 287.311 153.256 287.33 153.169 287.366C153.081 287.402 153.001 287.455 152.934 287.522C152.867 287.589 152.814 287.669 152.778 287.756C152.741 287.844 152.723 287.938 152.723 288.033V291.746C152.723 291.937 152.799 292.12 152.935 292.255C153.07 292.39 153.254 292.466 153.445 292.466C153.636 292.466 153.82 292.39 153.955 292.255C154.09 292.12 154.167 291.937 154.167 291.746V288.033C154.167 287.938 154.149 287.844 154.112 287.756C154.076 287.669 154.023 287.589 153.956 287.522C153.889 287.455 153.809 287.402 153.721 287.366C153.634 287.33 153.54 287.311 153.445 287.311Z" fill="#2F2E41"/>
<path d="M157.367 287.311C157.272 287.311 157.178 287.33 157.09 287.366C157.003 287.402 156.923 287.455 156.856 287.522C156.789 287.589 156.736 287.669 156.7 287.756C156.663 287.844 156.645 287.938 156.645 288.033V291.746C156.645 291.937 156.721 292.121 156.856 292.256C156.992 292.391 157.175 292.467 157.367 292.467C157.558 292.467 157.742 292.391 157.878 292.256C158.013 292.121 158.089 291.937 158.089 291.746V288.033C158.089 287.938 158.07 287.844 158.034 287.756C157.998 287.669 157.945 287.589 157.878 287.522C157.811 287.455 157.731 287.402 157.643 287.366C157.556 287.33 157.462 287.311 157.367 287.311Z" fill="#2F2E41"/>
<path d="M161.289 287.311C161.194 287.311 161.1 287.33 161.012 287.366C160.925 287.402 160.845 287.455 160.778 287.522C160.711 287.589 160.658 287.669 160.621 287.756C160.585 287.844 160.566 287.938 160.566 288.033V291.746C160.567 291.937 160.643 292.12 160.779 292.255C160.914 292.39 161.097 292.466 161.289 292.466C161.48 292.466 161.663 292.39 161.799 292.255C161.934 292.12 162.011 291.937 162.011 291.746V288.033C162.011 287.938 161.992 287.844 161.956 287.756C161.92 287.669 161.867 287.589 161.799 287.522C161.732 287.455 161.653 287.402 161.565 287.366C161.478 287.33 161.384 287.311 161.289 287.311Z" fill="#2F2E41"/>
<path d="M165.211 287.311C165.116 287.311 165.022 287.33 164.934 287.366C164.847 287.402 164.767 287.455 164.7 287.522C164.633 287.589 164.58 287.669 164.543 287.756C164.507 287.844 164.488 287.938 164.488 288.033V291.746C164.489 291.937 164.565 292.12 164.7 292.255C164.836 292.39 165.019 292.466 165.211 292.466C165.402 292.466 165.585 292.39 165.721 292.255C165.856 292.12 165.932 291.937 165.933 291.746V288.033C165.933 287.938 165.914 287.844 165.878 287.756C165.842 287.669 165.788 287.589 165.721 287.522C165.654 287.455 165.575 287.402 165.487 287.366C165.399 287.33 165.305 287.311 165.211 287.311Z" fill="#2F2E41"/>
<path d="M168.34 321.924C174.371 321.924 179.259 317.04 179.259 311.016C179.259 304.991 174.371 300.107 168.34 300.107C162.31 300.107 157.422 304.991 157.422 311.016C157.422 317.04 162.31 321.924 168.34 321.924Z" fill="#FFB8B8"/>
<path d="M244.618 324.022C250.648 324.022 255.536 319.138 255.536 313.114C255.536 307.089 250.648 302.205 244.618 302.205C238.588 302.205 233.699 307.089 233.699 313.114C233.699 319.138 238.588 324.022 244.618 324.022Z" fill="#FFB8B8"/>
<path d="M357.315 181.445C356.236 179.663 354.958 177.759 352.955 177.177C350.637 176.503 348.255 177.842 346.234 179.164C340.192 183.116 334.373 187.399 328.805 191.994L328.811 192.063C333.146 191.764 336.744 203.281 341.08 202.983C344.212 202.767 348.189 190.705 350.957 189.225C352.008 188.663 353.032 187.913 354.222 187.86C355.701 187.795 356.99 188.827 358.004 189.905C363.998 196.282 365.732 206.034 372.457 211.637C368.217 201.189 363.153 191.093 357.315 181.445Z" fill="#263238"/>
<path d="M368.853 196.934C372.015 202.64 375.369 208.233 378.915 213.712V213.717C378.894 213.91 378.864 214.103 378.835 214.296C378.406 213.641 377.982 212.984 377.562 212.324C374.379 207.335 371.354 202.252 368.487 197.073C367.127 194.61 365.8 192.128 364.506 189.626C363.507 187.687 362.528 185.738 361.571 183.777C361.298 183.215 361.033 182.653 360.769 182.086C360.147 180.76 359.534 179.426 358.879 178.117C358.132 176.624 357.22 175.063 355.847 174.06C355.222 173.585 354.475 173.296 353.693 173.229C352.59 173.236 351.511 173.545 350.573 174.123C343.469 177.854 336.838 182.422 330.823 187.729C324.8 193.016 319.416 198.988 314.781 205.523C314.638 205.724 314.302 205.531 314.445 205.325C315.012 204.528 315.583 203.744 316.171 202.963C323.457 193.283 332.391 184.958 342.564 178.369C344.273 177.261 346.016 176.205 347.793 175.201C348.687 174.694 349.586 174.194 350.501 173.724C351.377 173.211 352.36 172.907 353.374 172.835C356.859 172.78 358.665 176.724 359.904 179.376C360.29 180.211 360.683 181.044 361.084 181.876C362.591 185.023 364.158 188.145 365.783 191.241C366.782 193.15 367.806 195.048 368.853 196.934Z" fill="#263238"/>
<path d="M330.482 185.781C330.279 185.556 330.078 185.331 329.874 185.105C328.267 183.329 326.543 181.575 324.336 180.557C323.284 180.056 322.135 179.79 320.97 179.777C319.768 179.81 318.582 180.068 317.475 180.539C316.949 180.749 316.434 180.987 315.928 181.241C315.348 181.532 314.78 181.843 314.214 182.156C313.151 182.743 312.102 183.357 311.067 183.996C309.007 185.267 307.012 186.636 305.081 188.102C304.08 188.862 303.1 189.647 302.141 190.457C301.248 191.21 300.374 191.983 299.518 192.775C299.334 192.944 299.061 192.671 299.244 192.502C299.47 192.292 299.698 192.084 299.926 191.877C300.571 191.295 301.226 190.724 301.892 190.164C303.105 189.141 304.35 188.157 305.627 187.213C307.612 185.744 309.665 184.375 311.786 183.105C312.846 182.471 313.921 181.864 315.011 181.283C315.339 181.108 315.672 180.937 316.009 180.774C316.773 180.39 317.566 180.067 318.382 179.809C319.537 179.436 320.76 179.316 321.966 179.458C323.13 179.627 324.252 180.015 325.273 180.6C327.439 181.81 329.12 183.681 330.755 185.507C330.92 185.693 330.648 185.967 330.482 185.781Z" fill="#263238"/>
<path d="M314.627 194.324C314.076 194.351 313.532 194.195 313.079 193.881C311.88 192.973 311.912 190.794 313.175 187.217C313.519 186.248 314.058 185.359 314.759 184.607C315.46 183.854 316.308 183.252 317.251 182.84C318.134 182.445 319.09 182.239 320.058 182.233C321.025 182.227 321.983 182.423 322.871 182.807C323.026 182.874 323.179 182.946 323.329 183.023C324.357 183.598 325.32 184.281 326.203 185.06C326.953 185.711 327.753 186.301 328.596 186.826L328.878 186.991L328.611 187.179C321.808 191.963 317.196 194.324 314.627 194.324Z" fill="#263238"/>
<path d="M340.784 165.85C338.548 165.849 336.38 165.073 334.652 163.654C332.924 162.235 331.742 160.261 331.308 158.069C329.438 158.447 327.722 159.371 326.376 160.723C325.031 162.074 324.116 163.794 323.748 165.665C323.38 167.536 323.574 169.473 324.307 171.234C325.04 172.994 326.279 174.498 327.867 175.556C329.454 176.613 331.32 177.178 333.228 177.177C335.137 177.176 337.002 176.611 338.589 175.552C340.176 174.493 341.414 172.989 342.146 171.228C342.877 169.467 343.071 167.529 342.702 165.659C342.07 165.786 341.428 165.85 340.784 165.85Z" fill="#263238"/>
<path opacity="0.74" d="M82.2339 181.373C90.1943 181.373 96.6474 174.926 96.6474 166.973C96.6474 159.019 90.1943 152.572 82.2339 152.572C74.2735 152.572 67.8203 159.019 67.8203 166.973C67.8203 174.926 74.2735 181.373 82.2339 181.373Z" fill="#263238"/>
<path opacity="0.74" d="M96.6479 181.373C104.608 181.373 111.062 174.926 111.062 166.973C111.062 159.019 104.608 152.572 96.6479 152.572C88.6875 152.572 82.2344 159.019 82.2344 166.973C82.2344 174.926 88.6875 181.373 96.6479 181.373Z" fill="#CDF4DE"/>
<path opacity="0.74" d="M89.562 169.896C97.5224 169.896 103.976 163.449 103.976 155.496C103.976 147.543 97.5224 141.096 89.562 141.096C81.6016 141.096 75.1484 147.543 75.1484 155.496C75.1484 163.449 81.6016 169.896 89.562 169.896Z" fill="#FF6584"/>
<path d="M127.253 151.369L90.2305 162.99L90.4822 163.79L127.505 152.17L127.253 151.369Z" fill="#263238"/>
<path d="M127.488 153.313C128.416 153.313 129.168 152.562 129.168 151.635C129.168 150.708 128.416 149.957 127.488 149.957C126.561 149.957 125.809 150.708 125.809 151.635C125.809 152.562 126.561 153.313 127.488 153.313Z" fill="#263238"/>
<path d="M367.838 227.151C370.299 228.884 372.663 230.65 375.368 231.984C375.317 232.19 375.263 232.4 375.212 232.605C374.881 232.45 374.557 232.286 374.234 232.119C371.492 230.684 369.132 228.733 366.557 227.038C365.281 226.157 363.887 225.459 362.417 224.965C360.884 224.505 359.282 224.317 357.684 224.411C351.019 224.739 345.308 228.712 339.114 230.713C336.082 231.695 332.857 232.219 329.695 231.603C326.532 230.986 323.723 229.308 320.93 227.789C318.176 226.287 315.173 224.776 311.956 224.776C309.336 224.781 306.581 225.829 305.178 228.145C305.135 228.215 305.066 228.264 304.986 228.283C304.907 228.303 304.823 228.29 304.753 228.249C304.682 228.207 304.631 228.14 304.609 228.061C304.587 227.982 304.597 227.898 304.637 227.827C304.95 227.299 305.336 226.817 305.783 226.396C307.614 224.663 310.306 223.979 312.779 224.181C315.979 224.441 318.898 225.951 321.665 227.47C324.601 229.081 327.608 230.814 331.001 231.166C334.352 231.519 337.669 230.642 340.777 229.463C346.795 227.176 352.733 223.367 359.427 223.79C362.585 223.992 365.289 225.36 367.838 227.151Z" fill="#263238"/>
<path d="M104.433 105.811V106.663C104.151 106.607 103.864 106.579 103.576 106.579H99.1835V116.002C99.1827 117.397 98.6276 118.735 97.6402 119.722C96.6528 120.708 95.3138 121.263 93.9174 121.264H87.425V122.715C87.425 123.297 87.5407 123.873 87.7652 124.41H86.8665C86.6787 123.865 86.5836 123.292 86.5852 122.715V121.264H83.0156V120.424H86.5852V111.001C86.586 109.606 87.141 108.268 88.1284 107.282C89.1159 106.295 90.4548 105.741 91.8512 105.74H98.3436V104.271H99.1835V105.74H103.576C103.863 105.74 104.15 105.764 104.433 105.811Z" fill="#CDF4DE"/>
<path d="M93.9167 99.0269H82.1919C80.7955 99.0277 79.4565 99.5822 78.4691 100.569C77.4817 101.555 76.9266 102.893 76.9258 104.288V116.002C76.9266 117.397 77.4817 118.735 78.4691 119.721C79.4565 120.708 80.7955 121.263 82.1919 121.263H93.9167C95.3132 121.263 96.6521 120.708 97.6395 119.721C98.6269 118.735 99.182 117.397 99.1828 116.002V104.271C99.1778 102.879 98.6209 101.545 97.6339 100.563C96.6469 99.5796 95.3103 99.0274 93.9167 99.0269ZM98.343 116.002C98.3414 117.174 97.8745 118.298 97.0448 119.127C96.2151 119.956 95.0902 120.423 93.9167 120.424H82.1919C81.0185 120.423 79.8936 119.956 79.0638 119.127C78.2341 118.298 77.7673 117.174 77.7657 116.002V104.288C77.7673 103.116 78.2341 101.992 79.0638 101.163C79.8936 100.334 81.0185 99.8676 82.1919 99.866H93.9167C95.0873 99.8673 96.2098 100.331 97.0391 101.157C97.8684 101.982 98.3372 103.102 98.343 104.271V116.002Z" fill="#263238"/>
<path d="M86.586 120.424V121.263H87.4258V120.424H86.586ZM86.586 120.424V121.263H87.4258V120.424H86.586ZM104.434 105.811C104.15 105.764 103.864 105.74 103.577 105.74H91.852C90.4556 105.741 89.1167 106.295 88.1293 107.282C87.1419 108.268 86.5868 109.606 86.586 111.001V122.715C86.5844 123.292 86.6795 123.865 86.8673 124.41C87.2218 125.45 87.893 126.353 88.7869 126.992C89.6808 127.632 90.7526 127.976 91.852 127.976H103.577C104.973 127.975 106.312 127.421 107.3 126.434C108.287 125.448 108.842 124.11 108.843 122.715V111.001C108.843 109.754 108.399 108.548 107.592 107.598C106.784 106.647 105.665 106.014 104.434 105.811ZM108.003 122.715C108.002 123.887 107.535 125.011 106.705 125.84C105.875 126.669 104.75 127.136 103.577 127.137H91.852C90.6787 127.135 89.5538 126.669 88.7241 125.84C87.8944 125.011 87.4275 123.887 87.4258 122.715V111.001C87.4274 109.829 87.8943 108.705 88.724 107.876C89.5537 107.047 90.6786 106.58 91.852 106.579H103.577C104.751 106.579 105.876 107.045 106.706 107.875C107.536 108.704 108.003 109.828 108.003 111.001V122.715ZM86.586 120.424V121.263H87.4258V120.424H86.586Z" fill="#263238"/>
<path d="M78.2914 229.798H28.486C28.1393 229.798 27.8068 229.935 27.5613 230.18C27.3157 230.425 27.1771 230.756 27.1758 231.103V234.052C28.819 240.34 30.8083 246.532 33.1348 252.601H78.2914C78.4629 252.601 78.6328 252.567 78.7914 252.502C78.9499 252.436 79.0939 252.34 79.2153 252.219C79.3366 252.098 79.4328 251.954 79.4983 251.795C79.5639 251.637 79.5976 251.467 79.5974 251.296V231.103C79.597 230.757 79.4593 230.425 79.2145 230.18C78.9696 229.936 78.6376 229.798 78.2914 229.798Z" fill="#CDF4DE"/>
<path d="M73.5459 259.151H35.793C36.2423 260.204 36.7001 261.248 37.1746 262.289H73.5459C75.5953 262.318 75.5743 259.121 73.5459 259.151Z" fill="#E4E4E4"/>
<path d="M73.5438 266.341H39.0664C39.5703 267.395 40.0882 268.441 40.6202 269.48H73.5438C75.5931 269.509 75.5721 266.316 73.5438 266.341Z" fill="#E4E4E4"/>
<path d="M73.5451 273.537H42.7422C43.3049 274.59 43.8844 275.635 44.4723 276.675H73.5451C75.5944 276.704 75.5734 273.507 73.5451 273.537Z" fill="#E4E4E4"/>
<path d="M331.749 80.1362H331.51C332.255 80.1369 332.989 80.3105 333.656 80.6432H332.567C331.393 80.6445 330.268 81.1108 329.438 81.9398C328.609 82.7688 328.142 83.8928 328.141 85.0651V96.7795C328.142 97.9519 328.609 99.0759 329.438 99.9048C330.268 100.734 331.393 101.2 332.567 101.201H333.261C332.703 101.42 332.109 101.533 331.51 101.534H331.749C333.034 101.532 334.266 101.022 335.174 100.114C336.083 99.2063 336.594 97.9757 336.595 96.6921V84.9777C336.594 83.6941 336.083 82.4635 335.174 81.5559C334.266 80.6483 333.034 80.1377 331.749 80.1362Z" fill="#263238"/>
<path opacity="0.21" d="M331.749 80.1362H331.51C332.255 80.1369 332.989 80.3105 333.656 80.6432H332.567C331.393 80.6445 330.268 81.1108 329.438 81.9398C328.609 82.7688 328.142 83.8928 328.141 85.0651V96.7795C328.142 97.9519 328.609 99.0759 329.438 99.9048C330.268 100.734 331.393 101.2 332.567 101.201H333.261C332.703 101.42 332.109 101.533 331.51 101.534H331.749C333.034 101.532 334.266 101.022 335.174 100.114C336.083 99.2063 336.594 97.9757 336.595 96.6921V84.9777C336.594 83.6941 336.083 82.4635 335.174 81.5559C334.266 80.6483 333.034 80.1377 331.749 80.1362Z" fill="black"/>
<path d="M300.671 80.1362H300.432C301.177 80.1369 301.911 80.3105 302.578 80.6432H301.488C300.315 80.6445 299.19 81.1108 298.36 81.9398C297.531 82.7688 297.064 83.8928 297.062 85.0651V96.7795C297.064 97.9519 297.531 99.0759 298.36 99.9048C299.19 100.734 300.315 101.2 301.488 101.201H302.183C301.625 101.42 301.031 101.533 300.432 101.534H300.671C301.956 101.532 303.188 101.022 304.096 100.114C305.005 99.2063 305.516 97.9757 305.517 96.6921V84.9777C305.516 83.6941 305.005 82.4635 304.096 81.5559C303.188 80.6483 301.956 80.1377 300.671 80.1362Z" fill="#CDF4DE"/>
<path opacity="0.21" d="M300.671 80.1362H300.432C301.177 80.1369 301.911 80.3105 302.578 80.6432H301.488C300.315 80.6445 299.19 81.1108 298.36 81.9398C297.531 82.7688 297.064 83.8928 297.062 85.0651V96.7795C297.064 97.9519 297.531 99.0759 298.36 99.9048C299.19 100.734 300.315 101.2 301.488 101.201H302.183C301.625 101.42 301.031 101.533 300.432 101.534H300.671C301.956 101.532 303.188 101.022 304.096 100.114C305.005 99.2063 305.516 97.9757 305.517 96.6921V84.9777C305.516 83.6941 305.005 82.4635 304.096 81.5559C303.188 80.6483 301.956 80.1377 300.671 80.1362Z" fill="black"/>
<path d="M301.538 101.238C300.365 101.237 299.24 100.77 298.41 99.9415C297.58 99.1125 297.113 97.9885 297.112 96.8161V85.1018C297.113 83.9294 297.58 82.8054 298.41 81.9764C299.24 81.1475 300.365 80.6812 301.538 80.6798H302.627C301.961 80.3471 301.226 80.1735 300.481 80.1729H288.756C287.471 80.1743 286.24 80.6849 285.331 81.5925C284.423 82.5002 283.912 83.7307 283.91 85.0143V96.7287C283.912 98.0123 284.423 99.2429 285.331 100.151C286.24 101.058 287.471 101.569 288.756 101.57H300.481C301.081 101.569 301.674 101.457 302.232 101.238L301.538 101.238Z" fill="#CDF4DE"/>
<path d="M332.612 101.238C331.439 101.237 330.314 100.77 329.484 99.9415C328.654 99.1125 328.187 97.9885 328.186 96.8161V85.1018C328.187 83.9294 328.654 82.8054 329.484 81.9764C330.314 81.1475 331.439 80.6812 332.612 80.6798H333.701C333.035 80.3471 332.3 80.1735 331.556 80.1729H319.83C318.546 80.1743 317.314 80.6849 316.405 81.5925C315.497 82.5002 314.986 83.7307 314.984 85.0143V96.7287C314.986 98.0123 315.497 99.2429 316.405 100.151C317.314 101.058 318.546 101.569 319.83 101.57H331.556C332.155 101.569 332.749 101.457 333.306 101.238L332.612 101.238Z" fill="#263238"/>
<path d="M346.458 83.0879C350.761 89.0023 354.697 95.1743 358.245 101.569H350.905C349.62 101.567 348.389 101.057 347.48 100.149C346.572 99.2416 346.061 98.0112 346.059 96.7277V85.0136C346.058 84.3512 346.194 83.6957 346.458 83.0879Z" fill="#FF6584"/>
<path d="M331.741 107.716L327.634 101.57L324.631 97.0761C324.456 96.8136 324.21 96.6061 323.921 96.4777C323.633 96.3492 323.314 96.305 323.002 96.3503C322.689 96.3955 322.396 96.5283 322.156 96.7332C321.916 96.9382 321.739 97.2069 321.645 97.5082L320.381 101.57L317.836 109.73C317.736 110.055 317.737 110.403 317.84 110.727C317.942 111.052 318.141 111.337 318.411 111.546C318.68 111.754 319.006 111.875 319.346 111.894C319.687 111.912 320.024 111.826 320.314 111.647L321.217 111.089C321.399 110.977 321.606 110.914 321.819 110.904C322.032 110.895 322.245 110.94 322.436 111.035C322.627 111.131 322.79 111.273 322.91 111.449C323.031 111.625 323.104 111.829 323.123 112.042L323.951 121.062C323.99 121.476 324.181 121.861 324.489 122.142C324.796 122.423 325.197 122.579 325.614 122.581C325.664 122.581 325.714 122.577 325.769 122.573L327.037 122.459C327.256 122.439 327.469 122.377 327.663 122.275C327.858 122.172 328.03 122.033 328.171 121.864C328.311 121.696 328.417 121.501 328.482 121.291C328.547 121.081 328.57 120.861 328.549 120.643L327.697 111.328C327.676 111.11 327.714 110.889 327.806 110.69C327.898 110.49 328.041 110.318 328.221 110.192C328.401 110.065 328.611 109.988 328.83 109.968C329.049 109.948 329.269 109.986 329.469 110.078L329.654 110.162C329.984 110.314 330.356 110.354 330.712 110.276C331.067 110.198 331.388 110.006 331.624 109.729C331.861 109.452 332 109.105 332.021 108.742C332.042 108.379 331.943 108.018 331.741 107.716Z" fill="#92E3A9"/>
</g>
<defs>
<clipPath id="clip0_248:14545">
<rect width="379" height="368" fill="white"/>
</clipPath>
</defs>
</svg>
